<svg width="24" height="19" viewBox="0 0 24 19" fill="none" xmlns="http://www.w3.org/2000/svg">
<path fill-rule="evenodd" clip-rule="evenodd" d="M14.626 0.413208H16.3074V1.9163H14.626V0.413208Z" fill="white"/>
<path fill-rule="evenodd" clip-rule="evenodd" d="M15.4662 1.81092C20.0908 1.81092 23.8398 5.56623 23.8398 10.1983C23.8398 14.831 20.0908 18.5866 15.4662 18.5866C13.1826 18.5866 11.6702 17.8297 8.57073 16.7757L9.43365 15.9067C9.82119 15.5156 9.4412 14.803 8.86894 15.0239C6.2663 16.0251 4.74933 14.956 4.00956 12.5411C5.12903 13.2525 6.67497 12.762 7.1594 12.2764C7.91004 11.5252 7.61697 10.6562 5.92735 11.2146C3.76055 11.929 1.47634 10.6785 0.378906 7.58574C3.69415 9.25121 3.93833 5.82368 7.4401 6.737C7.1422 5.53544 6.33451 5.13914 4.48463 5.18653C6.31912 2.87455 8.98725 4.07159 11.8012 2.65694C12.9421 2.09853 14.1959 1.80911 15.4662 1.81092Z" fill="#FBD405"/>
<path fill-rule="evenodd" clip-rule="evenodd" d="M21.4704 10.1981C21.4704 13.5199 18.783 16.2125 15.4659 16.2125C14.6771 16.2126 13.8959 16.057 13.1673 15.7547C12.4387 15.4524 11.7769 15.0093 11.2198 14.4508C10.0935 13.3219 9.46094 11.7923 9.46094 10.1976C9.46094 8.6029 10.0935 7.07333 11.2198 5.94443C11.7771 5.38617 12.4389 4.94325 13.1675 4.64101C13.8961 4.33876 14.6771 4.18312 15.4659 4.18298C18.783 4.18298 21.4704 6.87677 21.4704 10.1981Z" fill="#185AAA"/>
<path d="M15.3764 5.02996C15.2929 5.03163 15.2134 5.06621 15.1552 5.12618C15.097 5.18615 15.0649 5.26666 15.0658 5.3502V5.80444C15.0658 6.22398 15.6966 6.22398 15.6966 5.80444V5.3502C15.6974 5.30793 15.6896 5.26594 15.6738 5.22673C15.658 5.18753 15.6344 5.15192 15.6046 5.12202C15.5747 5.09213 15.5391 5.06857 15.4998 5.05275C15.4606 5.03693 15.4187 5.02918 15.3764 5.02996ZM15.3764 14.2739C15.3349 14.2745 15.294 14.2833 15.256 14.2997C15.218 14.3161 15.1835 14.3399 15.1547 14.3696C15.1258 14.3994 15.1031 14.4345 15.0879 14.4731C15.0726 14.5116 15.0651 14.5528 15.0658 14.5942V15.0469C15.0658 15.468 15.6966 15.468 15.6966 15.0469V14.5942C15.6996 14.4161 15.5548 14.2706 15.3764 14.2739ZM19.7691 9.883C19.3496 9.883 19.3496 10.5141 19.7691 10.5141H20.2219C20.6411 10.5141 20.6411 9.883 20.2219 9.883H19.7691ZM10.539 9.883C10.1198 9.883 10.1198 10.5141 10.539 10.5141H10.9933C11.4128 10.5141 11.4128 9.883 10.9933 9.883H10.539ZM18.4804 12.9882C18.1966 12.9882 18.0578 13.3323 18.2609 13.529L18.5796 13.8496C18.6086 13.8806 18.6434 13.9054 18.6821 13.9227C18.7209 13.9399 18.7627 13.9492 18.805 13.95C18.8474 13.9507 18.8895 13.943 18.9288 13.9271C18.9682 13.9113 19.0039 13.8877 19.0339 13.8577C19.0638 13.8278 19.0873 13.7921 19.103 13.7529C19.1188 13.7136 19.1264 13.6716 19.1255 13.6293C19.1246 13.587 19.1152 13.5454 19.0978 13.5068C19.0804 13.4683 19.0554 13.4336 19.0242 13.405L18.7055 13.0848C18.6764 13.0543 18.6415 13.03 18.6028 13.0134C18.5641 12.9969 18.5225 12.9883 18.4804 12.9882ZM11.954 6.45246C11.6712 6.45246 11.5329 6.79654 11.7349 6.99363L12.0551 7.31236C12.1761 7.44305 12.3829 7.44818 12.5093 7.32141C12.5392 7.29128 12.5626 7.25547 12.5783 7.2161C12.594 7.17674 12.6016 7.13462 12.6007 7.09225C12.5998 7.04987 12.5904 7.00812 12.573 6.96945C12.5557 6.93079 12.5307 6.896 12.4997 6.86717L12.181 6.54874C12.1515 6.51832 12.1162 6.49412 12.0772 6.47758C12.0383 6.46104 11.9963 6.4525 11.954 6.45246ZM18.7976 6.45246C18.7567 6.4534 18.7165 6.46239 18.6792 6.47891C18.6418 6.49543 18.6081 6.51916 18.58 6.54874L18.2612 6.86717C18.2302 6.896 18.2052 6.93079 18.1879 6.96945C18.1705 7.00812 18.1611 7.04987 18.1602 7.09225C18.1593 7.13462 18.1669 7.17674 18.1826 7.2161C18.1983 7.25547 18.2218 7.29128 18.2516 7.32141C18.2816 7.35133 18.3174 7.37489 18.3567 7.39068C18.3961 7.40648 18.4382 7.41418 18.4806 7.41334C18.523 7.41249 18.5648 7.40311 18.6035 7.38577C18.6422 7.36842 18.677 7.34345 18.7058 7.31236L19.0245 6.99363C19.2313 6.79322 19.0846 6.4431 18.7976 6.45246ZM12.2724 12.9882C12.1906 12.9915 12.1112 13.0244 12.0548 13.0848L11.7346 13.405C11.7036 13.4338 11.6787 13.4685 11.6615 13.5071C11.6442 13.5457 11.6349 13.5874 11.6342 13.6296C11.6334 13.6719 11.6412 13.7139 11.657 13.7531C11.6729 13.7923 11.6965 13.8279 11.7264 13.8577C11.7564 13.8877 11.7921 13.9113 11.8314 13.9272C11.8708 13.9431 11.9129 13.9509 11.9553 13.9501C11.9977 13.9493 12.0395 13.94 12.0782 13.9228C12.1169 13.9055 12.1518 13.8806 12.1807 13.8496L12.4994 13.529C12.7061 13.3292 12.5598 12.9806 12.2724 12.9882Z" fill="white"/>
<path fill-rule="evenodd" clip-rule="evenodd" d="M15.4664 9.72671C15.7299 9.72671 15.9382 9.93376 15.9382 10.1985C15.9382 10.4638 15.7302 10.6702 15.4664 10.6702C15.4043 10.6708 15.3427 10.659 15.2852 10.6355C15.2277 10.612 15.1754 10.5773 15.1315 10.5334C15.0876 10.4895 15.0529 10.4372 15.0294 10.3797C15.0059 10.3222 14.9941 10.2606 14.9947 10.1985C14.9947 9.93346 15.2032 9.72671 15.4664 9.72671ZM17.594 7.65317C17.5126 7.65481 17.4351 7.68817 17.3779 7.74613L15.9255 9.20214C15.7822 9.13343 15.6254 9.09735 15.4664 9.0965C14.8625 9.0965 14.3672 9.59481 14.3672 10.1985C14.3672 10.8024 14.8625 11.3013 15.4664 11.3013C16.0704 11.3013 16.566 10.8024 16.566 10.1985C16.566 9.98567 16.5026 9.78888 16.3973 9.61986L17.8228 8.19102C18.0247 7.99061 17.8795 7.64653 17.594 7.65317Z" fill="white"/>
</svg>
