<svg width="21" height="13" viewBox="0 0 21 13" fill="none" xmlns="http://www.w3.org/2000/svg">
<path d="M5.25 2.5625C5.25 2.20025 4.956 1.90625 4.59375 1.90625H0.65625C0.294 1.90625 0 2.20025 0 2.5625C0 2.92475 0.294 3.21875 0.65625 3.21875H4.59375C4.956 3.21875 5.25 2.92475 5.25 2.5625ZM4.59375 4.53125H1.96875C1.6065 4.53125 1.3125 4.82525 1.3125 5.1875C1.3125 5.54975 1.6065 5.84375 1.96875 5.84375H4.59375C4.956 5.84375 5.25 5.54975 5.25 5.1875C5.25 4.82525 4.956 4.53125 4.59375 4.53125ZM4.59375 7.15625H3.28125C2.919 7.15625 2.625 7.45025 2.625 7.8125C2.625 8.17475 2.919 8.46875 3.28125 8.46875H4.59375C4.956 8.46875 5.25 8.17475 5.25 7.8125C5.25 7.45025 4.956 7.15625 4.59375 7.15625Z" fill="#FBD405"/>
<path d="M20.9068 6.81894L18.9381 3.53769C18.8799 3.44031 18.7974 3.35971 18.6987 3.3038C18.6 3.24789 18.4884 3.21858 18.375 3.21875H13.7812C13.419 3.21875 13.125 3.51275 13.125 3.875V10.4375C13.125 10.7998 13.419 11.0938 13.7812 11.0938H20.3438C20.706 11.0938 21 10.7998 21 10.4375V7.15625C21 7.03681 20.9685 6.92 20.9068 6.81894Z" fill="#185AAA"/>
<path d="M15.75 4.53125H18.0036L19.5786 7.15625H15.75V4.53125Z" fill="white"/>
<path d="M13.7812 0.59375H4.59375C4.2315 0.59375 3.9375 0.88775 3.9375 1.25V10.4375C3.9375 10.7998 4.2315 11.0938 4.59375 11.0938H14.4375V1.25C14.4375 0.88775 14.1435 0.59375 13.7812 0.59375Z" fill="#FBD405"/>
<path d="M17.7188 11.75C18.4436 11.75 19.0312 11.1624 19.0312 10.4375C19.0312 9.71263 18.4436 9.125 17.7188 9.125C16.9939 9.125 16.4062 9.71263 16.4062 10.4375C16.4062 11.1624 16.9939 11.75 17.7188 11.75Z" fill="white"/>
<path d="M17.7188 12.4062C16.6333 12.4062 15.75 11.5229 15.75 10.4375C15.75 9.35206 16.6333 8.46875 17.7188 8.46875C18.8042 8.46875 19.6875 9.35206 19.6875 10.4375C19.6875 11.5229 18.8042 12.4062 17.7188 12.4062ZM17.7188 9.78125C17.3578 9.78125 17.0625 10.0766 17.0625 10.4375C17.0625 10.7984 17.3578 11.0938 17.7188 11.0938C18.0797 11.0938 18.375 10.7984 18.375 10.4375C18.375 10.0766 18.0797 9.78125 17.7188 9.78125Z" fill="black"/>
<path d="M14.4375 11.0938H4.59375C4.2315 11.0938 3.9375 10.7998 3.9375 10.4375V8.46875H14.4375V11.0938Z" fill="#185AAA"/>
<path d="M8.53125 11.75C9.25612 11.75 9.84375 11.1624 9.84375 10.4375C9.84375 9.71263 9.25612 9.125 8.53125 9.125C7.80638 9.125 7.21875 9.71263 7.21875 10.4375C7.21875 11.1624 7.80638 11.75 8.53125 11.75Z" fill="white"/>
<path d="M8.53125 12.4062C7.44581 12.4062 6.5625 11.5229 6.5625 10.4375C6.5625 9.35206 7.44581 8.46875 8.53125 8.46875C9.61669 8.46875 10.5 9.35206 10.5 10.4375C10.5 11.5229 9.61669 12.4062 8.53125 12.4062ZM8.53125 9.78125C8.169 9.78125 7.875 10.0766 7.875 10.4375C7.875 10.7984 8.169 11.0938 8.53125 11.0938C8.8935 11.0938 9.1875 10.7984 9.1875 10.4375C9.1875 10.0766 8.8935 9.78125 8.53125 9.78125Z" fill="black"/>
</svg>
