<svg width="13" height="19" viewBox="0 0 13 19" fill="none" xmlns="http://www.w3.org/2000/svg">
<path d="M6.37704 0.667479C7.62775 1.65855 10.7215 4.7328 9.99985 10.4642C9.99985 10.4642 10.806 9.98324 11.5227 9.0932C11.6882 8.88787 12.0205 8.96677 12.0766 9.22445C12.2012 9.79758 12.3521 10.7154 12.3771 11.8764C12.4527 15.3841 9.68718 18.3945 6.17871 18.4006C2.77673 18.4066 0 15.6252 0 12.2102C0 9.25093 1.43249 7.70628 1.98407 5.16067C2.02948 4.95091 2.27034 4.85049 2.45482 4.96026C2.87338 5.20909 3.53518 5.67514 3.96817 6.33737C3.96817 6.33737 5.72889 4.10706 5.86676 0.907107C5.87788 0.648505 6.1742 0.506599 6.377 0.667479H6.37704Z" fill="#FBD405"/>
<path d="M9.53246 12.1805C9.03843 12.922 8.41223 13.0905 8.41223 13.0905C8.66571 10.0484 7.50221 7.81611 7.02303 7.04019C6.95525 6.93031 6.78687 6.95936 6.7595 7.0856C6.32139 9.11797 5.14508 10.2466 5.14508 10.2466C4.76231 9.80026 4.39848 9.61744 4.2092 9.54677C4.1348 9.51906 4.05525 9.55997 4.02757 9.63441C3.54439 10.9302 2.63122 11.9306 2.42338 13.4202C2.11759 15.6121 3.7102 17.6896 5.91804 17.8429C8.14493 17.9976 9.9994 16.2368 9.9994 14.043C9.9994 13.1604 9.88217 12.5542 9.79241 12.2199C9.76008 12.0992 9.60163 12.0766 9.53246 12.1805Z" fill="#FF8A00"/>
<path d="M6.2822 11.8427C6.23632 11.7274 6.08976 11.6957 6.00616 11.7873C5.50685 12.3357 4.16504 13.9405 4.16504 15.3535C4.16504 16.4721 5.0719 17.379 6.19064 17.379C7.30918 17.379 8.21608 16.4721 8.21608 15.3535C8.21608 14.29 6.90836 13.418 6.2822 11.8427Z" fill="white"/>
</svg>
