<svg width="17" height="17" viewBox="0 0 17 17" fill="none" xmlns="http://www.w3.org/2000/svg">
<g clip-path="url(#clip0_542_2432)">
<path d="M16.5352 3.86985H14.1611C14.4195 3.16432 14.3037 2.19711 13.8282 1.20398C13.6028 0.735247 13.1981 0.421312 12.689 0.320042C12.1792 0.217544 11.6846 0.351884 11.2963 0.698292L9.40203 2.38909C9.13448 2.24084 8.82702 2.15611 8.49997 2.15611C8.17292 2.15611 7.86546 2.24084 7.59794 2.38909L5.70363 0.698259C5.31539 0.351884 4.82083 0.217577 4.31133 0.319976C3.80186 0.421312 3.39718 0.735247 3.17166 1.20427C2.69629 2.19715 2.58048 3.16432 2.83883 3.86985H0.464844C0.412008 3.86985 0.361336 3.89084 0.323975 3.9282C0.286614 3.96557 0.265625 4.01624 0.265625 4.06907V7.81747C0.265625 7.87031 0.286614 7.92098 0.323975 7.95834C0.361336 7.9957 0.412008 8.01669 0.464844 8.01669H1.471V16.5143C1.471 16.5671 1.49199 16.6178 1.52935 16.6551C1.56671 16.6925 1.61738 16.7135 1.67022 16.7135H15.3298C15.3826 16.7135 15.4333 16.6925 15.4707 16.6551C15.508 16.6178 15.529 16.5671 15.529 16.5143V8.01669H16.5352C16.588 8.01669 16.6387 7.9957 16.676 7.95834C16.7134 7.92098 16.7344 7.87031 16.7344 7.81747V4.06907C16.7344 4.01624 16.7134 3.96557 16.676 3.9282C16.6387 3.89084 16.588 3.86985 16.5352 3.86985Z" fill="#DCB900"/>
<path d="M16.5352 3.86987H0.464844C0.354818 3.86987 0.265625 3.95907 0.265625 4.06909V7.81749C0.265625 7.92752 0.354818 8.01671 0.464844 8.01671H16.5352C16.6452 8.01671 16.7344 7.92752 16.7344 7.81749V4.06909C16.7344 3.95907 16.6452 3.86987 16.5352 3.86987Z" fill="#FBD405"/>
<path d="M10.3656 16.7135V4.01992C10.3656 2.99222 9.52854 2.15613 8.49967 2.15613C7.47081 2.15613 6.63379 2.99222 6.63379 4.01992V16.7135H10.3656Z" fill="#12437E"/>
<path d="M6.63379 4.01995V8.01671H10.3656V4.01995C10.3654 3.96986 10.3632 3.91979 10.359 3.86987H6.6404C6.6362 3.91979 6.63397 3.96986 6.63379 4.01995Z" fill="#185AAA"/>
<path d="M6.64062 3.86984H10.3592C10.2824 2.91213 9.47816 2.15613 8.49993 2.15613C7.5217 2.15613 6.71746 2.91213 6.64062 3.86984Z" fill="#12437E"/>
<path d="M7.5976 2.38909L5.7033 0.698259C5.31505 0.351884 4.82049 0.217577 4.31099 0.319976C3.80152 0.421312 3.39684 0.735247 3.17133 1.20427C2.69596 2.19715 2.58015 3.16432 2.8385 3.86985H6.64032C6.69146 3.23229 7.06483 2.68427 7.5976 2.38909ZM13.8278 1.20398C13.6025 0.735247 13.1978 0.421312 12.6887 0.320042C12.1788 0.217544 11.6843 0.351884 11.296 0.698292L9.40169 2.38909C9.93447 2.6843 10.3078 3.23229 10.3589 3.86982H14.1608C14.4191 3.16429 14.3033 2.19708 13.8278 1.20394L13.8278 1.20398Z" fill="#185AAA"/>
</g>
<defs>
<clipPath id="clip0_542_2432">
<rect width="17" height="17" fill="white"/>
</clipPath>
</defs>
</svg>
