<svg width="41" height="41" viewBox="0 0 41 41" fill="none" xmlns="http://www.w3.org/2000/svg">
<path d="M31.7318 41H9.26817C7.8982 41 6.77734 39.8791 6.77734 38.5092V2.49083C6.77734 1.12085 7.89828 0 9.26817 0H31.7318C33.1017 0 34.2226 1.12085 34.2226 2.49083V38.5092C34.2227 39.8791 33.1017 41 31.7318 41Z" fill="#1D1F38"/>
<path d="M22.4492 22.2284H18.5514C18.0068 22.2284 17.5614 21.7829 17.5614 21.2384V17.3406C17.5614 16.7961 18.0068 16.3506 18.5514 16.3506H22.4492C22.9937 16.3506 23.4392 16.7961 23.4392 17.3406V21.2384C23.4391 21.7828 22.9936 22.2284 22.4492 22.2284ZM30.2759 22.2284H26.378C25.8334 22.2284 25.388 21.7829 25.388 21.2384V17.3406C25.388 16.7961 25.8334 16.3506 26.378 16.3506H30.2759C30.8204 16.3506 31.2659 16.7961 31.2659 17.3406V21.2384C31.2659 21.7828 30.8205 22.2284 30.2759 22.2284ZM22.4492 30.1077H18.5514C18.0068 30.1077 17.5614 29.6622 17.5614 29.1177V25.2199C17.5614 24.6753 18.0068 24.2299 18.5514 24.2299H22.4492C22.9937 24.2299 23.4392 24.6753 23.4392 25.2199V29.1177C23.4391 29.6622 22.9936 30.1077 22.4492 30.1077ZM30.2759 30.1077H26.378C25.8334 30.1077 25.388 29.6622 25.388 29.1177V25.2199C25.388 24.6753 25.8334 24.2299 26.378 24.2299H30.2759C30.8204 24.2299 31.2659 24.6753 31.2659 25.2199V29.1177C31.2659 29.6622 30.8205 30.1077 30.2759 30.1077ZM14.6223 37.9987H10.7244C10.1798 37.9987 9.73438 37.5533 9.73438 37.0087V33.1109C9.73438 32.5663 10.1798 32.1209 10.7244 32.1209H14.6223C15.1668 32.1209 15.6123 32.5663 15.6123 33.1109V37.0087C15.6123 37.5533 15.1668 37.9987 14.6223 37.9987ZM22.4492 37.9987H18.5514C18.0068 37.9987 17.5614 37.5533 17.5614 37.0087V33.1109C17.5614 32.5663 18.0068 32.1209 18.5514 32.1209H22.4492C22.9937 32.1209 23.4392 32.5663 23.4392 33.1109V37.0087C23.4391 37.5533 22.9936 37.9987 22.4492 37.9987Z" fill="white"/>
<path d="M30.2756 37.9985H26.3777C25.8332 37.9985 25.3877 37.553 25.3877 37.0085V33.1106C25.3877 32.5661 25.8332 32.1206 26.3777 32.1206H30.2756C30.8201 32.1206 31.2656 32.5661 31.2656 33.1106V37.0085C31.2656 37.553 30.8202 37.9985 30.2756 37.9985Z" fill="#FBD405"/>
<path d="M8.81926 38.5092V2.49083C8.81926 1.12085 9.94011 0 11.3101 0H9.26817C7.89828 0 6.77734 1.12085 6.77734 2.49083V38.5092C6.77734 39.8791 7.8982 41 9.26817 41H11.3101C9.94011 41 8.81926 39.8791 8.81926 38.5092Z" fill="#1D1F38"/>
<path d="M14.6223 22.2284H10.7244C10.1798 22.2284 9.73438 21.7829 9.73438 21.2384V17.3406C9.73438 16.7961 10.1798 16.3506 10.7244 16.3506H14.6223C15.1668 16.3506 15.6123 16.7961 15.6123 17.3406V21.2384C15.6123 21.7828 15.1668 22.2284 14.6223 22.2284Z" fill="white"/>
<path d="M12.6733 21.2385V17.3406C12.6733 16.7961 13.1188 16.3506 13.6633 16.3506H10.7244C10.1798 16.3506 9.73438 16.7961 9.73438 17.3406V21.2385C9.73438 21.7829 10.1798 22.2285 10.7244 22.2285H13.6633C13.1189 22.2285 12.6733 21.7829 12.6733 21.2385Z" fill="white"/>
<path d="M14.6223 30.1078H10.7244C10.1798 30.1078 9.73438 29.6623 9.73438 29.1178V25.22C9.73438 24.6755 10.1798 24.23 10.7244 24.23H14.6223C15.1668 24.23 15.6123 24.6755 15.6123 25.22V29.1178C15.6123 29.6623 15.1668 30.1078 14.6223 30.1078Z" fill="#F4F4F4"/>
<path d="M10.751 19.3008C10.751 17.7001 12.6061 16.8028 13.8612 17.7918C14.1296 18.0034 14.1757 18.3924 13.9641 18.6608C13.7525 18.9293 13.3635 18.9753 13.0952 18.7638C12.6507 18.4132 11.9885 18.7273 11.9885 19.3009C11.9885 19.871 12.6482 20.1905 13.095 19.8381C13.2241 19.7386 13.3872 19.6939 13.5489 19.7139C13.7107 19.7339 13.858 19.8169 13.9589 19.9449C14.0598 20.0728 14.1062 20.2355 14.0879 20.3974C14.0696 20.5594 13.9882 20.7076 13.8613 20.8098C12.6077 21.7985 10.751 20.9033 10.751 19.3008Z" fill="#1D1F38"/>
<path d="M30.5819 5.82812H10.4182C10.2369 5.82812 10.0629 5.90018 9.93468 6.02843C9.80643 6.15668 9.73438 6.33062 9.73438 6.51199V12.8948C9.73438 13.0762 9.80643 13.2501 9.93468 13.3783C10.0629 13.5066 10.2369 13.5786 10.4182 13.5786H30.5819C30.7633 13.5786 30.9372 13.5066 31.0655 13.3783C31.1937 13.2501 31.2658 13.0762 31.2658 12.8948V6.51199C31.2658 6.33062 31.1937 6.15668 31.0655 6.02843C30.9372 5.90018 30.7633 5.82813 30.5819 5.82812Z" fill="#185AAA"/>
<path d="M11.7827 12.8947V6.51199C11.7827 6.33062 11.8547 6.15668 11.983 6.02843C12.1112 5.90018 12.2852 5.82813 12.4666 5.82812H10.4182C10.2369 5.82812 10.0629 5.90018 9.93468 6.02843C9.80643 6.15668 9.73438 6.33062 9.73438 6.51199V12.8947C9.73438 13.0761 9.80643 13.25 9.93468 13.3783C10.0629 13.5065 10.2369 13.5786 10.4182 13.5786H12.4666C12.3768 13.5786 12.2879 13.5609 12.2049 13.5265C12.1219 13.4922 12.0465 13.4418 11.983 13.3783C11.9195 13.3148 11.8691 13.2394 11.8348 13.1564C11.8004 13.0734 11.7827 12.9845 11.7827 12.8947Z" fill="#185AAA"/>
<path d="M12.6733 29.1178V25.22C12.6733 24.6755 13.1188 24.23 13.6633 24.23H10.7244C10.1798 24.23 9.73438 24.6754 9.73438 25.22V29.1178C9.73438 29.6624 10.1798 30.1078 10.7244 30.1078H13.6633C13.1189 30.1078 12.6733 29.6623 12.6733 29.1178ZM12.6733 37.0088V33.1109C12.6733 32.5664 13.1188 32.1209 13.6633 32.1209H10.7244C10.1798 32.1209 9.73438 32.5664 9.73438 33.1109V37.0088C9.73438 37.5534 10.1798 37.9988 10.7244 37.9988H13.6633C13.1189 37.9988 12.6733 37.5534 12.6733 37.0088ZM20.5002 21.2385V17.3406C20.5002 16.7961 20.9456 16.3506 21.4902 16.3506H18.5512C18.0067 16.3506 17.5612 16.7961 17.5612 17.3406V21.2385C17.5612 21.7829 18.0067 22.2285 18.5512 22.2285H21.4902C20.9456 22.2285 20.5002 21.7829 20.5002 21.2385ZM20.5002 29.1178V25.22C20.5002 24.6755 20.9456 24.23 21.4902 24.23H18.5512C18.0067 24.23 17.5612 24.6754 17.5612 25.22V29.1178C17.5612 29.6624 18.0067 30.1078 18.5512 30.1078H21.4902C20.9456 30.1078 20.5002 29.6623 20.5002 29.1178ZM20.5002 37.0088V33.1109C20.5002 32.5664 20.9456 32.1209 21.4902 32.1209H18.5512C18.0067 32.1209 17.5612 32.5664 17.5612 33.1109V37.0088C17.5612 37.5534 18.0067 37.9988 18.5512 37.9988H21.4902C20.9456 37.9988 20.5002 37.5534 20.5002 37.0088ZM28.327 21.2385V17.3406C28.327 16.7961 28.7725 16.3506 29.317 16.3506H26.3781C25.8335 16.3506 25.388 16.7961 25.388 17.3406V21.2385C25.388 21.7829 25.8335 22.2285 26.3781 22.2285H29.317C28.7725 22.2285 28.327 21.7829 28.327 21.2385ZM28.327 29.1178V25.22C28.327 24.6755 28.7725 24.23 29.317 24.23H26.3781C25.8335 24.23 25.388 24.6754 25.388 25.22V29.1178C25.388 29.6624 25.8335 30.1078 26.3781 30.1078H29.317C28.7725 30.1078 28.327 29.6623 28.327 29.1178Z" fill="white"/>
<path d="M28.3266 37.0085V33.1106C28.3266 32.5661 28.7721 32.1206 29.3166 32.1206H26.3777C25.8332 32.1206 25.3877 32.5661 25.3877 33.1106V37.0085C25.3877 37.553 25.8332 37.9985 26.3777 37.9985H29.3166C28.7721 37.9985 28.3266 37.553 28.3266 37.0085Z" fill="#FBD405" fill-opacity="0.831373"/>
<path d="M11.4966 28.3453C11.4392 28.2879 11.3936 28.2197 11.3625 28.1446C11.3314 28.0695 11.3154 27.9891 11.3154 27.9078C11.3154 27.8266 11.3314 27.7461 11.3625 27.671C11.3936 27.596 11.4392 27.5278 11.4966 27.4703L12.9745 25.9924C13.0911 25.8791 13.2476 25.8162 13.4101 25.8174C13.5727 25.8185 13.7283 25.8836 13.8432 25.9986C13.9582 26.1135 14.0233 26.2691 14.0245 26.4317C14.0256 26.5942 13.9628 26.7507 13.8495 26.8673L12.3717 28.3452C12.3142 28.4027 12.246 28.4483 12.1709 28.4794C12.0959 28.5105 12.0154 28.5265 11.9342 28.5265C11.8529 28.5265 11.7725 28.5105 11.6974 28.4794C11.6223 28.4483 11.5541 28.4028 11.4966 28.3453ZM11.2151 26.5853C10.7828 26.1561 11.1767 25.4198 11.7736 25.5416C12.0633 25.5976 12.2711 25.855 12.2711 26.1481C12.2711 26.3462 12.1727 26.5456 11.9955 26.662C11.9282 26.7069 11.8529 26.7383 11.7736 26.7544C11.7331 26.7627 11.3546 26.7258 11.2151 26.5853ZM13.2561 28.6271C13.1991 28.5695 13.1537 28.5015 13.1225 28.4267C13.0575 28.2696 13.0621 28.0959 13.1225 27.9531C13.1877 27.7985 13.2997 27.6849 13.4574 27.6181C13.5513 27.5791 13.6533 27.564 13.7545 27.5739C13.8557 27.5838 13.9528 27.6186 14.0374 27.6751C14.1761 27.7666 14.2673 27.9091 14.3005 28.0686C14.317 28.1484 14.317 28.2306 14.3005 28.3103C14.2845 28.3899 14.2532 28.4656 14.2081 28.5331C14.1165 28.6719 13.9742 28.7631 13.8146 28.7962C13.775 28.8046 13.4035 28.7745 13.2561 28.6271ZM12.6731 37.0536C11.6321 37.0536 10.7852 36.1592 10.7852 35.0598C10.7852 33.9605 11.6321 33.0661 12.6731 33.0661C13.7141 33.0661 14.561 33.9605 14.561 35.0598C14.561 36.1592 13.7141 37.0536 12.6731 37.0536ZM12.6731 34.3036C12.3144 34.3036 12.0227 34.6429 12.0227 35.0598C12.0227 35.4768 12.3145 35.816 12.6731 35.816C13.0317 35.816 13.3235 35.4768 13.3235 35.0598C13.3236 34.6429 13.0317 34.3036 12.6731 34.3036ZM21.5449 19.9197H19.4549C19.2908 19.9197 19.1334 19.8545 19.0174 19.7384C18.9013 19.6224 18.8361 19.465 18.8361 19.3009C18.8361 19.1368 18.9013 18.9794 19.0174 18.8634C19.1334 18.7473 19.2908 18.6821 19.4549 18.6821H21.5449C21.6261 18.6821 21.7066 18.6981 21.7816 18.7292C21.8567 18.7603 21.9249 18.8059 21.9824 18.8633C22.0399 18.9208 22.0854 18.989 22.1165 19.0641C22.1476 19.1391 22.1637 19.2196 22.1637 19.3009C22.1637 19.3821 22.1477 19.4626 22.1166 19.5376C22.0855 19.6127 22.0399 19.6809 21.9825 19.7384C21.925 19.7959 21.8568 19.8414 21.7817 19.8725C21.7067 19.9036 21.6262 19.9197 21.5449 19.9197ZM19.3235 28.3453C19.266 28.2879 19.2204 28.2197 19.1893 28.1446C19.1583 28.0695 19.1422 27.9891 19.1422 27.9078C19.1422 27.8266 19.1583 27.7461 19.1893 27.671C19.2204 27.596 19.266 27.5278 19.3235 27.4703L20.8013 25.9924C20.9179 25.8791 21.0744 25.8162 21.237 25.8174C21.3995 25.8185 21.5551 25.8836 21.6701 25.9986C21.785 26.1135 21.8501 26.2691 21.8513 26.4317C21.8525 26.5942 21.7896 26.7507 21.6763 26.8673L20.1985 28.3452C20.1411 28.4027 20.0729 28.4483 19.9978 28.4794C19.9227 28.5105 19.8423 28.5265 19.761 28.5265C19.6798 28.5265 19.5993 28.5105 19.5242 28.4794C19.4492 28.4483 19.3809 28.4028 19.3235 28.3453Z" fill="#1D1F38"/>
<path d="M20.8016 28.345L19.3238 26.8671C19.2077 26.751 19.1426 26.5937 19.1426 26.4296C19.1426 26.2655 19.2078 26.1081 19.3238 25.9921C19.4398 25.8761 19.5972 25.8109 19.7613 25.8109C19.9254 25.8109 20.0828 25.8761 20.1988 25.9921L21.6766 27.4701C21.7927 27.5861 21.8578 27.7435 21.8578 27.9075C21.8578 28.0716 21.7926 28.229 21.6766 28.345C21.5606 28.4611 21.4032 28.5262 21.2391 28.5262C21.075 28.5262 20.9176 28.461 20.8016 28.345ZM19.929 34.8226C20.144 34.3139 20.8579 34.3175 21.0716 34.8226C21.2243 35.1834 20.9956 35.5957 20.6212 35.6658C20.1347 35.7648 19.7387 35.2725 19.929 34.8226ZM20.1567 18.3713C20.0172 18.2794 19.9265 18.1361 19.8935 17.9778C19.8601 17.8174 19.8958 17.6502 19.9859 17.5133C20.073 17.3811 20.212 17.2852 20.3794 17.2501C20.7648 17.1748 21.1186 17.4693 21.1186 17.8573C21.1186 18.1439 20.921 18.4014 20.6211 18.4637C20.5816 18.4711 20.2902 18.459 20.1567 18.3713ZM19.929 20.9808C19.8975 20.9059 19.8813 20.8256 19.8813 20.7444C19.8813 20.6632 19.8975 20.5828 19.929 20.508C19.9898 20.3607 20.1031 20.2404 20.2631 20.1731C20.4485 20.0964 20.6632 20.1112 20.8439 20.2299C20.9789 20.319 21.073 20.4599 21.107 20.6235C21.2191 21.2213 20.2119 21.666 19.929 20.9808ZM29.3358 34.7673H27.2457C27.0816 34.7673 26.9242 34.7021 26.8082 34.586C26.6922 34.47 26.627 34.3126 26.627 34.1485C26.627 33.9844 26.6922 33.827 26.8082 33.711C26.9242 33.5949 27.0816 33.5297 27.2457 33.5297H29.3358C29.4999 33.5297 29.6573 33.5949 29.7733 33.711C29.8894 33.827 29.9545 33.9844 29.9545 34.1485C29.9545 34.3126 29.8894 34.47 29.7733 34.586C29.6573 34.7021 29.4999 34.7673 29.3358 34.7673ZM29.3358 19.908H27.2457C27.0816 19.908 26.9242 19.8428 26.8082 19.7267C26.6922 19.6107 26.627 19.4533 26.627 19.2892C26.627 19.1251 26.6922 18.9677 26.8082 18.8517C26.9242 18.7356 27.0816 18.6704 27.2457 18.6704H29.3358C29.4999 18.6704 29.6573 18.7356 29.7733 18.8517C29.8894 18.9677 29.9545 19.1251 29.9545 19.2892C29.9545 19.4533 29.8894 19.6107 29.7733 19.7267C29.6573 19.8428 29.4999 19.908 29.3358 19.908ZM29.3358 27.7873H27.2457C27.0816 27.7873 26.9242 27.7221 26.8082 27.6061C26.6922 27.4901 26.627 27.3327 26.627 27.1686C26.627 27.0045 26.6922 26.8471 26.8082 26.731C26.9242 26.615 27.0816 26.5498 27.2457 26.5498H29.3358C29.4999 26.5498 29.6573 26.615 29.7733 26.731C29.8894 26.8471 29.9545 27.0045 29.9545 27.1686C29.9545 27.3327 29.8894 27.4901 29.7733 27.6061C29.6573 27.7221 29.4999 27.7873 29.3358 27.7873Z" fill="#1D1F38"/>
<path d="M28.2907 28.8324C28.1266 28.8324 27.9692 28.7672 27.8532 28.6511C27.7372 28.5351 27.672 28.3777 27.672 28.2136V26.1236C27.672 25.9595 27.7372 25.8022 27.8532 25.6861C27.9692 25.5701 28.1266 25.5049 28.2907 25.5049C28.4548 25.5049 28.6122 25.5701 28.7283 25.6861C28.8443 25.8022 28.9095 25.9595 28.9095 26.1236V28.2136C28.9095 28.3777 28.8443 28.5351 28.7283 28.6511C28.6122 28.7672 28.4548 28.8324 28.2907 28.8324ZM29.3358 36.5273H27.2457C27.0816 36.5273 26.9242 36.4621 26.8082 36.3461C26.6921 36.23 26.627 36.0727 26.627 35.9086C26.627 35.7444 26.6921 35.5871 26.8082 35.471C26.9242 35.355 27.0816 35.2898 27.2457 35.2898H29.3358C29.4999 35.2898 29.6572 35.355 29.7733 35.471C29.8893 35.5871 29.9545 35.7444 29.9545 35.9086C29.9545 36.0727 29.8893 36.23 29.7733 36.3461C29.6572 36.4621 29.4999 36.5273 29.3358 36.5273Z" fill="#1D1F38"/>
</svg>
