<svg width="37" height="37" viewBox="0 0 37 37" fill="none" xmlns="http://www.w3.org/2000/svg">
<g clip-path="url(#clip0_547_2627)">
<path d="M20.0502 32.5345H1.27586C0.937793 32.5335 0.613859 32.3987 0.374807 32.1597C0.135755 31.9206 0.00100967 31.5967 0 31.2586L0 8.93103H7.65517C7.99324 8.93002 8.31717 8.79528 8.55623 8.55623C8.79528 8.31717 8.93002 7.99324 8.93103 7.65517V0H26.7931C27.1312 0.00100967 27.4551 0.135755 27.6942 0.374807C27.9332 0.613859 28.068 0.937793 28.069 1.27586V13.7857L20.0502 32.5345Z" fill="#185AAA"/>
<path d="M8.93103 0V7.65517C8.93002 7.99324 8.79528 8.31717 8.55623 8.55623C8.31717 8.79528 7.99324 8.93002 7.65517 8.93103H0L8.93103 0Z" fill="#0D3260"/>
<path d="M31.8516 28.981C31.5388 29.407 31.1933 29.808 30.8182 30.1803C30.2281 30.7736 29.5659 31.2903 28.847 31.7177C27.5353 32.5038 26.0639 32.9853 24.5413 33.1266C23.0187 33.268 21.4838 33.0655 20.0499 32.5343C18.6722 32.0262 17.4223 31.2228 16.3882 30.1803C14.6827 28.4731 13.6373 26.2169 13.4374 23.8121C13.2376 21.4073 13.8962 19.0095 15.2964 17.0441C16.6965 15.0788 18.7478 13.6731 21.086 13.0766C23.4242 12.48 25.8981 12.7312 28.0687 13.7855C29.2845 14.3757 30.3692 15.2044 31.2583 16.2224C32.7938 17.9644 33.6894 20.1778 33.7972 22.4974C33.9051 24.817 33.2188 27.104 31.8516 28.981Z" fill="#23C92A"/>
<path d="M36.4071 36.407C36.0247 36.7868 35.5076 36.9999 34.9686 36.9999C34.4296 36.9999 33.9125 36.7868 33.5301 36.407L31.259 34.1359L28.8477 31.7182C29.5666 31.2904 30.2289 30.7739 30.8189 30.1808C31.194 29.8085 31.5395 29.4075 31.8523 28.9814L36.4071 33.5299C36.787 33.9123 37.0001 34.4294 37.0001 34.9684C37.0001 35.5074 36.787 36.0245 36.4071 36.407Z" fill="#FBD405"/>
<path d="M19.9296 28.7511L16.509 25.3305C16.3894 25.2108 16.3223 25.0486 16.3223 24.8795C16.3223 24.7103 16.3894 24.5481 16.509 24.4284L17.4111 23.5264C17.5307 23.4068 17.6929 23.3396 17.8621 23.3396C18.0313 23.3396 18.1935 23.4068 18.3131 23.5264L20.4821 25.6954L28.9991 18.3917C29.1276 18.2816 29.2946 18.2271 29.4632 18.2402C29.6319 18.2532 29.7885 18.3327 29.8986 18.4612L30.7279 19.4303C30.838 19.5587 30.8926 19.7256 30.8797 19.8943C30.8668 20.0629 30.7874 20.2196 30.659 20.3297L20.7966 28.7842C20.6745 28.889 20.5174 28.9439 20.3566 28.9377C20.1958 28.9316 20.0433 28.8649 19.9296 28.7511Z" fill="white"/>
<path d="M14.6724 13.3965H3.18969C3.0205 13.3965 2.85824 13.3293 2.7386 13.2096C2.61897 13.09 2.55176 12.9277 2.55176 12.7585C2.55176 12.5893 2.61897 12.4271 2.7386 12.3075C2.85824 12.1878 3.0205 12.1206 3.18969 12.1206H14.6724C14.8416 12.1206 15.0039 12.1878 15.1235 12.3075C15.2432 12.4271 15.3104 12.5893 15.3104 12.7585C15.3104 12.9277 15.2432 13.09 15.1235 13.2096C15.0039 13.3293 14.8416 13.3965 14.6724 13.3965ZM13.3902 15.9482H3.18969C3.0205 15.9482 2.85824 15.881 2.7386 15.7613C2.61897 15.6417 2.55176 15.4795 2.55176 15.3103C2.55176 15.1411 2.61897 14.9788 2.7386 14.8592C2.85824 14.7395 3.0205 14.6723 3.18969 14.6723H13.3902C13.5594 14.6723 13.7217 14.7395 13.8413 14.8592C13.9609 14.9788 14.0281 15.1411 14.0281 15.3103C14.0281 15.4795 13.9609 15.6417 13.8413 15.7613C13.7217 15.881 13.5594 15.9482 13.3902 15.9482ZM11.9038 18.4999H3.18969C3.0205 18.4999 2.85824 18.4327 2.7386 18.3131C2.61897 18.1934 2.55176 18.0312 2.55176 17.862C2.55176 17.6928 2.61897 17.5305 2.7386 17.4109C2.85824 17.2913 3.0205 17.2241 3.18969 17.2241H11.9038C12.073 17.2241 12.2353 17.2913 12.3549 17.4109C12.4745 17.5305 12.5418 17.6928 12.5418 17.862C12.5418 18.0312 12.4745 18.1934 12.3549 18.3131C12.2353 18.4327 12.073 18.4999 11.9038 18.4999ZM11.1 21.0516H3.18969C3.0205 21.0516 2.85824 20.9844 2.7386 20.8648C2.61897 20.7452 2.55176 20.5829 2.55176 20.4137C2.55176 20.2445 2.61897 20.0823 2.7386 19.9626C2.85824 19.843 3.0205 19.7758 3.18969 19.7758H11.1C11.2692 19.7758 11.4315 19.843 11.5511 19.9626C11.6708 20.0823 11.738 20.2445 11.738 20.4137C11.738 20.5829 11.6708 20.7452 11.5511 20.8648C11.4315 20.9844 11.2692 21.0516 11.1 21.0516ZM10.8449 23.6034H3.18969C3.0205 23.6034 2.85824 23.5362 2.7386 23.4165C2.61897 23.2969 2.55176 23.1346 2.55176 22.9654C2.55176 22.7962 2.61897 22.634 2.7386 22.5143C2.85824 22.3947 3.0205 22.3275 3.18969 22.3275H10.8449C11.0141 22.3275 11.1763 22.3947 11.2959 22.5143C11.4156 22.634 11.4828 22.7962 11.4828 22.9654C11.4828 23.1346 11.4156 23.2969 11.2959 23.4165C11.1763 23.5362 11.0141 23.6034 10.8449 23.6034Z" fill="white"/>
<path d="M23.5856 33.8014C22.3033 33.8032 21.031 33.5769 19.8281 33.1328C18.363 32.5944 17.0345 31.7399 15.9368 30.6302C14.8882 29.6328 14.0499 28.4356 13.4712 27.1092C12.8925 25.7828 12.5852 24.354 12.5672 22.9069C12.5493 21.4599 12.8212 20.0239 13.3668 18.6835C13.9125 17.3432 14.7209 16.1256 15.7444 15.1025C16.7679 14.0794 17.9858 13.2715 19.3264 12.7265C20.667 12.1814 22.1031 11.9101 23.5501 11.9286C24.9971 11.9472 26.4258 12.2551 27.752 12.8344C29.0782 13.4136 30.275 14.2524 31.272 15.3014C33.0929 17.1334 34.2029 19.5533 34.4034 22.1285C34.604 24.7038 33.882 27.2664 32.3667 29.3582L32.3635 29.3614C32.0318 29.8143 31.665 30.2417 31.2662 30.6372C30.6393 31.2672 29.9354 31.8157 29.1713 32.2697C27.4823 33.2765 25.5518 33.8058 23.5856 33.8014ZM23.6092 13.3965C21.7173 13.397 19.8681 13.9583 18.2952 15.0095C16.7222 16.0606 15.4962 17.5544 14.7719 19.3021C14.0476 21.0498 13.8577 22.9729 14.226 24.8286C14.5943 26.6842 15.5045 28.389 16.8414 29.7275C17.8094 30.7061 18.9809 31.4596 20.2728 31.9348C21.6179 32.4287 23.0563 32.6163 24.4832 32.4838C25.91 32.3514 27.2893 31.9023 28.5206 31.1693C29.1954 30.7683 29.8169 30.2839 30.3706 29.7275C33.9583 26.1666 34.1395 20.4233 30.7833 16.6436C30.65 16.4909 30.5123 16.342 30.3706 16.197C29.4834 15.3082 28.4294 14.6033 27.2691 14.1227C26.1088 13.6421 24.865 13.3953 23.6092 13.3965Z" fill="#ECF0F1"/>
</g>
<defs>
<clipPath id="clip0_547_2627">
<rect width="37" height="37" fill="white"/>
</clipPath>
</defs>
</svg>
