<svg width="40" height="47" viewBox="0 0 40 47" fill="none" xmlns="http://www.w3.org/2000/svg">
<path fill-rule="evenodd" clip-rule="evenodd" d="M0.852539 0.438477H29.3434V30.7232L23.4703 36.5962H0.852539V0.438477Z" fill="#185AAA"/>
<path fill-rule="evenodd" clip-rule="evenodd" d="M3.91699 39.6601H32.4078V9.37278L26.5348 3.50244H3.91699V39.6601Z" fill="#E2E5E7"/>
<path fill-rule="evenodd" clip-rule="evenodd" d="M32.4072 9.37278L26.5342 3.50244V9.37278H32.4072Z" fill="#B0B7BD"/>
<path d="M6.98034 26.3966C6.66946 26.3966 6.41699 26.1467 6.41699 25.8359C6.41699 25.525 6.66946 25.2724 6.98034 25.2724H29.3431C29.654 25.2724 29.9064 25.5249 29.9064 25.8359C29.9064 26.1468 29.654 26.3966 29.3431 26.3966H6.98034ZM6.98034 35.7562C6.66946 35.7562 6.41699 35.5037 6.41699 35.1928C6.41699 34.8818 6.66946 34.6294 6.98034 34.6294H23.2866C23.5975 34.6294 23.8474 34.8819 23.8474 35.1928C23.8474 35.5037 23.5975 35.7562 23.2866 35.7562H6.98034ZM6.98034 32.6363C6.66946 32.6363 6.41699 32.3838 6.41699 32.0729C6.41699 31.7619 6.66946 31.5121 6.98034 31.5121H23.2866C23.5975 31.5121 23.8474 31.762 23.8474 32.0729C23.8474 32.3837 23.5975 32.6363 23.2866 32.6363H6.98034ZM6.98034 29.5164C6.66946 29.5164 6.41699 29.2639 6.41699 28.9557C6.41707 28.8063 6.47644 28.663 6.58207 28.5574C6.6877 28.4517 6.83094 28.3923 6.98034 28.3922H24.9396C25.2478 28.3922 25.5003 28.6447 25.5003 28.9557C25.5003 29.2639 25.2478 29.5164 24.9396 29.5164H6.98034ZM6.98034 17.0396C6.66946 17.0396 6.41699 16.7897 6.41699 16.4789C6.41699 16.168 6.66946 15.9155 6.98034 15.9155H29.3431C29.654 15.9155 29.9064 16.168 29.9064 16.4789C29.9064 16.7897 29.654 17.0396 29.3431 17.0396H6.98034ZM6.98034 20.1594C6.66946 20.1594 6.41699 19.9069 6.41699 19.5961C6.41699 19.2852 6.66946 19.0353 6.98034 19.0353H29.3431C29.654 19.0353 29.9064 19.2852 29.9064 19.5961C29.9064 19.9069 29.654 20.1594 29.3431 20.1594H6.98034ZM6.98034 23.2793C6.66946 23.2793 6.41699 23.0268 6.41699 22.716C6.41699 22.4051 6.66946 22.1525 6.98034 22.1525H29.3431C29.654 22.1525 29.9064 22.405 29.9064 22.716C29.9064 23.0269 29.654 23.2793 29.3431 23.2793H6.98034Z" fill="#889299"/>
<path d="M6.98047 7.78369H22.245V12.1951H6.98047V7.78369Z" fill="#185AAA"/>
<path fill-rule="evenodd" clip-rule="evenodd" d="M32.4077 38.9637L36.5932 37.8423L38.6289 45.44L36.0192 44.074L34.4434 46.5615L32.4077 38.9637ZM32.4077 38.9637L28.2222 37.8423L26.1865 45.44L28.7962 44.074L30.3721 46.5615L32.4077 38.9637Z" fill="#185AAA"/>
<path fill-rule="evenodd" clip-rule="evenodd" d="M31.3288 28.0044C31.6444 27.7826 32.0207 27.6636 32.4064 27.6636C32.7921 27.6636 33.1684 27.7826 33.484 28.0044C33.8454 28.2569 34.2361 28.3605 34.6745 28.3233C35.0587 28.2897 35.4439 28.3749 35.778 28.5674C36.1122 28.7599 36.3791 29.0504 36.5428 29.3996C36.7288 29.8009 37.0131 30.0852 37.4144 30.2713C38.1292 30.6034 38.5597 31.3529 38.4906 32.1395C38.4508 32.578 38.557 32.9686 38.8095 33.3274C39.2613 33.9732 39.2613 34.8369 38.8095 35.4826C38.557 35.844 38.4507 36.2347 38.4906 36.6732C38.5242 37.0573 38.439 37.4425 38.2465 37.7767C38.054 38.1108 37.7635 38.3778 37.4144 38.5414C37.0131 38.7274 36.7288 39.0118 36.5428 39.4104C36.3798 39.7602 36.113 40.0514 35.7788 40.2444C35.4446 40.4375 35.059 40.523 34.6745 40.4894C34.2361 40.4495 33.8454 40.5557 33.484 40.8083C32.8383 41.2601 31.9745 41.2601 31.3288 40.8083C30.97 40.5558 30.5793 40.4495 30.1409 40.4894C29.3542 40.5584 28.6049 40.1279 28.2726 39.4104C28.0866 39.0118 27.8023 38.7274 27.401 38.5414C27.0519 38.3778 26.7614 38.1108 26.5689 37.7767C26.3764 37.4425 26.2912 37.0573 26.3248 36.6732C26.362 36.2347 26.2584 35.844 26.0058 35.4826C25.7841 35.1671 25.665 34.7907 25.665 34.405C25.665 34.0193 25.7841 33.643 26.0058 33.3274C26.2583 32.9686 26.362 32.578 26.3248 32.1395C26.2557 31.3529 26.6862 30.6035 27.401 30.2713C27.8023 30.0853 28.0866 29.8009 28.2726 29.3996C28.6048 28.6847 29.3542 28.2542 30.1409 28.3233C30.5793 28.3605 30.97 28.2569 31.3288 28.0044Z" fill="#FBD405"/>
<path fill-rule="evenodd" clip-rule="evenodd" d="M32.4081 38.1638C34.4783 38.1638 36.1658 36.4763 36.1658 34.4061C36.1658 32.3359 34.4783 30.6484 32.4081 30.6484C30.3379 30.6484 28.6504 32.3359 28.6504 34.4061C28.6504 36.4763 30.3379 38.1638 32.4081 38.1638Z" fill="#FF8A00"/>
<path fill-rule="evenodd" clip-rule="evenodd" d="M33.1197 30.7178C34.855 31.0499 36.1652 32.5753 36.1652 34.4064C36.1652 36.2374 34.855 37.7628 33.1197 38.095C31.3844 37.7628 30.0742 36.2374 30.0742 34.4064C30.0742 32.5753 31.3844 31.0499 33.1197 30.7178Z" fill="#FF8A00"/>
<path d="M30.0529 34.1751C29.8988 33.9094 29.9918 33.5666 30.2602 33.4125C30.5286 33.2584 30.8715 33.3487 31.0256 33.6171L31.7219 34.8263L33.8771 32.6737C33.9294 32.6213 33.9915 32.5797 34.0599 32.5513C34.1283 32.5229 34.2017 32.5083 34.2757 32.5083C34.3498 32.5083 34.4231 32.5229 34.4915 32.5513C34.5599 32.5797 34.6221 32.6213 34.6744 32.6737C34.8923 32.8916 34.8923 33.2478 34.6744 33.4684L32.0009 36.1391C31.9664 36.171 31.9265 36.203 31.884 36.2269C31.6156 36.381 31.2727 36.288 31.1186 36.0222L30.0529 34.1751Z" fill="#FBD405"/>
<path d="M3.91699 3.50244H5.85968V39.6601H3.91699V3.50244Z" fill="#CAD1D8"/>
<path d="M0.852539 0.438477H2.79513V36.5962H0.852539V0.438477Z" fill="#185AAA"/>
<path d="M6.98047 7.78369H8.92306V12.1951H6.98047V7.78369Z" fill="#185AAA"/>
</svg>
