<svg width="32" height="33" viewBox="0 0 32 33" fill="none" xmlns="http://www.w3.org/2000/svg">
<path fill-rule="evenodd" clip-rule="evenodd" d="M31.5816 16.5019C31.5817 20.6948 29.9178 24.7163 26.9554 27.6835C25.4903 29.1516 23.7501 30.3162 21.8343 31.1109C19.9186 31.9056 17.8649 32.3146 15.7908 32.3146C13.7168 32.3146 11.6631 31.9056 9.74729 31.1109C7.83152 30.3162 6.09128 29.1516 4.62618 27.6835C1.66269 24.717 -0.00133584 20.695 8.04626e-07 16.5019C-0.00126811 12.3077 1.66267 8.28446 4.62618 5.31639C6.09109 3.848 7.83127 2.683 9.74707 1.88812C11.6629 1.09324 13.7167 0.684082 15.7908 0.684082C17.865 0.684082 19.9188 1.09324 21.8346 1.88812C23.7504 2.683 25.4905 3.848 26.9554 5.31639C29.9177 8.28527 31.5815 12.3079 31.5816 16.5019Z" fill="#185AAA"/>
<path fill-rule="evenodd" clip-rule="evenodd" d="M31.5814 16.5019C31.5814 25.2368 24.5108 32.3159 15.79 32.3159V0.68457C24.5108 0.68457 31.5814 7.76705 31.5814 16.5019Z" fill="#185AAA"/>
<path fill-rule="evenodd" clip-rule="evenodd" d="M28.4669 16.5019C28.4669 23.5126 22.7933 29.198 15.7905 29.198C14.125 29.1982 12.4758 28.8697 10.9374 28.2316C9.39898 27.5935 8.00155 26.6581 6.82515 25.4791C4.44907 23.0996 3.11133 19.8699 3.11133 16.5019C3.11133 13.1338 4.44907 9.90352 6.82515 7.52179C8.00135 6.34244 9.39871 5.40678 10.9372 4.76842C12.4756 4.13007 14.1249 3.80157 15.7905 3.80176C22.7933 3.80232 28.4669 9.48717 28.4669 16.5019Z" fill="white"/>
<path d="M15.5975 5.66806C15.4422 5.67044 15.2943 5.73416 15.1859 5.84531C15.0775 5.95646 15.0175 6.10599 15.019 6.26123V7.21991C15.0134 7.30053 15.0245 7.38143 15.0515 7.4576C15.0785 7.53377 15.1209 7.60356 15.176 7.66265C15.2311 7.72173 15.2978 7.76885 15.3719 7.80106C15.446 7.83328 15.526 7.8499 15.6068 7.8499C15.6876 7.8499 15.7676 7.83328 15.8417 7.80106C15.9158 7.76885 15.9825 7.72173 16.0376 7.66265C16.0927 7.60356 16.1351 7.53377 16.1621 7.4576C16.1891 7.38143 16.2002 7.30053 16.1946 7.21991V6.26123C16.1954 6.18277 16.1805 6.10493 16.1508 6.03232C16.121 5.95971 16.077 5.89381 16.0213 5.83851C15.9657 5.78321 15.8995 5.73963 15.8267 5.71035C15.7539 5.68108 15.6759 5.66669 15.5975 5.66806ZM15.5975 25.1868C15.2726 25.1925 15.0133 25.458 15.019 25.7834V26.7392C15.0136 26.8196 15.0249 26.9002 15.052 26.9761C15.0791 27.0519 15.1216 27.1214 15.1767 27.1801C15.2318 27.2389 15.2984 27.2857 15.3723 27.3176C15.4462 27.3495 15.526 27.3659 15.6065 27.3657C15.9494 27.3657 16.2178 27.0793 16.1946 26.7392V25.7834C16.1958 25.7046 16.1812 25.6265 16.1516 25.5535C16.122 25.4805 16.0781 25.4143 16.0224 25.3586C15.9667 25.303 15.9004 25.2591 15.8274 25.2296C15.7544 25.2001 15.6762 25.1855 15.5975 25.1868ZM24.8911 15.9107C24.103 15.9107 24.103 17.0892 24.8911 17.0892H25.8447C26.6305 17.0892 26.6305 15.9107 25.8447 15.9107H24.8911ZM5.37175 15.9107C4.58311 15.9107 4.58311 17.0892 5.37175 17.0892H6.32817C7.11681 17.0892 7.11681 15.9107 6.32817 15.9107H5.37175ZM22.1043 22.4706C21.6055 22.5204 21.3925 23.1288 21.7535 23.4773L22.4286 24.157C22.4827 24.215 22.548 24.2616 22.6206 24.2939C22.6932 24.3262 22.7715 24.3435 22.8509 24.3448C22.9304 24.3461 23.0092 24.3314 23.0828 24.3016C23.1564 24.2717 23.2233 24.2273 23.2793 24.1711C23.3352 24.115 23.3792 24.0483 23.4087 23.9749C23.4382 23.9014 23.4525 23.8228 23.4509 23.7437C23.4493 23.6645 23.4317 23.5866 23.3992 23.5144C23.3667 23.4422 23.32 23.3774 23.2618 23.3237L22.5856 22.6446C22.5231 22.5821 22.4475 22.5341 22.3643 22.504C22.2812 22.474 22.1924 22.4626 22.1043 22.4706ZM8.3619 8.66612C7.8337 8.66612 7.57101 9.31013 7.95177 9.67903L8.63081 10.3524C8.68448 10.4105 8.74932 10.4572 8.82146 10.4896C8.8936 10.522 8.97154 10.5396 9.05061 10.5412C9.12969 10.5427 9.20827 10.5283 9.28165 10.4988C9.35502 10.4693 9.42168 10.4253 9.47763 10.3694C9.53377 10.3133 9.57804 10.2465 9.60779 10.1729C9.63754 10.0993 9.65217 10.0205 9.6508 9.94115C9.64943 9.8618 9.63209 9.78354 9.59981 9.71104C9.56754 9.63853 9.52099 9.57328 9.46294 9.51916L8.78447 8.84407C8.72988 8.78718 8.66424 8.74204 8.59157 8.71144C8.5189 8.68084 8.44075 8.66542 8.3619 8.66612ZM9.03191 22.4706C8.88164 22.4735 8.73645 22.5384 8.63081 22.6452L7.95177 23.3243C7.89373 23.3781 7.84718 23.4431 7.81489 23.5154C7.7826 23.5876 7.76525 23.6657 7.76388 23.7448C7.76251 23.824 7.77715 23.9026 7.80691 23.9759C7.83667 24.0493 7.88095 24.1158 7.93708 24.1716C7.99285 24.2278 8.0594 24.2721 8.13272 24.3019C8.20605 24.3318 8.28464 24.3464 8.36378 24.3451C8.44293 24.3438 8.52099 24.3265 8.59328 24.2943C8.66557 24.262 8.7306 24.2155 8.78447 24.1575L9.46294 23.4779C9.84427 23.1028 9.56689 22.4565 9.03191 22.4706Z" fill="#185AAA"/>
<path d="M28.3399 3.04678L15.6071 15.7791L12.9711 13.19C11.1911 11.4421 8.90311 13.9244 10.1109 15.5486L14.5213 21.4814C15.1088 22.0577 16.1511 22.0159 16.6974 21.4814L30.9793 5.65278C32.6023 3.84954 29.8833 1.50284 28.3399 3.04678Z" fill="#23C92A"/>
<path d="M31.094 3.37158C31.0556 3.4213 31.0267 3.4744 30.9793 3.52807L16.6991 19.3567C16.1528 19.8911 15.1083 19.933 14.5207 19.3567L10.1313 13.4521C9.71492 14.0577 9.6121 14.8757 10.1109 15.5491L14.5213 21.482C15.1088 22.0582 16.1534 22.0164 16.6997 21.482L30.9793 5.65332C31.6821 4.87428 31.5691 3.9947 31.094 3.37158Z" fill="#23C92A"/>
</svg>
