<svg width="44" height="27" viewBox="0 0 44 27" fill="none" xmlns="http://www.w3.org/2000/svg">
<path fill-rule="evenodd" clip-rule="evenodd" d="M19.1265 2.9292L8.87348 2.94082L6.07422 15.7041L16.6793 26.2065C17.5373 27.0647 18.9415 27.0642 19.7995 26.2063C20.6494 25.3564 20.6577 23.9697 19.8228 23.1097L22.7289 26.016C23.5868 26.8741 24.9911 26.8737 25.8491 26.0157C26.697 25.1678 26.7072 23.7856 25.8781 22.9253L27.6066 24.6539C28.4645 25.512 29.8688 25.5116 30.7268 24.6536C31.5845 23.7959 31.585 22.3915 30.7268 21.5336L30.4691 21.2766C31.3273 22.1326 32.73 22.1315 33.5873 21.2742C34.315 20.5465 34.4255 19.4253 33.9182 18.5781L34.514 18.3163L19.1265 2.9292Z" fill="#EFC7A4"/>
<path fill-rule="evenodd" clip-rule="evenodd" d="M14.4705 24.0199L16.6791 26.2068C17.537 27.065 18.9413 27.0645 19.7993 26.2066L12.5366 18.9439C12.1046 18.5118 11.3976 18.5118 10.9656 18.9439C10.5336 19.3759 10.5336 20.0829 10.9656 20.5149L14.4705 24.0199ZM19.9734 23.2827L17.0151 20.3245C16.5832 19.8924 16.5832 19.1855 17.0151 18.7535C17.4472 18.3216 18.1541 18.3216 18.5861 18.7535L25.8488 26.0162C24.9909 26.8741 23.5865 26.8746 22.7286 26.0164L19.8224 23.1102C19.8757 23.165 19.9261 23.2226 19.9734 23.2827ZM26.0238 23.0935C25.978 23.0351 25.9293 22.9791 25.8778 22.9257L27.6063 24.6543C28.4641 25.5124 29.8685 25.512 30.7265 24.654L23.4638 17.3913C23.0318 16.9593 22.3248 16.9593 21.8928 17.3913C21.4609 17.8234 21.4609 18.5303 21.8928 18.9623L26.0238 23.0935ZM30.9007 21.7306C30.8466 21.6617 30.7884 21.596 30.7264 21.534L30.4687 21.277C31.3268 22.133 32.7296 22.1319 33.5868 21.2746L26.3241 14.012C25.892 13.58 25.1851 13.58 24.7531 14.012C24.3211 14.444 24.3211 15.151 24.7531 15.5829L30.9007 21.7306Z" fill="#D5A889"/>
<path fill-rule="evenodd" clip-rule="evenodd" d="M5.94417 16.9904L9.19099 2.81409C9.39832 1.90872 8.82733 0.99831 7.92187 0.790981L5.31245 0.193409C4.40709 -0.0139203 3.49667 0.55716 3.28934 1.46253L0.0425305 15.6387C-0.164799 16.544 0.406281 17.4545 1.31165 17.6618L3.92106 18.2595C4.82634 18.4668 5.73684 17.8957 5.94417 16.9904Z" fill="#185AAA"/>
<path fill-rule="evenodd" clip-rule="evenodd" d="M34.3985 3.76888L32.6105 4.53945C31.5383 5.00583 30.4135 4.93104 29.3923 4.36068C25.0563 1.93787 23.5979 0.545851 21.1215 1.47167C20.4929 1.70666 19.8286 2.23215 19.1268 2.92938C17.341 4.70335 15.3123 7.58893 13.011 9.62898C12.9162 9.71305 12.8652 9.82009 12.8598 9.94678C12.8544 10.0735 12.8959 10.1844 12.9831 10.2764C15.472 12.8988 18.1438 11.4638 20.794 9.62862C22.2674 8.60828 24.2167 8.78408 25.4839 10.0513L33.5872 18.1545C33.7145 18.2817 33.8257 18.4241 33.9182 18.5784L37.4401 17.0384L34.3985 3.76888Z" fill="#D5A889"/>
<path fill-rule="evenodd" clip-rule="evenodd" d="M37.3059 16.99C37.5133 17.8953 38.4237 18.4663 39.3291 18.2591L41.9385 17.6614C42.8437 17.4541 43.4149 16.5436 43.2076 15.6383L39.9608 1.46203C39.7534 0.556758 38.843 -0.0144131 37.9377 0.192917L35.3282 0.790488C34.4229 0.997817 33.8518 1.90823 34.0591 2.8136L37.3059 16.99Z" fill="#FBD405"/>
</svg>
