<svg width="41" height="39" viewBox="0 0 41 39" fill="none" xmlns="http://www.w3.org/2000/svg">
<path fill-rule="evenodd" clip-rule="evenodd" d="M0.0411695 14.1623L11.4157 1.00888C11.4445 0.976399 11.4849 0.956516 11.5281 0.95352C11.5714 0.950524 11.6142 0.964656 11.6471 0.992869L28.4963 15.5624C28.5288 15.5917 28.5486 15.6325 28.5516 15.6761C28.5546 15.7197 28.5405 15.7628 28.5123 15.7963L17.1381 28.9494C17.1089 28.9821 17.0682 29.002 17.0245 29.0051C16.9808 29.0082 16.9377 28.9941 16.9043 28.9658L0.0575055 14.396C0.0409119 14.3819 0.0273126 14.3645 0.0175041 14.345C0.00769561 14.3255 0.00187513 14.3043 0.000383612 14.2825C-0.0011079 14.2607 0.00175954 14.2389 0.00881797 14.2183C0.0158764 14.1976 0.0269839 14.1786 0.0414898 14.1623H0.0411695Z" fill="#185AAA"/>
<path fill-rule="evenodd" clip-rule="evenodd" d="M7.58878 7.97026L15.5295 4.34961L28.496 15.5626C28.5285 15.5919 28.5483 15.6327 28.5513 15.6763C28.5543 15.7199 28.5402 15.763 28.512 15.7965L17.1378 28.9496C17.1086 28.9822 17.0679 29.0022 17.0242 29.0053C16.9805 29.0083 16.9374 28.9943 16.9039 28.966L16.0976 28.2671L7.25221 8.87026C7.17781 8.70627 7.17144 8.51947 7.23447 8.35079C7.29751 8.18211 7.42482 8.04527 7.58854 7.97026H7.58878Z" fill="#005C85"/>
<path fill-rule="evenodd" clip-rule="evenodd" d="M7.80151 8.43749L23.6244 1.22381C23.6641 1.20609 23.7092 1.20474 23.7499 1.22006C23.7906 1.23539 23.8236 1.26614 23.8418 1.30565L33.0822 21.5723C33.0915 21.5919 33.0969 21.6132 33.098 21.6349C33.099 21.6566 33.0958 21.6783 33.0884 21.6988C33.081 21.7192 33.0696 21.738 33.0549 21.754C33.0402 21.77 33.0225 21.7829 33.0027 21.792L17.1798 29.0054C17.1397 29.0229 17.0944 29.0242 17.0534 29.0089C17.0124 28.9936 16.9789 28.963 16.96 28.9236L7.71967 8.65754C7.70174 8.61751 7.70028 8.57203 7.71559 8.53092C7.7309 8.48981 7.76176 8.45637 7.80151 8.43781V8.43749Z" fill="#499BFF"/>
<path fill-rule="evenodd" clip-rule="evenodd" d="M17.1945 5.95508H25.963L33.0828 21.5723C33.0922 21.5919 33.0976 21.6132 33.0986 21.6349C33.0997 21.6566 33.0964 21.6783 33.0891 21.6988C33.0817 21.7192 33.0703 21.738 33.0556 21.754C33.0409 21.77 33.0231 21.7829 33.0034 21.792L17.1805 29.0054C17.1404 29.0229 17.095 29.0242 17.054 29.0089C17.013 28.9937 16.9796 28.963 16.9607 28.9236L16.5166 27.9466V6.63526C16.5164 6.54608 16.5338 6.45774 16.5678 6.37528C16.6017 6.29282 16.6516 6.21787 16.7146 6.1547C16.7775 6.09153 16.8523 6.04139 16.9347 6.00714C17.017 5.97288 17.1053 5.95519 17.1945 5.95508Z" fill="#56A5E6"/>
<path fill-rule="evenodd" clip-rule="evenodd" d="M17.1939 6.46924H30.144L34.7489 11.0742V28.9076C34.7488 28.9516 34.7312 28.9937 34.7001 29.0248C34.6691 29.0559 34.627 29.0734 34.583 29.0736H17.1939C17.1722 29.0735 17.1508 29.0691 17.1309 29.0606C17.1109 29.0522 17.0928 29.04 17.0777 29.0245C17.0625 29.0091 17.0504 28.9909 17.0423 28.9708C17.0342 28.9507 17.0301 28.9293 17.0303 28.9076V6.63516C17.0301 6.61352 17.0342 6.59205 17.0423 6.57199C17.0505 6.55193 17.0625 6.53367 17.0777 6.51826C17.0929 6.50284 17.1109 6.49058 17.1309 6.48217C17.1508 6.47376 17.1722 6.46936 17.1939 6.46924Z" fill="#EAF6FF"/>
<path fill-rule="evenodd" clip-rule="evenodd" d="M30.1445 6.46924V10.0407C30.1451 10.3145 30.2541 10.577 30.4477 10.7706C30.6413 10.9642 30.9037 11.0732 31.1775 11.0737H34.749L30.1445 6.46924Z" fill="#BEC7CF"/>
<path fill-rule="evenodd" clip-rule="evenodd" d="M21.1772 22.173H34.7655C35.4542 22.1751 36.1142 22.4497 36.6012 22.9367C37.0882 23.4237 37.3627 24.0836 37.3648 24.7724V35.448C37.3631 36.1369 37.0887 36.797 36.6016 37.2842C36.1145 37.7713 35.4543 38.0457 34.7655 38.0474H10.6746C9.98585 38.0453 9.32589 37.7708 8.83886 37.2837C8.35182 36.7967 8.07729 36.1367 8.0752 35.448V19.5736C8.07672 19.0077 8.30239 18.4653 8.70281 18.0654C9.10323 17.6654 9.6458 17.4403 10.2118 17.4395H14.7489C15.5016 17.4395 16.0136 17.9023 16.5511 18.4259L19.3749 21.1865C19.9126 21.7125 20.4245 22.173 21.1772 22.173Z" fill="#185AAA"/>
<path d="M19.8615 11.0113C19.7096 11.0095 19.5645 10.9478 19.4576 10.8398C19.3508 10.7317 19.2909 10.5858 19.2909 10.4338C19.2909 10.2819 19.3508 10.136 19.4576 10.0279C19.5645 9.91986 19.7096 9.85823 19.8615 9.85645H27.496C27.648 9.85823 27.7931 9.91986 27.8999 10.0279C28.0068 10.136 28.0667 10.2819 28.0667 10.4338C28.0667 10.5858 28.0068 10.7317 27.8999 10.8398C27.7931 10.9478 27.648 11.0095 27.496 11.0113H19.8615ZM19.8615 19.4355C19.7084 19.4355 19.5616 19.3746 19.4533 19.2664C19.345 19.1581 19.2842 19.0112 19.2842 18.8581C19.2842 18.705 19.345 18.5581 19.4533 18.4499C19.5616 18.3416 19.7084 18.2807 19.8615 18.2807H31.9187C32.0718 18.2807 32.2186 18.3416 32.3269 18.4499C32.4352 18.5581 32.496 18.705 32.496 18.8581C32.496 19.0112 32.4352 19.1581 32.3269 19.2664C32.2186 19.3746 32.0718 19.4355 31.9187 19.4355H19.8615ZM19.8615 16.6281C19.7096 16.6263 19.5645 16.5647 19.4576 16.4566C19.3508 16.3485 19.2909 16.2027 19.2909 16.0507C19.2909 15.8987 19.3508 15.7529 19.4576 15.6448C19.5645 15.5367 19.7096 15.4751 19.8615 15.4733H31.9187C31.9951 15.4724 32.0709 15.4867 32.1417 15.5153C32.2126 15.5439 32.277 15.5863 32.3314 15.64C32.3857 15.6937 32.4289 15.7576 32.4583 15.8281C32.4877 15.8986 32.5029 15.9743 32.5029 16.0507C32.5029 16.1271 32.4877 16.2027 32.4583 16.2732C32.4289 16.3437 32.3857 16.4077 32.3314 16.4614C32.277 16.5151 32.2126 16.5575 32.1417 16.5861C32.0709 16.6147 31.9951 16.629 31.9187 16.6281H19.8615ZM19.8615 13.8206C19.7857 13.8206 19.7106 13.8057 19.6406 13.7767C19.5705 13.7477 19.5069 13.7051 19.4533 13.6515C19.3997 13.5979 19.3571 13.5343 19.3281 13.4642C19.2991 13.3942 19.2842 13.3191 19.2842 13.2433C19.2842 13.1674 19.2991 13.0924 19.3281 13.0223C19.3571 12.9523 19.3997 12.8886 19.4533 12.835C19.5069 12.7814 19.5705 12.7389 19.6406 12.7099C19.7106 12.6808 19.7857 12.6659 19.8615 12.6659H31.9187C31.9945 12.6659 32.0696 12.6808 32.1396 12.7099C32.2097 12.7389 32.2733 12.7814 32.3269 12.835C32.3805 12.8886 32.4231 12.9523 32.4521 13.0223C32.4811 13.0924 32.496 13.1674 32.496 13.2433C32.496 13.3191 32.4811 13.3942 32.4521 13.4642C32.4231 13.5343 32.3805 13.5979 32.3269 13.6515C32.2733 13.7051 32.2097 13.7477 32.1396 13.7767C32.0696 13.8057 31.9945 13.8206 31.9187 13.8206H19.8615Z" fill="#BEC7CF"/>
<path d="M11.7434 31.0771C11.5903 31.0771 11.4434 31.0163 11.3351 30.908C11.2268 30.7997 11.166 30.6529 11.166 30.4997C11.166 30.3466 11.2268 30.1997 11.3351 30.0915C11.4434 29.9832 11.5903 29.9224 11.7434 29.9224H17.3746C17.5277 29.9224 17.6745 29.9832 17.7828 30.0915C17.8911 30.1997 17.9519 30.3466 17.9519 30.4997C17.9519 30.6529 17.8911 30.7997 17.7828 30.908C17.6745 31.0163 17.5277 31.0771 17.3746 31.0771H11.7434ZM11.7434 35.0205C11.5903 35.0205 11.4434 34.9597 11.3351 34.8514C11.2268 34.7432 11.166 34.5963 11.166 34.4432C11.166 34.29 11.2268 34.1432 11.3351 34.0349C11.4434 33.9266 11.5903 33.8658 11.7434 33.8658H33.6977C33.8508 33.8658 33.9977 33.9266 34.1059 34.0349C34.2142 34.1432 34.275 34.29 34.275 34.4432C34.275 34.5963 34.2142 34.7432 34.1059 34.8514C33.9977 34.9597 33.8508 35.0205 33.6977 35.0205H11.7434Z" fill="#0D3260"/>
<path fill-rule="evenodd" clip-rule="evenodd" d="M36.0797 29.8475C37.0529 29.8475 38.0043 29.5589 38.8135 29.0182C39.6226 28.4775 40.2533 27.709 40.6257 26.8099C40.9982 25.9108 41.0956 24.9215 40.9058 23.967C40.7159 23.0125 40.2473 22.1357 39.5591 21.4475C38.871 20.7594 37.9942 20.2908 37.0397 20.1009C36.0852 19.911 35.0958 20.0085 34.1967 20.3809C33.2976 20.7533 32.5291 21.384 31.9884 22.1932C31.4478 23.0024 31.1592 23.9537 31.1592 24.9269C31.1616 26.2312 31.6808 27.4813 32.6031 28.4036C33.5253 29.3258 34.7755 29.845 36.0797 29.8475Z" fill="#23C92A"/>
<path d="M33.1387 25.5951C33.0837 25.5419 33.0398 25.4782 33.0097 25.4078C32.9795 25.3374 32.9636 25.2617 32.9629 25.1852C32.9622 25.1086 32.9768 25.0326 33.0058 24.9617C33.0347 24.8908 33.0775 24.8264 33.1316 24.7722C33.1857 24.7179 33.25 24.675 33.3208 24.6459C33.3916 24.6167 33.4675 24.602 33.5441 24.6024C33.6207 24.6029 33.6964 24.6186 33.7669 24.6486C33.8374 24.6786 33.9012 24.7223 33.9546 24.7772L35.0625 25.8852L38.2016 22.7461C38.3098 22.6379 38.4565 22.5772 38.6095 22.5771C38.7625 22.5771 38.9092 22.6379 39.0174 22.7461C39.1256 22.8543 39.1864 23.001 39.1864 23.154C39.1864 23.307 39.1256 23.4537 39.0174 23.5619L35.4693 27.1099C35.3609 27.2177 35.2142 27.2782 35.0614 27.2782C34.9085 27.2782 34.7619 27.2177 34.6535 27.1099L33.1387 25.5951Z" fill="#EAF6FF"/>
<path fill-rule="evenodd" clip-rule="evenodd" d="M33.6973 11.0742V20.6185C34.0299 20.4346 34.383 20.2903 34.7492 20.1884V11.0742H33.6973Z" fill="#D3DDE6"/>
</svg>
