<svg width="50" height="49" viewBox="0 0 50 49" fill="none" xmlns="http://www.w3.org/2000/svg">
<path d="M8.76562 23.7031H27.8898V25.2969H8.76562V23.7031Z" fill="#185AAA"/>
<path d="M23.6728 5.60848L20.4853 2.42098L19.3585 3.54777L20.3888 4.57812L18.3281 6.63884L19.4549 7.76562L21.5156 5.70491L22.546 6.73527L23.6728 5.60848ZM15.9375 4.11195V0.59375H11.1562V4.11116" fill="#969696"/>
<path d="M13.5469 21.3125C18.388 21.3125 22.3125 17.388 22.3125 12.5469C22.3125 7.70575 18.388 3.78125 13.5469 3.78125C8.70575 3.78125 4.78125 7.70575 4.78125 12.5469C4.78125 17.388 8.70575 21.3125 13.5469 21.3125Z" fill="#185AAA"/>
<path d="M13.5469 3.78125C11.4175 3.78049 9.36143 4.55882 7.76634 5.96947C6.35569 7.56455 5.57737 9.62063 5.57813 11.75C5.57813 16.591 9.50274 20.5156 14.3438 20.5156C16.5615 20.5156 18.5807 19.6853 20.1243 18.3274C21.5349 16.7323 22.3133 14.6762 22.3125 12.5469C22.3125 7.70586 18.3879 3.78125 13.5469 3.78125Z" fill="#185AAA"/>
<path d="M13.5469 18.9219C17.0677 18.9219 19.9219 16.0677 19.9219 12.5469C19.9219 9.02606 17.0677 6.17188 13.5469 6.17188C10.0261 6.17188 7.17188 9.02606 7.17188 12.5469C7.17188 16.0677 10.0261 18.9219 13.5469 18.9219Z" fill="white"/>
<path d="M11.9492 38.0452L33.4617 16.5327L43.8202 26.8905L22.307 48.4029L11.9492 38.0452Z" fill="#848484"/>
<path d="M12.7461 37.2483L33.4609 16.5327L43.0234 26.0936L22.307 46.81L12.7461 37.2483Z" fill="#848484"/>
<path d="M27.8906 36.4531C30.0911 36.4531 31.875 34.6693 31.875 32.4688C31.875 30.2682 30.0911 28.4844 27.8906 28.4844C25.6901 28.4844 23.9062 30.2682 23.9062 32.4688C23.9062 34.6693 25.6901 36.4531 27.8906 36.4531Z" fill="white"/>
<path d="M40.6408 23.7031L40.1738 24.1701C39.8165 24.5274 39.5331 24.9515 39.3398 25.4183C39.1464 25.8851 39.0469 26.3854 39.0469 26.8906C39.0469 27.3959 39.1464 27.8962 39.3398 28.363C39.5331 28.8298 39.8165 29.2539 40.1738 29.6112L40.6408 30.0781L43.8283 26.8906L40.6408 23.7031Z" fill="#FFD997"/>
<path d="M33.4688 21.3125C33.974 21.3125 34.4743 21.213 34.9411 21.0197C35.4079 20.8264 35.832 20.543 36.1893 20.1857L36.6562 19.7188L33.4688 16.5312L30.2812 19.7188L30.7482 20.1857C31.1055 20.543 31.5296 20.8264 31.9964 21.0197C32.4632 21.213 32.9635 21.3125 33.4688 21.3125Z" fill="#9C9C9C"/>
<path d="M16.7344 38.0469C16.7344 37.5416 16.6349 37.0413 16.4416 36.5745C16.2482 36.1078 15.9648 35.6836 15.6076 35.3263L15.1406 34.8594L11.9531 38.0469L15.1406 41.2344L15.6076 40.7674C15.9648 40.4101 16.2482 39.986 16.4416 39.5192C16.6349 39.0524 16.7344 38.5521 16.7344 38.0469ZM22.3125 43.625C21.8073 43.625 21.307 43.7245 20.8402 43.9178C20.3734 44.1111 19.9492 44.3945 19.592 44.7518L19.125 45.2188L22.3125 48.4062L25.5 45.2188L25.033 44.7518C24.6758 44.3945 24.2516 44.1111 23.7848 43.9178C23.318 43.7245 22.8177 43.625 22.3125 43.625Z" fill="#9C9C9C"/>
<path d="M40.6406 23.7031L40.1737 24.1701C39.8164 24.5274 39.533 24.9515 39.3397 25.4183C39.1464 25.8851 39.0469 26.3854 39.0469 26.8906C39.0469 27.7528 39.3513 28.576 39.8764 29.2486L43.0312 26.0937L40.6406 23.7031Z" fill="#FFECD2"/>
<path d="M15.6076 35.3263L15.1406 34.8594L12.75 37.25L15.9048 40.4048C16.4369 39.7335 16.7289 38.9034 16.7344 38.0469C16.7344 37.5416 16.6349 37.0413 16.4416 36.5745C16.2482 36.1078 15.9648 35.6836 15.6076 35.3263ZM19.9545 44.4545L22.3125 46.8125L24.6705 44.4545C23.9979 43.9294 23.1747 43.625 22.3125 43.625C21.4503 43.625 20.6271 43.9294 19.9545 44.4545Z" fill="#9C9C9C"/>
<path d="M2.39062 34.8594H11.1562V36.4531H2.39062V34.8594Z" fill="#185AAA"/>
<path d="M7.96875 30.875H14.3438V32.4688H7.96875V30.875Z" fill="#185AAA"/>
<path d="M0.796875 26.8906H11.9531V28.4844H0.796875V26.8906Z" fill="#185AAA"/>
<path d="M13.5468 10.9531C12.6678 10.9531 11.953 11.6679 11.953 12.5469C11.953 12.6887 11.9777 12.8234 12.0128 12.9549L9.7959 15.171L10.9227 16.2978L13.1396 14.0817C13.2703 14.1159 13.4049 14.1406 13.5468 14.1406C14.4257 14.1406 15.1405 13.4258 15.1405 12.5469C15.1405 11.6679 14.4257 10.9531 13.5468 10.9531Z" fill="#185AAA"/>
<path d="M13.5465 19.7188C11.7995 19.7195 10.1125 19.0819 8.80273 17.9258L9.8578 16.7313C10.8762 17.6302 12.1881 18.1259 13.5465 18.125C16.6217 18.125 19.1247 15.6228 19.1247 12.5469C19.1247 9.47094 16.6217 6.96875 13.5465 6.96875V5.375C17.5014 5.375 20.7184 8.59278 20.7184 12.5469C20.7184 16.501 17.5014 19.7188 13.5465 19.7188Z" fill="#FBD405"/>
<path d="M17.5264 38.0467L39.0388 16.5327L49.3966 26.8905L27.8841 48.4029L17.5264 38.0467Z" fill="#BEBEBE"/>
<path d="M18.3232 37.2499L39.0388 16.5327L48.6013 26.0936L27.8841 46.8108L18.3232 37.2499Z" fill="#BEBEBE"/>
<path d="M33.4688 36.4531C35.6693 36.4531 37.4531 34.6693 37.4531 32.4688C37.4531 30.2682 35.6693 28.4844 33.4688 28.4844C31.2682 28.4844 29.4844 30.2682 29.4844 32.4688C29.4844 34.6693 31.2682 36.4531 33.4688 36.4531Z" fill="white"/>
<path d="M46.2189 23.7031L45.7519 24.1701C45.3946 24.5274 45.1112 24.9515 44.9179 25.4183C44.7245 25.8851 44.625 26.3854 44.625 26.8906C44.625 27.3959 44.7245 27.8962 44.9179 28.363C45.1112 28.8298 45.3946 29.2539 45.7519 29.6112L46.2189 30.0781L49.4064 26.8906L46.2189 23.7031Z" fill="#9C9C9C"/>
<path d="M39.0469 21.3125C39.5521 21.3125 40.0524 21.213 40.5192 21.0197C40.986 20.8264 41.4101 20.543 41.7674 20.1857L42.2344 19.7188L39.0469 16.5312L35.8594 19.7188L36.3263 20.1857C36.6836 20.543 37.1078 20.8264 37.5745 21.0197C38.0413 21.213 38.5416 21.3125 39.0469 21.3125Z" fill="#9C9C9C"/>
<path d="M22.3125 38.0469C22.3125 37.5416 22.213 37.0413 22.0197 36.5745C21.8264 36.1078 21.543 35.6836 21.1857 35.3263L20.7188 34.8594L17.5312 38.0469L20.7188 41.2344L21.1857 40.7674C21.543 40.4101 21.8264 39.986 22.0197 39.5192C22.213 39.0524 22.3125 38.5521 22.3125 38.0469ZM27.8906 43.625C27.3854 43.625 26.8851 43.7245 26.4183 43.9178C25.9515 44.1111 25.5274 44.3945 25.1701 44.7518L24.7031 45.2188L27.8906 48.4062L31.0781 45.2188L30.6112 44.7518C30.2539 44.3945 29.8297 44.1111 29.363 43.9178C28.8962 43.7245 28.3959 43.625 27.8906 43.625Z" fill="#9C9C9C"/>
<path d="M46.2188 23.7031L45.7518 24.1701C45.3945 24.5274 45.1111 24.9515 44.9178 25.4183C44.7245 25.8851 44.625 26.3854 44.625 26.8906C44.625 27.7528 44.9294 28.576 45.4545 29.2486L48.6094 26.0938L46.2188 23.7031ZM21.1857 35.3263L20.7188 34.8594L18.3281 37.25L21.483 40.4048C22.015 39.7335 22.3071 38.9034 22.3125 38.0469C22.3125 37.5416 22.213 37.0413 22.0197 36.5745C21.8264 36.1078 21.543 35.6836 21.1857 35.3263ZM25.5327 44.4545L27.8906 46.8125L30.2486 44.4545C29.576 43.9294 28.7528 43.625 27.8906 43.625C27.0284 43.625 26.2052 43.9294 25.5327 44.4545Z" fill="#9C9C9C"/>
</svg>
