<svg width="34" height="35" viewBox="0 0 34 35" fill="none" xmlns="http://www.w3.org/2000/svg">
<g clip-path="url(#clip0_547_2652)">
<path d="M8.35194 29.106C5.49514 29.106 2.45898 30.0512 2.45898 31.8028C2.45898 33.5545 5.49521 34.4998 8.35194 34.4998C11.2087 34.4998 14.2449 33.5545 14.2449 31.8028C14.2449 30.0512 11.2087 29.106 8.35194 29.106Z" fill="#FBD405"/>
<path d="M8.35193 10.7202C3.75529 10.7202 0.015625 14.4599 0.015625 19.0565C0.015625 21.9105 1.37323 24.979 4.0508 28.1768C6.02214 30.5313 7.96498 32.0443 8.0468 32.1075C8.13412 32.1752 8.24147 32.2119 8.35193 32.2118C8.4624 32.2119 8.56974 32.1752 8.65707 32.1075C8.73882 32.0443 10.6818 30.5313 12.6531 28.1768C15.3306 24.979 16.6882 21.9104 16.6882 19.0565C16.6882 14.4599 12.9486 10.7202 8.35193 10.7202ZM11.478 19.0565C11.478 20.783 10.0784 22.1825 8.35193 22.1825C6.6255 22.1825 5.22593 20.783 5.22593 19.0565C5.22593 17.3301 6.6255 15.9304 8.35193 15.9304C10.0784 15.9304 11.478 17.3301 11.478 19.0565Z" fill="#185AAA"/>
<path d="M30.5819 15.1626C29.7405 14.8197 28.6324 14.6309 27.462 14.6309C26.2917 14.6309 25.1836 14.8197 24.3422 15.1626C23.3589 15.5633 22.8174 16.1516 22.8174 16.819C22.8174 17.4865 23.3589 18.0748 24.3422 18.4754C25.1836 18.8183 26.2916 19.0072 27.462 19.0072C28.6324 19.0072 29.7404 18.8183 30.5819 18.4754C31.5651 18.0748 32.1066 17.4865 32.1066 16.819C32.1066 16.1516 31.5651 15.5633 30.5819 15.1626Z" fill="#FBD405"/>
<path d="M27.4619 0.5C23.8654 0.5 20.9395 3.42599 20.9395 7.02242C20.9395 9.24371 21.992 11.627 24.0677 14.1062C25.5907 15.9252 27.0936 17.0955 27.1568 17.1444C27.2441 17.212 27.3515 17.2487 27.4619 17.2487C27.5724 17.2487 27.6797 17.212 27.7671 17.1444C27.8303 17.0955 29.3332 15.9252 30.8562 14.1062C32.9319 11.627 33.9844 9.24378 33.9844 7.02242C33.9842 3.42599 31.0583 0.5 27.4619 0.5ZM29.8645 7.02242C29.8645 8.34935 28.7888 9.42507 27.4619 9.42507C26.1349 9.42507 25.0592 8.34935 25.0592 7.02242C25.0592 5.69549 26.1349 4.61984 27.4619 4.61984C28.7888 4.61984 29.8645 5.69549 29.8645 7.02242Z" fill="#185AAA"/>
<path d="M16.0854 32.3021C15.9536 32.3021 15.8271 32.2499 15.7337 32.1569C15.6403 32.0638 15.5875 31.9376 15.5869 31.8058C15.5866 31.7403 15.5992 31.6754 15.624 31.6148C15.6488 31.5542 15.6852 31.4991 15.7313 31.4526C15.7774 31.4061 15.8322 31.3691 15.8926 31.3438C15.953 31.3184 16.0178 31.3052 16.0832 31.305L16.7417 31.302H16.744C16.8759 31.302 17.0024 31.3542 17.0958 31.4472C17.1892 31.5402 17.242 31.6665 17.2426 31.7983C17.2429 31.8638 17.2303 31.9287 17.2055 31.9893C17.1807 32.0499 17.1442 32.105 17.0981 32.1515C17.0521 32.198 16.9973 32.235 16.9369 32.2603C16.8765 32.2857 16.8117 32.2988 16.7462 32.2991L16.0878 32.3021H16.0854ZM18.7194 32.2902C18.5876 32.2901 18.4611 32.2379 18.3677 32.1449C18.2743 32.0519 18.2215 31.9257 18.2209 31.7938C18.2206 31.7284 18.2332 31.6635 18.258 31.6029C18.2828 31.5423 18.3192 31.4871 18.3653 31.4406C18.4114 31.3941 18.4662 31.3571 18.5266 31.3318C18.587 31.3065 18.6518 31.2933 18.7172 31.293L19.3757 31.29H19.3781C19.5099 31.29 19.6363 31.3423 19.7298 31.4353C19.8232 31.5283 19.876 31.6545 19.8766 31.7863C19.8769 31.8518 19.8643 31.9167 19.8395 31.9773C19.8147 32.0379 19.7782 32.0931 19.7322 32.1396C19.6861 32.1861 19.6313 32.223 19.5709 32.2484C19.5105 32.2737 19.4457 32.2869 19.3802 32.2872L18.7218 32.2902H18.7194ZM21.3535 32.2781C21.2217 32.2781 21.0952 32.2259 21.0018 32.1329C20.9084 32.0399 20.8556 31.9136 20.855 31.7818C20.8547 31.7163 20.8673 31.6515 20.8921 31.5908C20.9169 31.5302 20.9533 31.4751 20.9994 31.4286C21.0455 31.3821 21.1003 31.3451 21.1607 31.3198C21.2211 31.2945 21.2858 31.2813 21.3513 31.281L22.0097 31.278H22.0121C22.1439 31.278 22.2703 31.3302 22.3638 31.4233C22.4572 31.5163 22.51 31.6425 22.5106 31.7743C22.5109 31.8398 22.4983 31.9047 22.4735 31.9653C22.4487 32.0259 22.4122 32.081 22.3661 32.1275C22.32 32.174 22.2653 32.211 22.2049 32.2363C22.1445 32.2617 22.0797 32.2749 22.0142 32.2752L21.3558 32.2781H21.3535ZM23.9876 32.2662C23.8557 32.2662 23.7293 32.2139 23.6359 32.1209C23.5424 32.0279 23.4897 31.9017 23.4891 31.7699C23.4888 31.7044 23.5014 31.6395 23.5262 31.5789C23.5509 31.5183 23.5874 31.4632 23.6335 31.4167C23.6796 31.3701 23.7344 31.3332 23.7948 31.3078C23.8551 31.2825 23.9199 31.2693 23.9854 31.269L24.6439 31.266H24.6462C24.7784 31.2658 24.9054 31.318 24.9991 31.4113C25.0928 31.5046 25.1456 31.6313 25.1459 31.7635C25.1462 31.8958 25.0939 32.0227 25.0006 32.1164C24.9073 32.2101 24.7806 32.2629 24.6484 32.2632L23.9899 32.2662H23.9876ZM26.6216 32.2543C26.4897 32.2543 26.3633 32.2021 26.2699 32.109C26.1764 32.016 26.1237 31.8898 26.1231 31.758C26.1228 31.6925 26.1354 31.6276 26.1601 31.567C26.1849 31.5064 26.2214 31.4513 26.2675 31.4048C26.3136 31.3582 26.3684 31.3213 26.4288 31.2959C26.4891 31.2706 26.5539 31.2574 26.6194 31.2571L27.2779 31.2542H27.2802C27.412 31.2542 27.5385 31.3064 27.6319 31.3994C27.7253 31.4924 27.7781 31.6186 27.7787 31.7505C27.779 31.816 27.7664 31.8808 27.7416 31.9415C27.7169 32.0021 27.6804 32.0572 27.6343 32.1037C27.5882 32.1502 27.5334 32.1872 27.473 32.2125C27.4126 32.2378 27.3479 32.251 27.2824 32.2513L26.6239 32.2543H26.6216ZM29.2556 32.2423C29.1238 32.2423 28.9974 32.1901 28.904 32.0971C28.8106 32.0042 28.7578 31.878 28.7571 31.7462C28.7568 31.6807 28.7694 31.6158 28.7942 31.5552C28.8189 31.4946 28.8554 31.4394 28.9015 31.3929C28.9475 31.3464 29.0023 31.3094 29.0627 31.284C29.1231 31.2587 29.1878 31.2455 29.2533 31.2452L29.3466 31.2447C29.513 31.244 29.6791 31.2323 29.8439 31.2096C29.9738 31.1936 30.1049 31.2295 30.2087 31.3093C30.3124 31.3891 30.3807 31.5066 30.3986 31.6363C30.4165 31.766 30.3827 31.8975 30.3044 32.0025C30.2262 32.1075 30.1098 32.1775 29.9803 32.1974C29.7735 32.2259 29.5618 32.241 29.3512 32.2419L29.2581 32.2423H29.2556ZM31.736 31.4912C31.6297 31.4913 31.5262 31.4574 31.4406 31.3945C31.355 31.3316 31.2917 31.243 31.2599 31.1416C31.2281 31.0402 31.2296 30.9313 31.2641 30.8308C31.2985 30.7302 31.3642 30.6434 31.4515 30.5828C31.6108 30.4723 31.7613 30.3497 31.9016 30.216C31.9973 30.1248 32.1254 30.0753 32.2576 30.0785C32.3898 30.0817 32.5153 30.1373 32.6065 30.233C32.6977 30.3288 32.7472 30.4568 32.744 30.589C32.7408 30.7212 32.6852 30.8467 32.5895 30.9379C32.4118 31.1072 32.2214 31.2624 32.0197 31.4022C31.9365 31.4602 31.8374 31.4913 31.736 31.4912ZM33.3127 29.4353C33.2329 29.4353 33.1541 29.4161 33.0832 29.3793C33.0123 29.3425 32.9513 29.2893 32.9052 29.224C32.8592 29.1587 32.8295 29.0833 32.8187 29.0041C32.8079 28.925 32.8162 28.8444 32.843 28.7692C32.908 28.5868 32.9586 28.3997 32.9945 28.2095C33.0189 28.0796 33.094 27.9647 33.2032 27.8901C33.3124 27.8155 33.4467 27.7874 33.5766 27.8119C33.7066 27.8363 33.8215 27.9114 33.896 28.0206C33.9706 28.1298 33.9988 28.2641 33.9743 28.394C33.9288 28.6354 33.8646 28.8727 33.7822 29.1041C33.7477 29.201 33.684 29.2848 33.6 29.3441C33.5159 29.4034 33.4156 29.4353 33.3127 29.4353ZM33.3934 26.8454C33.2852 26.8453 33.18 26.8101 33.0936 26.7449C33.0072 26.6798 32.9443 26.5883 32.9145 26.4843C32.861 26.2982 32.7931 26.1167 32.7112 25.9413C32.6586 25.8219 32.6548 25.6867 32.7006 25.5646C32.7465 25.4425 32.8384 25.3432 32.9566 25.288C33.0748 25.2329 33.2099 25.2262 33.333 25.2695C33.4561 25.3128 33.5572 25.4026 33.6149 25.5196C33.7188 25.7423 33.8051 25.9729 33.8729 26.2091C33.8943 26.2834 33.8981 26.3616 33.884 26.4376C33.8699 26.5135 33.8384 26.5852 33.7919 26.6469C33.7454 26.7086 33.6852 26.7587 33.6161 26.7931C33.5469 26.8276 33.4707 26.8455 33.3934 26.8454ZM31.9474 24.6946C31.8354 24.6947 31.7266 24.6569 31.6388 24.5874C31.4867 24.4674 31.3257 24.3593 31.1569 24.2642C31.0999 24.2321 31.0497 24.1891 31.0093 24.1375C30.9689 24.086 30.939 24.0271 30.9214 23.964C30.9038 23.9009 30.8988 23.835 30.9066 23.77C30.9145 23.705 30.9351 23.6422 30.9672 23.5852C30.9993 23.5281 31.0424 23.478 31.0939 23.4375C31.1454 23.3971 31.2044 23.3673 31.2674 23.3496C31.3305 23.332 31.3964 23.327 31.4614 23.3349C31.5264 23.3427 31.5892 23.3633 31.6463 23.3954C31.86 23.5159 32.0641 23.6527 32.2567 23.8046C32.3605 23.8866 32.4274 24.0064 32.4429 24.1377C32.4583 24.269 32.421 24.4011 32.339 24.5049C32.2924 24.5641 32.2329 24.612 32.1651 24.6448C32.0972 24.6777 32.0228 24.6947 31.9474 24.6946ZM29.5204 23.791C29.513 23.791 29.5055 23.7908 29.498 23.7904C29.442 23.788 29.3859 23.7867 29.3298 23.7867H28.8616C28.7961 23.7867 28.7313 23.7738 28.6708 23.7488C28.6103 23.7237 28.5553 23.687 28.509 23.6407C28.4627 23.5944 28.426 23.5394 28.401 23.4789C28.3759 23.4184 28.363 23.3536 28.363 23.2881C28.363 23.2227 28.3759 23.1578 28.401 23.0973C28.426 23.0368 28.4627 22.9819 28.509 22.9356C28.5553 22.8893 28.6103 22.8525 28.6708 22.8275C28.7313 22.8024 28.7961 22.7895 28.8616 22.7896H29.3298C29.4001 22.7896 29.4715 22.7911 29.5421 22.7943C29.6075 22.7972 29.6717 22.8129 29.731 22.8406C29.7903 22.8683 29.8436 22.9074 29.8878 22.9557C29.932 23.004 29.9662 23.0605 29.9886 23.1221C30.0109 23.1836 30.0209 23.249 30.018 23.3144C30.0124 23.4426 29.9575 23.5637 29.8648 23.6525C29.7721 23.7413 29.6488 23.7909 29.5204 23.791ZM26.8861 23.7868H26.2276C26.0954 23.7868 25.9685 23.7342 25.875 23.6407C25.7815 23.5472 25.729 23.4204 25.729 23.2882C25.729 23.156 25.7815 23.0291 25.875 22.9356C25.9685 22.8421 26.0954 22.7896 26.2276 22.7896H26.8861C27.0183 22.7896 27.1451 22.8421 27.2386 22.9356C27.3321 23.0291 27.3847 23.156 27.3847 23.2882C27.3847 23.4204 27.3321 23.5472 27.2386 23.6407C27.1451 23.7342 27.0183 23.7868 26.8861 23.7868ZM24.252 23.7868H23.5935C23.4613 23.7868 23.3345 23.7342 23.241 23.6407C23.1475 23.5472 23.0949 23.4204 23.0949 23.2882C23.0949 23.156 23.1475 23.0291 23.241 22.9356C23.3345 22.8421 23.4613 22.7896 23.5935 22.7896H24.252C24.3842 22.7896 24.5111 22.8421 24.6046 22.9356C24.6981 23.0291 24.7506 23.156 24.7506 23.2882C24.7506 23.4204 24.6981 23.5472 24.6046 23.6407C24.5111 23.7342 24.3842 23.7868 24.252 23.7868ZM21.6179 23.7868H20.9594C20.8272 23.7868 20.7003 23.7342 20.6068 23.6407C20.5133 23.5472 20.4608 23.4204 20.4608 23.2882C20.4608 23.156 20.5133 23.0291 20.6068 22.9356C20.7003 22.8421 20.8272 22.7896 20.9594 22.7896H21.6179C21.7501 22.7896 21.8769 22.8421 21.9704 22.9356C22.0639 23.0291 22.1164 23.156 22.1164 23.2882C22.1164 23.4204 22.0639 23.5472 21.9704 23.6407C21.8769 23.7342 21.7501 23.7868 21.6179 23.7868ZM19.0779 23.2909C18.9839 23.2909 18.8918 23.2642 18.8124 23.214C18.5981 23.0786 18.3981 22.922 18.2153 22.7463C18.1682 22.7009 18.1304 22.6467 18.1042 22.5867C18.0779 22.5267 18.0638 22.4622 18.0625 22.3967C18.0612 22.3312 18.0729 22.2662 18.0968 22.2052C18.1206 22.1443 18.1563 22.0886 18.2017 22.0414C18.2471 21.9942 18.3013 21.9565 18.3613 21.9302C18.4213 21.904 18.4858 21.8899 18.5513 21.8886C18.6167 21.8873 18.6818 21.899 18.7428 21.9228C18.8037 21.9467 18.8594 21.9824 18.9066 22.0277C19.0405 22.1566 19.1872 22.2714 19.3444 22.3706C19.4359 22.4283 19.5061 22.5141 19.5446 22.6152C19.583 22.7163 19.5875 22.8271 19.5574 22.931C19.5274 23.0349 19.4643 23.1262 19.3778 23.1911C19.2913 23.256 19.186 23.291 19.0779 23.2909ZM17.6288 21.1787C17.5133 21.1786 17.4013 21.1383 17.3121 21.0648C17.223 20.9912 17.1621 20.889 17.14 20.7755C17.0941 20.5395 17.0711 20.2997 17.0711 20.0593L17.0713 20.0199C17.0749 19.8892 17.1299 19.765 17.2242 19.6744C17.3185 19.5837 17.4447 19.5337 17.5755 19.5352C17.7064 19.5367 17.8314 19.5896 17.9236 19.6825C18.0158 19.7753 18.0678 19.9007 18.0684 20.0315L18.0683 20.0592C18.0683 20.2361 18.0853 20.4129 18.1187 20.5847C18.1328 20.657 18.1308 20.7315 18.1127 20.8028C18.0946 20.8742 18.0609 20.9406 18.014 20.9974C17.9672 21.0542 17.9084 21.0999 17.8418 21.1313C17.7752 21.1626 17.7025 21.1788 17.6288 21.1787ZM18.1737 18.6765C18.082 18.6764 17.9921 18.651 17.9139 18.6032C17.8357 18.5553 17.7722 18.4869 17.7304 18.4053C17.6886 18.3237 17.6701 18.2321 17.6769 18.1407C17.6837 18.0493 17.7156 17.9615 17.7691 17.887C17.917 17.6812 18.0853 17.491 18.2716 17.3191C18.3688 17.2295 18.4976 17.1821 18.6297 17.1874C18.7618 17.1928 18.8864 17.2504 18.9761 17.3476C19.0658 17.4448 19.1131 17.5736 19.1078 17.7057C19.1025 17.8378 19.0449 17.9624 18.9477 18.0521C18.811 18.1782 18.6875 18.3178 18.5791 18.4688C18.5329 18.5331 18.472 18.5855 18.4015 18.6217C18.331 18.6578 18.2529 18.6766 18.1737 18.6765ZM20.3686 17.3571C20.2423 17.3567 20.1208 17.3083 20.0288 17.2218C19.9368 17.1353 19.881 17.0171 19.8727 16.8911C19.8644 16.765 19.9043 16.6406 19.9843 16.5428C20.0642 16.445 20.1783 16.3812 20.3034 16.3642C20.4676 16.3425 20.6331 16.3316 20.7987 16.3315H21.0263C21.3017 16.3315 21.5249 16.5547 21.5249 16.8301C21.5249 17.1055 21.3017 17.3287 21.0263 17.3287H20.7987C20.6768 17.3287 20.5544 17.3367 20.4349 17.3526C20.4129 17.3556 20.3908 17.3572 20.3686 17.3571Z" fill="#0D3260"/>
</g>
<defs>
<clipPath id="clip0_547_2652">
<rect width="34" height="34" fill="white" transform="translate(0 0.5)"/>
</clipPath>
</defs>
</svg>
