<svg width="52" height="72" viewBox="0 0 52 72" fill="none" xmlns="http://www.w3.org/2000/svg">
<path d="M36.747 49.0983L32.3595 46.7149L27.0837 68.7499H39.0003V52.9008C39.0005 52.1231 38.7914 51.3597 38.3949 50.6906C37.9985 50.0216 37.4292 49.4715 36.747 49.0983ZM19.5003 29.7499C19.5003 28.6786 19.1826 27.6313 18.5875 26.7406C17.9923 25.8498 17.1463 25.1555 16.1565 24.7456C15.1668 24.3356 14.0777 24.2283 13.0269 24.4373C11.9762 24.6463 11.011 25.1622 10.2535 25.9198C9.49597 26.6773 8.98008 27.6425 8.77107 28.6932C8.56207 29.7439 8.66934 30.833 9.07931 31.8228C9.48929 32.8126 10.1836 33.6585 11.0743 34.2537C11.9651 34.8489 13.0123 35.1666 14.0837 35.1666C15.2305 35.1549 16.3432 34.7751 17.2578 34.0833C17.7506 33.0743 18.414 32.1581 19.2187 31.3749C19.4002 30.8522 19.4954 30.3033 19.5003 29.7499Z" fill="white"/>
<path d="M26.0003 45.9999C30.1885 45.9999 33.5837 42.6047 33.5837 38.4166C33.5837 34.2284 30.1885 30.8333 26.0003 30.8333C21.8122 30.8333 18.417 34.2284 18.417 38.4166C18.417 42.6047 21.8122 45.9999 26.0003 45.9999Z" fill="white"/>
<path d="M43.3334 29.7499C43.3334 28.3133 42.7627 26.9356 41.7469 25.9198C40.7311 24.9039 39.3533 24.3333 37.9167 24.3333C36.4801 24.3333 35.1024 24.9039 34.0866 25.9198C33.0708 26.9356 32.5001 28.3133 32.5001 29.7499C32.5003 30.3178 32.5955 30.8817 32.7817 31.4183C33.5824 32.1884 34.2456 33.0897 34.7426 34.0833C35.6572 34.7751 36.7699 35.1549 37.9167 35.1666C38.6281 35.1666 39.3324 35.0265 39.9896 34.7543C40.6468 34.4821 41.2439 34.0831 41.7469 33.5801C42.2499 33.0771 42.6489 32.48 42.9211 31.8228C43.1933 31.1656 43.3334 30.4612 43.3334 29.7499ZM16.2501 38.4166C16.2512 37.9339 16.291 37.4521 16.3692 36.9758C15.6297 37.2095 14.859 37.33 14.0834 37.3333C12.5346 37.335 11.0223 36.8624 9.75007 35.9791L6.06674 37.3333C5.2356 37.6438 4.5198 38.202 4.01608 38.9324C3.51235 39.6628 3.24498 40.5302 3.25007 41.4174V56.8333H10.8334V52.9008C10.8352 51.734 11.1509 50.5893 11.7475 49.5867C12.3442 48.5841 13.1997 47.7605 14.2242 47.2024L18.6334 44.7866C17.1001 43.0182 16.2542 40.7572 16.2501 38.4166ZM45.9334 37.3333L42.2501 35.9791C40.9778 36.8624 39.4656 37.335 37.9167 37.3333C37.1411 37.33 36.3705 37.2095 35.6309 36.9758C35.7091 37.4521 35.749 37.9339 35.7501 38.4166C35.746 40.7572 34.9 43.0182 33.3667 44.7866L37.7759 47.2024C38.8005 47.7605 39.656 48.5841 40.2526 49.5867C40.8492 50.5893 41.165 51.734 41.1667 52.9008V56.8333H48.7501V41.4174C48.7552 40.5302 48.4878 39.6628 47.9841 38.9324C47.4803 38.202 46.7645 37.6438 45.9334 37.3333ZM27.0834 50.3333V59.5199L26.0001 64.0699L24.9167 59.5199V50.3333C24.9167 50.0459 25.0309 49.7704 25.234 49.5672C25.4372 49.3641 25.7128 49.2499 26.0001 49.2499C26.2874 49.2499 26.5629 49.3641 26.7661 49.5672C26.9693 49.7704 27.0834 50.0459 27.0834 50.3333Z" fill="white"/>
<path d="M27.0833 50.3332V59.5198L26 64.0698L24.9167 59.5198V50.3332C24.9167 50.0459 25.0308 49.7703 25.234 49.5671C25.4371 49.364 25.7127 49.2498 26 49.2498C26.2873 49.2498 26.5629 49.364 26.766 49.5671C26.9692 49.7703 27.0833 50.0459 27.0833 50.3332ZM15.2533 49.0982C14.5711 49.4715 14.0019 50.0215 13.6054 50.6905C13.2089 51.3596 12.9998 52.123 13 52.9007V68.7498H24.9167L19.6408 46.7148L15.2533 49.0982Z" fill="white"/>
<g clip-path="url(#clip0_108_243)">
<path d="M26 0C20.4862 0 16 4.48622 16 10C16 15.5138 20.4862 20 26 20C31.5138 20 36 15.5138 36 10C36 4.48622 31.5138 0 26 0ZM31.589 7.36842L25.198 13.7093C24.8221 14.0852 24.2206 14.1103 23.8195 13.7343L20.4361 10.6516C20.0351 10.2757 20.01 9.64912 20.3609 9.24812C20.7368 8.84712 21.3634 8.82205 21.7644 9.19799L24.4461 11.6541L30.1604 5.93985C30.5614 5.53885 31.188 5.53885 31.589 5.93985C31.99 6.34085 31.99 6.96742 31.589 7.36842Z" fill="white"/>
</g>
<defs>
<clipPath id="clip0_108_243">
<rect width="20" height="20" fill="white" transform="translate(16)"/>
</clipPath>
</defs>
</svg>
