<svg width="66" height="66" viewBox="0 0 66 66" fill="none" xmlns="http://www.w3.org/2000/svg">
<path fill-rule="evenodd" clip-rule="evenodd" d="M55.676 49.0129C59.8279 49.0129 63.1988 52.3838 63.1988 56.5359C63.1988 60.6879 59.8279 64.0588 55.676 64.0588C51.5239 64.0588 48.153 60.6879 48.153 56.5359C48.153 52.3838 51.5239 49.0129 55.676 49.0129ZM51.5982 57.4699L53.5495 59.418C53.7375 59.6057 53.9905 59.7139 54.2561 59.7203C54.5217 59.7267 54.7796 59.6307 54.9764 59.4523L59.7176 55.1535C59.9209 54.9689 60.0426 54.7113 60.0561 54.437C60.0695 54.1628 59.9735 53.8945 59.7892 53.691C59.6047 53.4877 59.347 53.366 59.0728 53.3526C58.7986 53.3392 58.5303 53.4352 58.3268 53.6194L54.3153 57.2567L53.0611 56.0046C52.8667 55.8107 52.6033 55.7019 52.3288 55.7022C52.0542 55.7024 51.791 55.8116 51.5969 56.0058C51.1933 56.4102 51.1938 57.0663 51.5982 57.4699ZM10.3236 49.0129C14.4757 49.0129 17.8466 52.3838 17.8466 56.5359C17.8466 60.6879 14.4757 64.0588 10.3236 64.0588C6.1717 64.0588 2.80078 60.6879 2.80078 56.5359C2.80078 52.3838 6.1717 49.0129 10.3236 49.0129ZM6.24598 57.4699L8.19725 59.418C8.38527 59.6057 8.63825 59.7139 8.90384 59.7203C9.16944 59.7267 9.42733 59.6307 9.62415 59.4523L14.3654 55.1535C14.5687 54.9689 14.6904 54.7113 14.7038 54.437C14.7173 54.1628 14.6213 53.8945 14.437 53.691C14.2524 53.4877 13.9947 53.366 13.7205 53.3526C13.4463 53.3392 13.178 53.4352 12.9745 53.6194L8.96298 57.2567L7.70885 56.0046C7.51447 55.8107 7.25107 55.7019 6.97653 55.7022C6.70198 55.7024 6.43876 55.8116 6.24469 56.0058C5.84105 56.4102 5.84157 57.0663 6.24598 57.4699ZM10.3236 1.94116C14.4757 1.94116 17.8466 5.31208 17.8466 9.46413C17.8466 13.6162 14.4757 16.9871 10.3236 16.9871C6.1717 16.9871 2.80078 13.6162 2.80078 9.46413C2.80078 5.31208 6.1717 1.94116 10.3236 1.94116ZM6.24598 10.3982L8.19725 12.3463C8.3853 12.5339 8.63827 12.6421 8.90385 12.6485C9.16943 12.6549 9.4273 12.559 9.62415 12.3806L14.3654 8.08162C14.7887 7.69792 14.8207 7.04257 14.437 6.61927C14.2524 6.41598 13.9948 6.29425 13.7205 6.28083C13.4463 6.26741 13.178 6.3634 12.9745 6.5477L8.96298 10.185L7.70885 8.93276C7.51446 8.73889 7.25105 8.63013 6.9765 8.63037C6.70196 8.63062 6.43874 8.73985 6.24469 8.93406C6.05082 9.12845 5.94206 9.39186 5.9423 9.66641C5.94254 9.94095 6.05177 10.2042 6.24598 10.3982ZM55.676 1.94116C59.8279 1.94116 63.1988 5.31208 63.1988 9.46413C63.1988 13.6162 59.8279 16.9871 55.676 16.9871C51.5239 16.9871 48.153 13.6162 48.153 9.46413C48.153 5.31208 51.5239 1.94116 55.676 1.94116ZM51.5982 10.3982L53.5495 12.3463C53.7375 12.5339 53.9905 12.6421 54.2561 12.6485C54.5217 12.6549 54.7795 12.559 54.9764 12.3806L59.7176 8.08162C60.1409 7.69792 60.173 7.04257 59.7892 6.61927C59.4054 6.19596 58.7501 6.16387 58.3268 6.5477L54.3153 10.185L53.0611 8.93276C52.8667 8.73889 52.6033 8.63013 52.3287 8.63037C52.0542 8.63062 51.791 8.73985 51.5969 8.93406C51.403 9.12845 51.2943 9.39186 51.2945 9.66641C51.2948 9.94095 51.404 10.2042 51.5982 10.3982ZM32.9998 13.1896L50.753 20.7994V35.155C50.753 45.1445 43.4825 53.7768 33.6467 55.4915L32.9998 55.6046L32.3529 55.4915C22.5171 53.7768 15.2466 45.1445 15.2466 35.155V20.7994L32.9998 13.1896ZM24.2856 31.2256C23.5681 31.2256 22.9833 31.8104 22.9833 32.5249V46.3808C22.9833 47.0982 23.5681 47.6801 24.2856 47.6801H41.717C42.4344 47.6801 43.0163 47.0982 43.0163 46.3808V32.5249C43.0163 31.8104 42.4344 31.2256 41.717 31.2256H24.2856ZM33.0013 34.5087C34.4002 34.5087 35.5337 35.6452 35.5337 37.0441C35.5346 37.4767 35.4245 37.9024 35.2139 38.2803C35.0033 38.6582 34.6992 38.9757 34.3308 39.2026V43.0676C34.3308 43.8002 33.7308 44.397 33.0013 44.397C32.2687 44.397 31.6718 43.8002 31.6718 43.0676V39.2026C30.9482 38.7565 30.4659 37.9575 30.4659 37.0441C30.4659 35.6452 31.6024 34.5087 33.0013 34.5087ZM36.8601 29.2844H40.1191V26.9408C40.1191 23.0247 36.9175 19.8199 33.0013 19.8199C29.0851 19.8199 25.8805 23.0247 25.8805 26.9408V29.2844H29.1424V26.9408C29.1424 24.8214 30.8849 23.0789 33.0013 23.0789C35.1176 23.0789 36.8601 24.8214 36.8601 26.9408V29.2844ZM7.80061 44.9453C7.90672 45.1985 7.90796 45.4835 7.80405 45.7376C7.70014 45.9918 7.49959 46.1942 7.24646 46.3005C6.99326 46.4066 6.70829 46.4078 6.45418 46.3039C6.20007 46.2 5.9976 45.9995 5.89126 45.7464C4.42593 42.2538 3.61569 38.4194 3.61569 34.3971C3.61569 29.3689 4.88159 24.6342 7.11123 20.494C7.38222 19.991 8.01064 19.8024 8.51366 20.0734C8.75534 20.2037 8.9354 20.4246 9.01426 20.6876C9.09313 20.9506 9.06435 21.2341 8.93425 21.4759C6.86211 25.3235 5.68628 29.7242 5.68628 34.3971C5.68628 38.1354 6.43868 41.6993 7.80061 44.9453ZM43.5866 59.5801C43.8396 59.4736 44.1246 59.4719 44.3788 59.5754C44.6331 59.6789 44.8359 59.8791 44.9426 60.1321C45.0491 60.3851 45.0508 60.6701 44.9473 60.9244C44.8438 61.1787 44.6436 61.3815 44.3906 61.4882C40.8869 62.9646 37.038 63.7812 32.9998 63.7812C28.7676 63.7812 24.7433 62.8843 21.1065 61.2708C20.8556 61.1593 20.6592 60.9529 20.5604 60.6967C20.4617 60.4406 20.4687 60.1557 20.5799 59.9047C20.6914 59.6538 20.8979 59.4574 21.154 59.3587C21.4102 59.26 21.6951 59.2669 21.9461 59.3781C25.3262 60.8776 29.0665 61.7106 32.9998 61.7106C36.7529 61.7106 40.3302 60.9523 43.5866 59.5801ZM57.0343 21.4184C56.9036 21.1769 56.8742 20.8935 56.9524 20.6303C57.0306 20.3672 57.2102 20.1458 57.4515 20.0149C57.693 19.8843 57.9764 19.8548 58.2396 19.9331C58.5028 20.0113 58.7241 20.1908 58.855 20.4322C61.1053 24.5871 62.3839 29.344 62.3839 34.3971C62.3839 38.4196 61.5737 42.2544 60.1081 45.747C60.0017 46.0002 59.7992 46.2007 59.5451 46.3046C59.2909 46.4085 59.006 46.4073 58.7527 46.3012C58.4996 46.1949 58.2991 45.9924 58.1952 45.7383C58.0913 45.4841 58.0926 45.1992 58.1987 44.946C59.5608 41.6997 60.3133 38.1356 60.3133 34.3971C60.3133 29.7009 59.1257 25.2798 57.0343 21.4184ZM22.6685 9.10812C22.1397 9.32462 21.5346 9.07097 21.3181 8.5422C21.1015 8.01342 21.3551 7.40842 21.8838 7.19192C25.3136 5.78754 29.067 5.01301 32.9998 5.01301C37.0148 5.01301 40.8427 5.82028 44.3302 7.28069C44.5834 7.38683 44.7841 7.58916 44.8881 7.84321C44.9922 8.09725 44.9912 8.38223 44.8852 8.6355C44.7791 8.88869 44.5768 9.08938 44.3227 9.19346C44.0687 9.29754 43.7837 9.29649 43.5304 9.19055C40.2892 7.83328 36.7313 7.0836 32.9998 7.0836C29.3446 7.0836 25.8561 7.80287 22.6685 9.10812Z" fill="white"/>
</svg>
