<svg width="68" height="68" viewBox="0 0 68 68" fill="none" xmlns="http://www.w3.org/2000/svg">
<g clip-path="url(#clip0_271_102)">
<path d="M16.1458 28.041C14.8244 28.4362 13.6656 29.2469 12.8413 30.3528C12.0171 31.4587 11.5714 32.8009 11.5704 34.1802V35.868L0.329436 26.1442C0.234768 26.0625 0.157157 25.9628 0.101049 25.851C0.0449403 25.7392 0.011436 25.6175 0.00245478 25.4927C-0.00652648 25.3679 0.00919165 25.2426 0.0487091 25.124C0.0882265 25.0053 0.150767 24.8956 0.232749 24.8011L19.4242 2.60559C19.5059 2.51092 19.6056 2.43331 19.7174 2.3772C19.8292 2.32109 19.9509 2.28758 20.0757 2.27858C20.2005 2.26959 20.3258 2.28529 20.4445 2.32479C20.5632 2.36429 20.6729 2.42681 20.7674 2.50877L26.0591 7.08416L12.5459 13.2427C11.856 13.56 11.3197 14.1375 11.0543 14.849C10.7889 15.5605 10.816 16.3482 11.1296 17.0398L16.1458 28.041ZM12.8711 16.2465L18.1278 27.7746H25.4901C25.7935 27.7754 26.0963 27.8 26.3959 27.8481V12.4762C26.3961 11.7154 26.6984 10.9859 27.2363 10.4479C27.7743 9.90994 28.5038 9.60764 29.2646 9.60747H44.1866L41.2986 3.28294C41.2469 3.16902 41.1731 3.06644 41.0817 2.98104C40.9902 2.89565 40.8829 2.82912 40.7657 2.78527C40.6485 2.74142 40.5238 2.7211 40.3988 2.72548C40.2737 2.72986 40.1507 2.75885 40.0369 2.81079L13.3395 14.9845C13.2258 15.0365 13.1234 15.1104 13.0383 15.202C12.9532 15.2936 12.887 15.4011 12.8434 15.5183C12.7999 15.6355 12.78 15.7602 12.7847 15.8852C12.7894 16.0101 12.8188 16.1329 12.8711 16.2465ZM52.6906 19.1458H59.004L51.9359 12.0814V18.3909C51.9372 18.5907 52.0172 18.7819 52.1584 18.9231C52.2997 19.0644 52.4909 19.1444 52.6906 19.1458ZM50.0275 11.5201V18.3909C50.0269 18.741 50.0954 19.0877 50.229 19.4113C50.3626 19.7348 50.5587 20.0289 50.806 20.2766C51.0534 20.5243 51.3472 20.7208 51.6705 20.8549C51.9939 20.9889 52.3406 21.0579 52.6906 21.0579H59.5614V34.0215C58.1117 34.2206 56.7318 34.7678 55.5396 35.6163H36.1233C36.0899 35.6019 36.0575 35.585 36.0265 35.5659C35.7111 35.3376 35.4182 35.0797 35.1518 34.7956L34.2832 33.9479H53.9177C54.1713 33.9479 54.4145 33.8471 54.5939 33.6678C54.7732 33.4885 54.8739 33.2452 54.8739 32.9916C54.8739 32.738 54.7732 32.4948 54.5939 32.3155C54.4145 32.1361 54.1713 32.0354 53.9177 32.0354H33.9518C33.7445 32.0359 33.5429 32.1037 33.3773 32.2286C33.2117 32.3534 33.0911 32.5286 33.0336 32.7279L30.4719 30.2281C29.916 29.6558 29.2995 29.1457 28.6332 28.7068C28.5249 28.6404 28.4165 28.5791 28.3081 28.5172V12.4762C28.3086 12.2228 28.4095 11.9798 28.5887 11.8006C28.768 11.6214 29.0109 11.5205 29.2644 11.52L50.0275 11.5201ZM32.9957 19.0413C32.9957 19.2949 33.0965 19.5381 33.2758 19.7174C33.4551 19.8968 33.6984 19.9975 33.952 19.9975H46.598C46.8516 19.9975 47.0948 19.8968 47.2742 19.7174C47.4535 19.5381 47.5542 19.2949 47.5542 19.0413C47.5542 18.7877 47.4535 18.5444 47.2742 18.3651C47.0948 18.1858 46.8516 18.085 46.598 18.085H33.9518C33.6984 18.0855 33.4555 18.1865 33.2763 18.3657C33.0971 18.5449 32.9962 18.7878 32.9957 19.0413ZM54.8738 28.3429C54.8738 28.0893 54.773 27.8461 54.5937 27.6668C54.4144 27.4874 54.1712 27.3867 53.9175 27.3867H33.9518C33.6982 27.3867 33.455 27.4874 33.2757 27.6668C33.0963 27.8461 32.9956 28.0893 32.9956 28.3429C32.9956 28.5965 33.0963 28.8398 33.2757 29.0191C33.455 29.1984 33.6982 29.2992 33.9518 29.2992H53.9177C54.1713 29.2991 54.4145 29.1984 54.5938 29.0191C54.7731 28.8397 54.8738 28.5965 54.8738 28.3429ZM33.9518 22.7382C33.6982 22.7382 33.455 22.839 33.2757 23.0183C33.0963 23.1977 32.9956 23.4409 32.9956 23.6945C32.9956 23.9481 33.0963 24.1913 33.2757 24.3707C33.455 24.55 33.6982 24.6507 33.9518 24.6507H53.9177C54.1713 24.6507 54.4145 24.55 54.5939 24.3707C54.7732 24.1913 54.8739 23.9481 54.8739 23.6945C54.8739 23.4409 54.7732 23.1977 54.5939 23.0183C54.4145 22.839 54.1713 22.7382 53.9177 22.7382H33.9518ZM67.9999 43.0406C67.9992 44.7038 67.4219 46.3153 66.3663 47.6005C65.3107 48.8858 63.8422 49.7653 62.2109 50.0893C60.5796 50.4133 58.8864 50.1616 57.4198 49.3772C55.9532 48.5928 54.8039 47.3242 54.1678 45.7875C53.5316 44.2508 53.448 42.541 53.931 40.9495C54.4141 39.3581 55.4339 37.9833 56.8169 37.0594C58.1999 36.1355 59.8604 35.7197 61.5156 35.8828C63.1707 36.046 64.7181 36.7779 65.8942 37.9539C66.5629 38.6213 67.0931 39.4143 67.4545 40.2872C67.8158 41.1601 68.0012 42.0959 67.9999 43.0406ZM65.6774 39.4291C65.589 39.3398 65.4838 39.269 65.3679 39.2207C65.2519 39.1723 65.1276 39.1474 65.0019 39.1474C64.8763 39.1474 64.752 39.1723 64.636 39.2207C64.5201 39.269 64.4149 39.3398 64.3265 39.4291L59.1241 44.6276L57.2931 42.7929C57.1135 42.6138 56.87 42.5133 56.6163 42.5137C56.3626 42.514 56.1194 42.6151 55.9403 42.7948C55.7611 42.9744 55.6607 43.2179 55.661 43.4716C55.6614 43.7253 55.7625 43.9685 55.9421 44.1476L58.4507 46.6559C58.6301 46.8345 58.873 46.9347 59.1261 46.9347C59.3793 46.9347 59.6221 46.8345 59.8015 46.6559L65.6776 40.78C65.856 40.6005 65.9562 40.3576 65.9562 40.1045C65.9562 39.8514 65.8559 39.6085 65.6774 39.4291ZM60.8079 52.1449C61.8605 52.1455 62.9055 51.9648 63.8968 51.6107V60.4672C63.8926 61.8607 63.3369 63.1958 62.3512 64.1808C61.3656 65.1657 60.0301 65.7205 58.6366 65.7238H18.7432C17.3497 65.7206 16.0141 65.1659 15.0284 64.1809C14.0426 63.1959 13.4869 61.8607 13.4827 60.4672V34.1802C13.4843 32.9894 13.9578 31.8479 14.7994 31.0055C15.641 30.1632 16.7822 29.6887 17.9729 29.6861H25.4901C26.2458 29.6897 26.9841 29.913 27.6151 30.3287C28.1674 30.6932 28.6775 31.1177 29.1363 31.5944L33.8162 36.166C34.1794 36.5447 34.5799 36.8857 35.0116 37.184C35.3431 37.4049 35.7318 37.5247 36.1302 37.5285H53.5655C52.5382 38.878 51.9083 40.4876 51.7469 42.1759C51.5855 43.8642 51.8989 45.564 52.6519 47.0837C53.4049 48.6033 54.5675 49.8824 56.0086 50.7767C57.4496 51.671 59.1119 52.1448 60.8079 52.1449ZM19.5563 52.2687C19.5563 52.5223 19.657 52.7655 19.8364 52.9449C20.0157 53.1242 20.2589 53.2249 20.5126 53.2249H29.8336C30.0872 53.2249 30.3304 53.1242 30.5098 52.9449C30.6891 52.7655 30.7898 52.5223 30.7898 52.2687C30.7898 52.0151 30.6891 51.7719 30.5098 51.5925C30.3304 51.4132 30.0872 51.3125 29.8336 51.3125H20.5122C20.3865 51.3121 20.262 51.3365 20.1458 51.3845C20.0296 51.4324 19.924 51.5028 19.8352 51.5917C19.7463 51.6805 19.6759 51.7861 19.628 51.9023C19.5801 52.0185 19.5556 52.143 19.556 52.2687H19.5563ZM57.8237 58.8031C57.8237 58.5495 57.7229 58.3062 57.5436 58.1269C57.3643 57.9476 57.1211 57.8468 56.8674 57.8468H20.5122C20.2591 57.8468 20.0164 57.9473 19.8375 58.1263C19.6586 58.3052 19.558 58.5479 19.558 58.8009C19.558 59.054 19.6586 59.2967 19.8375 59.4756C20.0164 59.6546 20.2591 59.7551 20.5122 59.7551H56.8673C57.1203 59.7554 57.3632 59.6553 57.5424 59.4767C57.7217 59.2981 57.8228 59.0557 57.8234 58.8027L57.8237 58.8031Z" fill="white"/>
</g>
<defs>
<clipPath id="clip0_271_102">
<rect width="68" height="68" fill="white"/>
</clipPath>
</defs>
</svg>
