<svg width="62" height="62" viewBox="0 0 62 62" fill="none" xmlns="http://www.w3.org/2000/svg">
<path fill-rule="evenodd" clip-rule="evenodd" d="M51.8252 28.7671C55.4225 32.7534 58.1044 36.2119 59.8706 39.3129C66.3386 50.6698 57.1372 62.2047 44.8144 61.9971C32.4916 62.2047 23.2902 50.6698 29.7583 39.3129C31.5245 36.2119 34.2064 32.7534 37.8036 28.7671C38.2433 28.9063 38.7019 28.977 39.1631 28.9767H50.4656C50.9392 28.9767 51.3959 28.9031 51.8252 28.7671ZM6.08065 0.4375C2.97683 0.4375 0.4375 2.97696 0.4375 6.08065V47.3348C0.4375 50.4386 2.97683 52.9779 6.08065 52.9779H26.8615C24.8304 48.1248 25.4449 42.874 28.0328 38.3301C28.5614 37.402 29.1413 36.4821 29.7595 35.5733C29.4019 35.342 29.1644 34.9396 29.1644 34.4835V32.7969C29.1644 32.0824 29.7471 31.4997 30.4617 31.4997H32.8146C33.8662 30.207 34.9604 28.9487 36.0555 27.734C35.731 27.4262 35.4536 27.0722 35.2324 26.6835H30.4617C29.7471 26.6835 29.1644 26.1008 29.1644 25.3862V23.6996C29.1644 22.985 29.7471 22.4023 30.4617 22.4023H35.1397C35.5437 21.617 36.167 20.966 36.934 20.5282L35.5859 19.1802C34.7653 18.3596 34.3217 17.3015 34.2545 16.224H7.96166C7.24711 16.224 6.66438 15.6412 6.66438 14.9267V9.83473C6.66438 9.12018 7.24711 8.53745 7.96166 8.53745H36.5022C37.2168 8.53745 37.7995 9.12018 37.7995 9.83473V11.4673C38.715 11.2572 39.6887 11.3271 40.5786 11.6922C41.1804 10.2519 42.4856 9.20532 44.0265 8.93562V6.08065C44.0265 2.97696 41.4871 0.4375 38.3834 0.4375H6.08065ZM39.1632 26.9908C37.7696 26.9908 36.6297 25.8508 36.6297 24.4573C36.6297 23.064 37.7697 21.9239 39.1632 21.9239H50.4658C51.8592 21.9239 52.9993 23.064 52.9993 24.4574C52.9993 25.8507 51.8592 26.9908 50.4658 26.9908H39.1632ZM9.15357 22.4023H14.0022C14.7168 22.4023 15.2995 22.985 15.2995 23.6996V25.3861C15.2995 26.1006 14.7168 26.6834 14.0022 26.6834H9.15357C8.43902 26.6834 7.85629 26.1006 7.85629 25.3861V23.6996C7.85629 22.985 8.43902 22.4023 9.15357 22.4023ZM19.8076 40.5969C19.0931 40.5969 18.5103 41.1796 18.5103 41.8942V43.5807C18.5103 44.2952 19.0931 44.878 19.8076 44.878H24.6563C25.3708 44.878 25.9536 44.2952 25.9536 43.5807V41.8942C25.9536 41.1796 25.3708 40.5969 24.6563 40.5969H19.8076ZM9.15357 40.5969H14.0022C14.7168 40.5969 15.2995 41.1796 15.2995 41.8942V43.5807C15.2995 44.2952 14.7168 44.878 14.0022 44.878H9.15357C8.43902 44.878 7.85629 44.2952 7.85629 43.5807V41.8942C7.85629 41.1796 8.43902 40.5969 9.15357 40.5969ZM19.8076 31.4995C19.0931 31.4995 18.5103 32.0823 18.5103 32.7968V34.4833C18.5103 35.1979 19.0931 35.7806 19.8076 35.7806H24.6563C25.3708 35.7806 25.9536 35.1979 25.9536 34.4833V32.7968C25.9536 32.0823 25.3708 31.4995 24.6563 31.4995H19.8076ZM9.15357 31.4995H14.0022C14.7168 31.4995 15.2995 32.0823 15.2995 32.7968V34.4833C15.2995 35.1979 14.7168 35.7806 14.0022 35.7806H9.15357C8.43902 35.7806 7.85629 35.1979 7.85629 34.4833V32.7968C7.85629 32.0824 8.43902 31.4995 9.15357 31.4995ZM19.8076 22.4023H24.6563C25.3708 22.4023 25.9536 22.985 25.9536 23.6996V25.3861C25.9536 26.1006 25.3708 26.6834 24.6563 26.6834H19.8076C19.0931 26.6834 18.5103 26.1006 18.5103 25.3861V23.6996C18.5103 22.985 19.0931 22.4023 19.8076 22.4023ZM44.6845 50.083C43.9231 50.0631 43.184 49.857 42.5948 49.4645C42.0616 49.1094 41.6543 48.59 41.4841 47.9076C41.4481 47.7611 41.3835 47.6231 41.2942 47.5016C41.2048 47.3801 41.0924 47.2773 40.9634 47.1992C40.8343 47.1211 40.6912 47.0692 40.5421 47.0465C40.3929 47.0237 40.2408 47.0305 40.0943 47.0665C39.9479 47.1026 39.8099 47.1671 39.6884 47.2564C39.5668 47.3458 39.4641 47.4582 39.386 47.5872C39.3079 47.7163 39.256 47.8595 39.2332 48.0086C39.2105 48.1577 39.2173 48.3098 39.2533 48.4563C39.5747 49.7453 40.3346 50.7198 41.3266 51.3805C42.0041 51.8318 42.791 52.1301 43.6151 52.2754V53.1692C43.6182 53.4725 43.7409 53.7623 43.9565 53.9756C44.1721 54.189 44.4631 54.3087 44.7664 54.3087C45.0698 54.3087 45.3608 54.189 45.5764 53.9756C45.792 53.7623 45.9147 53.4725 45.9178 53.1692V52.2974C46.9192 52.1447 47.9395 51.7792 48.7405 51.1715C49.7032 50.4411 50.3435 49.3951 50.3101 47.9915C50.3076 47.8502 50.2984 47.709 50.2824 47.5686C50.0958 46.0305 49.2637 45.0294 48.1603 44.3633C47.1912 43.778 46.0289 43.4866 44.9634 43.3117C44.1948 43.1855 43.3853 42.972 42.7925 42.585C42.3332 42.2851 42.0038 41.851 41.9729 41.2162C41.9395 40.5294 42.2393 39.9752 42.7119 39.591C43.082 39.2902 43.5541 39.081 44.066 38.978C44.2742 38.9362 44.4856 38.9125 44.6979 38.907C44.7481 38.9101 44.7986 38.9098 44.8488 38.9062C45.1318 38.9103 45.4169 38.9466 45.6953 39.0171C46.5512 39.2341 47.3304 39.7982 47.7409 40.7756C47.9868 41.3618 48.6615 41.6376 49.2475 41.3917C49.8338 41.1459 50.1095 40.4712 49.8637 39.8851C49.1411 38.1641 47.7653 37.1696 46.2529 36.7863C46.142 36.7582 46.0303 36.7335 45.9178 36.7122V35.8201C45.9124 35.5183 45.7887 35.2307 45.5734 35.0192C45.358 34.8077 45.0683 34.6892 44.7664 34.6892C44.4646 34.6892 44.1749 34.8077 43.9595 35.0192C43.7442 35.2307 43.6205 35.5183 43.6151 35.8201V36.7295C42.7426 36.9054 41.9235 37.2736 41.2637 37.8101C40.2496 38.6346 39.6066 39.8317 39.679 41.3243C39.7518 42.8241 40.5002 43.83 41.5422 44.5102C42.4505 45.1031 43.5659 45.4099 44.5946 45.5787C45.4207 45.7144 46.3028 45.9288 46.973 46.3334C47.509 46.657 47.9117 47.13 47.9977 47.8387C48.0091 47.9331 48.0153 48.0018 48.0163 48.0456C48.0297 48.6091 47.7601 49.0384 47.3552 49.3456C46.8485 49.7301 46.1368 49.9569 45.4251 50.0433C45.2313 50.0667 45.062 50.0801 44.9186 50.0835L44.8637 50.0845C44.8313 50.0817 44.7989 50.0804 44.7664 50.0804C44.7391 50.0801 44.7117 50.081 44.6845 50.083ZM39.1524 19.9382L36.9901 17.7759C35.9776 16.7634 35.9776 15.1065 36.9901 14.0941C37.8513 13.2328 39.2146 13.0874 40.2393 13.7451C40.62 13.9893 41.0571 14.0283 41.4748 13.8554C41.8924 13.6824 42.1739 13.3459 42.2704 12.9039C42.5256 11.7352 43.5719 10.8531 44.8144 10.8529C46.0344 10.8529 47.0986 11.7129 47.3586 12.9039C47.455 13.3459 47.7365 13.6824 48.1542 13.8554C48.5721 14.0286 49.0091 13.9893 49.3895 13.7451C50.3963 13.0989 51.7602 13.2155 52.6387 14.0938V14.0941C53.6513 15.1066 53.6513 16.7635 52.6387 17.7759L50.4764 19.9382L50.4656 19.9381H39.1631L39.1524 19.9382Z" fill="white"/>
<circle cx="44.5" cy="44.5" r="10.5" fill="white"/>
<path d="M36.7113 48.82V46.7H38.3313C38.3113 46.48 38.3113 46.24 38.3113 46C38.3113 45.82 38.3113 45.64 38.3313 45.46H36.7113V43.34H38.7313C39.6513 40.58 42.0313 38.8 45.1313 38.8C47.9913 38.8 50.5513 40.64 51.3513 43.24L48.7113 44.1C48.3513 42.34 46.8513 41.1 45.1313 41.1C43.6313 41.1 42.4313 41.96 41.7713 43.34H45.8113V45.46H41.2313C41.2113 45.64 41.2113 45.82 41.2113 46C41.2113 46.24 41.2313 46.48 41.2513 46.7H45.8113V48.82H41.8513C42.5313 50.12 43.6913 50.9 45.1313 50.9C46.8713 50.9 48.3713 49.58 48.7113 47.72L51.3313 48.62C50.6913 51.3 48.1313 53.18 45.1313 53.18C42.0913 53.18 39.7513 51.48 38.7913 48.82H36.7113Z" fill="#1D1F38"/>
</svg>
