<svg width="22" height="22" viewBox="0 0 22 22" fill="none" xmlns="http://www.w3.org/2000/svg">
<path d="M5.96151 20.5429C5.96151 21.2805 5.38568 21.8741 4.70824 21.8741H1.25327C0.558891 21.8741 0 21.2805 0 20.5429V10.0736C0 9.33606 0.558891 8.74244 1.25327 8.74244H4.70824C5.40262 8.74244 5.96151 9.33606 5.96151 10.0736V20.5429ZM20.662 12.3401C21.4072 12.9697 21.5258 14.121 20.933 14.9125C20.6959 15.2363 20.3572 15.4522 19.9846 15.5421C20.7298 16.1717 20.8483 17.323 20.2556 18.0965C20.0185 18.4203 19.6798 18.6361 19.2902 18.7441C20.0354 19.3737 20.154 20.5249 19.5443 21.3164C19.2225 21.7482 18.7313 22 18.2063 22L8.46805 21.8921C7.77367 21.8921 7.21478 21.2984 7.21478 20.5609V10.0916C7.21478 8.43663 12.194 5.39657 12.448 3.75961C12.6174 2.71627 12.3972 0 13.0747 0C14.2433 0 15.7167 0.467703 15.7167 3.20196C15.7167 5.61243 14.2263 8.74244 14.2263 8.74244H20.2895C21.2379 8.74244 22 9.55192 22 10.5593C22 11.4227 21.4411 12.1603 20.662 12.3401Z" fill="white"/>
</svg>
