<svg width="60" height="60" viewBox="0 0 60 60" fill="none" xmlns="http://www.w3.org/2000/svg">
<path d="M21.66 47.0684C21.4523 47.242 21.208 47.3663 20.9454 47.432C20.6828 47.4977 20.4087 47.503 20.1438 47.4477C19.8788 47.3924 19.6298 47.2778 19.4154 47.1125C19.201 46.9472 19.0269 46.7356 18.906 46.4934L14.3921 37.4548C8.34914 40.3229 4.16016 46.4839 4.16016 53.6057V58.2066C4.16016 59.197 4.96313 60 5.95348 60H28.4838V41.3687L21.66 47.0684ZM45.8358 37.5644L41.4006 46.49C41.2521 46.789 41.0232 47.0405 40.7395 47.2164C40.4557 47.3922 40.1286 47.4853 39.7948 47.4853C39.3667 47.4853 38.9527 47.3322 38.6277 47.0535L32.0705 41.4331V60H54.0477C55.0381 60 55.841 59.197 55.841 58.2066V53.6057C55.841 46.5732 51.7564 40.4778 45.8358 37.5644ZM45.5997 54.6559H40.0536C39.0632 54.6559 38.2603 53.8529 38.2603 52.8625C38.2603 51.8721 39.0633 51.0692 40.0536 51.0692H45.5997C46.5901 51.0692 47.393 51.8722 47.393 52.8625C47.393 53.8529 46.59 54.6559 45.5997 54.6559Z" fill="white"/>
<path d="M43.8944 25.4316C43.8944 24.8869 43.8619 24.3497 43.8005 23.8212C40.0798 25.9873 34.8092 26.848 30.0514 26.848H30.0297C25.253 26.848 19.9363 25.9752 16.2054 23.773C16.1394 24.3235 16.1062 24.8773 16.1061 25.4317C16.1061 29.5419 17.9008 33.2405 20.7469 35.7865C19.7526 35.8569 18.7659 36.0106 17.7972 36.2461L21.1011 42.8616L26.0279 38.7462C27.3168 39.1313 28.655 39.3266 30.0003 39.3258C31.4676 39.3268 32.9256 39.0945 34.3199 38.6376L39.2132 42.8317L42.4549 36.3082C41.4061 36.0372 40.3348 35.8624 39.2542 35.7862C42.1 33.2399 43.8944 29.5416 43.8944 25.4316ZM30.0534 15.3442H30.0279C23.5675 15.3442 17.5195 17.0305 15.2538 17.7428C16.6171 21.3719 23.3597 23.2614 30.0297 23.2614H30.0514C36.7669 23.2614 43.5557 21.3457 44.854 17.6679C42.3127 16.9146 36.269 15.3442 30.0534 15.3442ZM50.7516 7.39749C50.6696 7.11601 50.5198 6.85894 50.3153 6.6488C50.1109 6.43865 49.858 6.28184 49.5789 6.1921L30.5896 0.0860439C30.2326 -0.0286813 29.8486 -0.0286813 29.4916 0.0860439L10.5022 6.1921C10.2231 6.28186 9.97022 6.43868 9.76578 6.64882C9.56134 6.85896 9.41153 7.11602 9.32948 7.39749C9.24743 7.67895 9.23563 7.97624 9.29512 8.26332C9.35461 8.55041 9.48358 8.81853 9.67072 9.04421L14.0728 14.3521C16.4797 13.5842 22.9492 11.7575 30.0279 11.7575H30.0534C36.937 11.7575 43.4326 13.4849 46.0656 14.283L50.4102 9.04421C50.5974 8.81855 50.7264 8.55044 50.7859 8.26335C50.8455 7.97626 50.8337 7.67896 50.7516 7.39749Z" fill="white"/>
</svg>
