<svg width="82" height="60" viewBox="0 0 82 60" fill="none" xmlns="http://www.w3.org/2000/svg">
<path d="M77 20H27C26.337 20 25.7011 20.2634 25.2322 20.7322C24.7634 21.2011 24.5 21.837 24.5 22.5V50C24.5013 51.3257 25.0285 52.5967 25.9659 53.5341C26.9033 54.4715 28.1743 54.9987 29.5 55H74.5C75.8255 54.998 77.0961 54.4706 78.0333 53.5333C78.9706 52.5961 79.498 51.3255 79.5 50V22.5C79.5 21.837 79.2366 21.2011 78.7678 20.7322C78.2989 20.2634 77.663 20 77 20ZM63.7675 32.6L50.435 45.935C50.2028 46.1674 49.9271 46.3518 49.6236 46.4777C49.3201 46.6035 48.9948 46.6682 48.6663 46.6682C48.3377 46.6682 48.0124 46.6035 47.7089 46.4777C47.4054 46.3518 47.1297 46.1674 46.8975 45.935L40.2325 39.2675C39.7771 38.796 39.5251 38.1645 39.5308 37.509C39.5365 36.8535 39.7994 36.2265 40.263 35.763C40.7265 35.2994 41.3535 35.0365 42.009 35.0308C42.6645 35.0251 43.296 35.2771 43.7675 35.7325L48.6675 40.6325L60.2325 29.065C60.704 28.6096 61.3355 28.3576 61.991 28.3633C62.6465 28.369 63.2735 28.6319 63.737 29.0955C64.2006 29.559 64.4635 30.186 64.4692 30.8415C64.4749 31.497 64.2229 32.1285 63.7675 32.6Z" fill="white"/>
<path d="M77 25H27C26.337 25 25.7011 24.7366 25.2322 24.2678C24.7634 23.7989 24.5 23.163 24.5 22.5V12.5C24.5013 11.1743 25.0285 9.90332 25.9659 8.96593C26.9033 8.02853 28.1743 7.50132 29.5 7.5H74.5C75.8255 7.50198 77.0961 8.0294 78.0333 8.96666C78.9706 9.90391 79.498 11.1745 79.5 12.5V22.5C79.5 23.163 79.2366 23.7989 78.7678 24.2678C78.2989 24.7366 77.663 25 77 25ZM29.5 20H74.5V12.5H29.5V20Z" fill="white"/>
<rect x="33" y="28" width="39" height="20" fill="white"/>
<path d="M57.4175 17.5C56.7545 17.5 56.1186 17.2366 55.6497 16.7678C55.1809 16.2989 54.9175 15.663 54.9175 15V7.5C54.9175 6.83696 55.1809 6.20107 55.6497 5.73223C56.1186 5.26339 56.7545 5 57.4175 5C58.0805 5 58.7164 5.26339 59.1853 5.73223C59.6541 6.20107 59.9175 6.83696 59.9175 7.5V15C59.9175 15.663 59.6541 16.2989 59.1853 16.7678C58.7164 17.2366 58.0805 17.5 57.4175 17.5ZM46.585 17.5C45.922 17.5 45.2861 17.2366 44.8172 16.7678C44.3484 16.2989 44.085 15.663 44.085 15V7.5C44.085 6.83696 44.3484 6.20107 44.8172 5.73223C45.2861 5.26339 45.922 5 46.585 5C47.248 5 47.8839 5.26339 48.3528 5.73223C48.8216 6.20107 49.085 6.83696 49.085 7.5V15C49.085 15.663 48.8216 16.2989 48.3528 16.7678C47.8839 17.2366 47.248 17.5 46.585 17.5ZM35.75 17.5C35.087 17.5 34.4511 17.2366 33.9822 16.7678C33.5134 16.2989 33.25 15.663 33.25 15V7.5C33.25 6.83696 33.5134 6.20107 33.9822 5.73223C34.4511 5.26339 35.087 5 35.75 5C36.413 5 37.0489 5.26339 37.5178 5.73223C37.9866 6.20107 38.25 6.83696 38.25 7.5V15C38.25 15.663 37.9866 16.2989 37.5178 16.7678C37.0489 17.2366 36.413 17.5 35.75 17.5ZM68.25 17.5C67.587 17.5 66.9511 17.2366 66.4822 16.7678C66.0134 16.2989 65.75 15.663 65.75 15V7.5C65.75 6.83696 66.0134 6.20107 66.4822 5.73223C66.9511 5.26339 67.587 5 68.25 5C68.913 5 69.5489 5.26339 70.0178 5.73223C70.4866 6.20107 70.75 6.83696 70.75 7.5V15C70.75 15.663 70.4866 16.2989 70.0178 16.7678C69.5489 17.2366 68.913 17.5 68.25 17.5Z" fill="white"/>
<path d="M47.75 27.45V45H44.175V31.075L40 34.4V30.8L44.175 27.45H47.75ZM58.9279 32.85C62.3279 32.85 64.7279 35.35 64.7279 38.925C64.7279 42.625 62.0529 45.225 58.2279 45.225C54.7029 45.225 51.9529 43.075 51.3029 40.15L54.3529 39.075C54.9529 41.075 56.2779 42.425 58.1279 42.425C60.0279 42.425 61.1029 41 61.1029 38.975C61.1029 37.05 60.1279 35.65 58.1279 35.65C56.7029 35.65 55.6529 36.35 54.4779 37.575L52.0029 36.675L53.5779 27.45H63.8529V30.225H56.5779L55.8029 33.875C56.6779 33.25 57.5779 32.85 58.9279 32.85Z" fill="#1D1F38"/>
<line x1="17.5" y1="28.5" x2="10.5" y2="28.5" stroke="white" stroke-width="3" stroke-linecap="round"/>
<line x1="17.5" y1="35.5" x2="6.5" y2="35.5" stroke="white" stroke-width="3" stroke-linecap="round"/>
<line x1="17.5" y1="42.5" x2="1.5" y2="42.5" stroke="white" stroke-width="3" stroke-linecap="round"/>
</svg>
