<svg width="300" height="192" viewBox="0 0 300 192" fill="none" xmlns="http://www.w3.org/2000/svg">
<path d="M300 192V0L0.5 192H300Z" fill="#1D1F38"/>
<path d="M169.278 111.223C169.111 111.278 169 114.284 169 119.716V128.098H170.86H172.693L172.554 122.5C172.47 119.44 172.498 117.179 172.609 117.482C172.748 117.785 173.498 119.826 174.303 122.032C175.108 124.237 175.885 126.195 176.024 126.361C176.163 126.554 176.69 126.719 177.218 126.719C178.245 126.719 177.968 127.215 180.55 120.129C181.271 118.144 181.91 116.572 181.966 116.627C182.021 116.655 181.91 118.254 181.743 120.102C181.577 121.976 181.521 124.541 181.632 125.809L181.827 128.098H183.465H185.103V119.716C185.103 112.326 185.047 111.306 184.659 111.168C183.881 110.865 181.299 111.003 180.994 111.333C180.855 111.526 180.022 113.732 179.134 116.241C178.273 118.75 177.468 121.039 177.357 121.315C177.218 121.701 176.663 120.405 175.386 116.793C174.386 114.008 173.442 111.582 173.22 111.389C172.915 111.058 170.138 110.947 169.278 111.223Z" fill="white"/>
<path d="M188.352 111.168C188.241 111.278 188.157 115.138 188.157 119.743V128.098H193.571H198.985V126.581V125.065H195.515H192.016L192.1 123.052L192.183 121.067L195.043 120.984L197.874 120.901V119.412V117.896H194.959H192.044V116.103V114.339L195.459 114.256L198.846 114.173V112.657V111.14L193.682 111.058C190.85 111.03 188.463 111.085 188.352 111.168Z" fill="white"/>
<path d="M201.623 111.251C201.54 111.306 201.484 115.138 201.484 119.743V128.098H203.428H205.371V119.716V111.333L204.594 111.14C203.761 110.975 201.818 111.03 201.623 111.251Z" fill="white"/>
<path d="M208.786 111.168C208.508 111.278 208.425 113.263 208.425 119.716V128.098H213.7H218.975V126.581V125.092L215.727 125.01L212.451 124.927L212.312 118.034L212.173 111.14L210.646 111.085C209.813 111.058 208.952 111.113 208.786 111.168Z" fill="white"/>
<path d="M221.085 111.223C221.001 111.306 220.918 115.138 220.918 119.743V128.098H226.193H231.468V126.581V125.092L228.22 125.01L224.944 124.927L224.805 118.034L224.666 111.14L222.945 111.113C222.001 111.085 221.168 111.14 221.085 111.223Z" fill="white"/>
<path d="M233.828 111.168C233.661 111.251 233.578 114.256 233.633 119.688L233.717 128.098H239.103H244.517V126.581V125.092L240.991 125.01L237.437 124.927V122.997V121.067L240.297 120.984L243.128 120.901V119.412V117.923L240.297 117.841L237.437 117.758V116.103V114.449L240.852 114.366L244.239 114.284V112.822C244.239 111.857 244.1 111.278 243.878 111.196C243.462 111.03 234.244 111.03 233.828 111.168Z" fill="white"/>
<path d="M247.099 111.169C246.655 111.362 246.599 119.937 247.016 122.556C247.682 126.637 249.681 128.374 253.623 128.374C255.595 128.374 257.26 127.878 258.232 127.051C258.51 126.775 259.065 125.948 259.481 125.203C260.203 123.825 260.203 123.797 260.203 117.483V111.141H258.537H256.872L256.733 117.069C256.594 123.052 256.538 123.328 255.539 124.431C254.706 125.341 252.624 125.313 251.763 124.404C250.819 123.411 250.653 122.115 250.625 116.435C250.625 113.595 250.597 111.279 250.569 111.251C249.931 111.141 247.349 111.058 247.099 111.169Z" fill="white"/>
<path d="M263.589 111.196C263.478 111.278 263.395 115.138 263.395 119.743V128.098H265.338H267.281V125.065V122.032H268.336H269.364L271.002 125.065L272.64 128.098H274.694C275.805 128.098 276.721 128.015 276.721 127.877C276.721 127.767 275.916 126.305 274.944 124.623L273.195 121.563L274.361 120.488C276.999 118.006 276.61 113.567 273.611 112.05C273.056 111.747 271.807 111.416 270.835 111.278C268.808 110.975 263.839 110.92 263.589 111.196ZM271.89 115.001C272.307 115.552 272.418 116.986 272.112 117.758C271.835 118.475 270.474 118.999 268.808 118.999H267.281V116.683C267.281 114.008 267.226 114.063 269.891 114.311C271.029 114.422 271.613 114.642 271.89 115.001Z" fill="white"/>
<path d="M169.277 131.241C169.277 131.407 170.443 135.322 171.859 139.954L174.414 148.364L176.829 148.447L179.244 148.529L179.994 146.103C182.965 136.452 184.464 131.241 184.353 131.048C184.297 130.938 183.409 130.883 182.382 130.91L180.522 130.993L179.078 136.645C178.3 139.761 177.495 142.849 177.329 143.511C177.162 144.173 176.968 144.669 176.912 144.586C176.857 144.531 176.052 141.526 175.108 137.886C174.164 134.247 173.248 131.186 173.081 131.076C172.581 130.745 169.277 130.883 169.277 131.241Z" fill="white"/>
<path d="M185.269 131.269C185.185 131.49 185.13 135.432 185.102 140.065L185.074 148.502H190.793H196.485V146.848V145.193H192.876H189.239L189.322 143.18L189.405 141.195L192.404 141.112L195.402 141.03L195.319 139.458L195.236 137.886L192.265 137.804L189.267 137.721V135.956V134.164H192.737H196.207V132.675C196.207 131.545 196.096 131.159 195.735 131.021C195.486 130.911 193.07 130.855 190.349 130.855C186.49 130.883 185.38 130.993 185.269 131.269Z" fill="white"/>
<path d="M199.178 131.048C199.067 131.131 198.983 135.102 198.983 139.872V148.502H200.982H202.954L202.759 143.18C202.676 140.285 202.509 137.445 202.426 136.921C202.343 136.232 202.815 136.977 204.064 139.403C205.008 141.305 206.48 144.118 207.285 145.662L208.756 148.502H210.811H212.865V139.844C212.865 133.171 212.782 131.159 212.532 131.048C212.338 130.993 211.477 130.938 210.644 130.966L209.117 130.993L209.034 133.751C208.978 135.267 209.089 137.997 209.256 139.789C209.561 143.153 209.478 143.897 208.978 142.601C208.34 140.947 203.703 131.958 203.092 131.186C202.787 130.828 199.511 130.717 199.178 131.048Z" fill="white"/>
<path d="M216.114 131.048C216.003 131.131 215.92 135.129 215.92 139.899V148.557L220.029 148.446C224.61 148.336 225.804 148.005 227.553 146.268C229.246 144.586 229.663 143.29 229.663 139.678C229.635 136.921 229.552 136.342 228.997 135.184C228.164 133.502 226.47 132.068 224.665 131.517C223.249 131.103 216.42 130.717 216.114 131.048ZM223.333 134.688C224.999 135.46 225.637 136.811 225.637 139.623C225.637 142.022 225.221 143.318 224.193 144.283C223.527 144.889 221.834 145.468 220.723 145.468H220.084V139.816V134.164H221.139C221.695 134.164 222.694 134.412 223.333 134.688Z" fill="white"/>
<path d="M232.662 131.048C232.384 131.159 232.301 133.171 232.301 139.844V148.502H237.853H243.406V146.848V145.193H239.797H236.16L236.243 143.18L236.326 141.195L239.186 141.112L242.018 141.03V139.375V137.693L241.13 137.749C240.63 137.776 239.297 137.804 238.214 137.776L236.188 137.749V135.956V134.164H239.658H243.129V132.675C243.129 131.545 243.017 131.159 242.657 131.021C242.157 130.828 233.189 130.855 232.662 131.048Z" fill="white"/>
<path d="M246.017 131.241C245.934 131.462 245.906 134.357 245.962 137.666C246.045 142.491 246.184 143.925 246.572 144.917C247.572 147.564 249.543 148.75 252.875 148.777C254.679 148.777 255.235 148.667 256.484 148.005C257.733 147.344 258.122 146.985 258.816 145.606L259.649 144.007L259.732 137.39L259.815 130.8L258.066 130.91L256.317 130.993L256.178 136.921C256.067 141.857 255.956 143.015 255.54 143.842C254.485 145.965 251.459 146.048 250.293 144.007C250.043 143.594 249.876 141.415 249.793 137.197L249.654 130.993L247.905 130.91C246.572 130.855 246.128 130.91 246.017 131.241Z" fill="white"/>
<path d="M262.979 131.159C262.896 131.379 262.868 135.322 262.896 139.954L262.979 148.364H264.923H266.866L266.95 145.248L267.033 142.16H268.088H269.143L270.781 145.331L272.419 148.502H274.585C275.751 148.502 276.722 148.419 276.722 148.337C276.722 148.254 275.917 146.737 274.918 145C273.918 143.263 273.113 141.747 273.113 141.664C273.113 141.554 273.474 141.223 273.918 140.919C276.472 139.237 276.833 134.826 274.64 132.703C273.28 131.407 272.141 131.131 267.366 130.938C263.868 130.8 263.118 130.855 262.979 131.159ZM271.17 134.578C272.808 135.432 272.419 138.19 270.587 138.824C270.087 138.989 269.087 139.127 268.366 139.127H267.005V136.646V134.164H268.671C269.643 134.164 270.725 134.357 271.17 134.578Z" fill="white"/>
<path d="M214.921 152.059C210.728 153.934 209.368 160.22 212.116 164.797C213.394 166.893 215.309 167.913 218.002 167.913C222 167.913 224.443 165.569 225.082 161.213C225.693 156.967 223.999 153.272 220.862 151.976C219.418 151.369 216.364 151.425 214.921 152.059ZM219.807 155.119C220.834 155.864 221.473 157.518 221.473 159.586C221.473 162.978 220.307 164.77 218.03 164.77C217.391 164.77 216.586 164.577 216.225 164.329C213.921 162.729 213.949 156.608 216.253 155.009C217.114 154.402 218.863 154.458 219.807 155.119Z" fill="white"/>
<path d="M237.576 152.114C234.855 153.327 233.411 155.505 233.189 158.648C233.078 160.386 233.134 160.744 233.606 161.268C234.494 162.233 234.8 163.005 234.8 164.301C234.8 165.376 234.938 165.652 235.716 166.314C238.214 168.409 241.963 168.547 244.572 166.617C245.516 165.928 245.544 165.762 244.628 164.577C243.823 163.501 243.601 163.474 242.657 164.218C242.157 164.604 241.518 164.77 240.602 164.77C238.187 164.77 236.743 162.867 236.743 159.696C236.771 155.671 239.658 153.382 242.546 155.147L243.517 155.726L244.295 154.816C245.183 153.713 245.239 153.437 244.572 152.831C243.073 151.48 239.769 151.121 237.576 152.114Z" fill="white"/>
<path d="M250.07 151.976C248.737 152.555 247.654 153.63 246.794 155.257C246.127 156.498 246.072 156.939 246.044 159.531C246.044 161.985 246.155 162.647 246.71 163.86C248.681 168.244 254.595 169.402 258.038 166.093C259.648 164.549 260.203 162.84 260.203 159.531C260.176 156.939 260.12 156.498 259.454 155.257C258.565 153.575 257.816 152.831 256.178 152.114C254.651 151.425 251.513 151.342 250.07 151.976ZM255.15 155.395C257.26 157.215 257.26 161.82 255.206 163.86C254.456 164.604 254.068 164.77 253.068 164.77C251.708 164.77 250.93 164.246 250.181 162.812C249.57 161.599 249.376 159.283 249.792 157.628C250.486 154.761 253.151 153.658 255.15 155.395Z" fill="white"/>
<path d="M171.693 159.614C170.36 163.887 169.277 167.472 169.277 167.582C169.277 167.72 170.027 167.803 170.943 167.803C172.803 167.803 172.887 167.748 173.442 165.376L173.775 163.915L176.302 163.998L178.828 164.08L179.272 165.873L179.716 167.665L181.604 167.748C183.326 167.83 183.492 167.775 183.381 167.334C183.298 167.058 182.187 163.446 180.91 159.338L178.578 151.811H176.357H174.136L171.693 159.614ZM177.134 157.794C177.551 159.448 177.884 160.854 177.884 160.965C177.884 161.24 174.913 161.24 174.719 160.965C174.552 160.717 175.996 154.844 176.218 154.844C176.302 154.844 176.718 156.167 177.134 157.794Z" fill="white"/>
<path d="M184.049 157.656C184.132 163.336 184.16 163.584 184.854 164.908C185.353 165.9 185.936 166.535 186.908 167.114C188.074 167.831 188.491 167.941 190.351 167.913C192.627 167.913 193.599 167.555 194.876 166.286C196.264 164.908 196.57 163.502 196.709 157.38L196.82 151.811H194.987H193.155V157.05C193.155 163.97 192.766 164.908 190.045 164.715C189.185 164.66 188.768 164.439 188.324 163.86C187.797 163.143 187.741 162.674 187.658 157.436L187.575 151.811H185.77H183.938L184.049 157.656Z" fill="white"/>
<path d="M198.152 153.189C198.152 154.733 198.041 154.678 200.734 154.595L202.594 154.512V161.185V167.83L204.343 167.747L206.065 167.665L206.203 161.185L206.342 154.705H208.424L210.507 154.678L210.59 153.244L210.673 151.81H204.427H198.152V153.189Z" fill="white"/>
<path d="M262.063 159.724L262.147 167.665H263.674H265.201L265.173 163.529C265.173 161.24 265.09 158.759 265.006 158.014C264.784 156.387 264.923 156.663 266.311 160.496C268.338 166.093 268.449 166.286 269.504 166.286H270.448L271.67 162.977C272.336 161.157 273.113 159.034 273.391 158.29L273.891 156.911L273.835 162.288L273.807 167.665L275.418 167.747L277 167.83V159.806V151.81H274.973H272.974L271.309 156.636C270.42 159.283 269.587 161.461 269.476 161.461C269.365 161.461 269.199 161.13 269.115 160.689C269.004 160.275 268.282 158.124 267.477 155.891L266.034 151.81H264.007H262.008L262.063 159.724Z" fill="white"/>
<path d="M229.024 161.324C227.692 161.903 226.831 163.888 227.275 165.349C228.08 168.024 231.079 168.741 232.939 166.7C234.355 165.129 233.772 162.234 231.856 161.324C230.773 160.827 230.218 160.827 229.024 161.324Z" fill="#095096"/>
</svg>
