<svg width="13" height="13" viewBox="0 0 13 13" fill="none" xmlns="http://www.w3.org/2000/svg">
<path d="M1.14258 6.11914H4.97656C5.60661 6.11914 6.11914 5.60661 6.11914 4.97656V1.14258C6.11914 0.512535 5.60661 0 4.97656 0H1.14258C0.512535 0 0 0.512535 0 1.14258V4.97656C0 5.60661 0.512535 6.11914 1.14258 6.11914ZM1.92969 2.69141H2.69141V1.92969C2.69141 1.71917 2.86175 1.54883 3.07227 1.54883C3.28278 1.54883 3.45312 1.71917 3.45312 1.92969V2.69141H4.21484C4.42536 2.69141 4.5957 2.86175 4.5957 3.07227C4.5957 3.28278 4.42536 3.45312 4.21484 3.45312H3.45312V4.21484C3.45312 4.42536 3.28278 4.5957 3.07227 4.5957C2.86175 4.5957 2.69141 4.42536 2.69141 4.21484V3.45312H1.92969C1.71917 3.45312 1.54883 3.28278 1.54883 3.07227C1.54883 2.86175 1.71917 2.69141 1.92969 2.69141ZM11.8574 0H8.02344C7.39339 0 6.88086 0.512535 6.88086 1.14258V4.97656C6.88086 5.60661 7.39339 6.11914 8.02344 6.11914H11.8574C12.4875 6.11914 13 5.60661 13 4.97656V1.14258C13 0.512535 12.4875 0 11.8574 0ZM11.0957 3.45312H8.78516C8.57464 3.45312 8.4043 3.28278 8.4043 3.07227C8.4043 2.86175 8.57464 2.69141 8.78516 2.69141H11.0957C11.3062 2.69141 11.4766 2.86175 11.4766 3.07227C11.4766 3.28278 11.3062 3.45312 11.0957 3.45312ZM11.8574 6.88086H8.02344C7.39339 6.88086 6.88086 7.39339 6.88086 8.02344V11.8574C6.88086 12.4875 7.39339 13 8.02344 13H11.8574C12.4875 13 13 12.4875 13 11.8574V8.02344C13 7.39339 12.4875 6.88086 11.8574 6.88086ZM11.0957 11.0703H8.78516C8.57464 11.0703 8.4043 10.9 8.4043 10.6895C8.4043 10.4789 8.57464 10.3086 8.78516 10.3086H11.0957C11.3062 10.3086 11.4766 10.4789 11.4766 10.6895C11.4766 10.9 11.3062 11.0703 11.0957 11.0703ZM11.0957 9.54688H8.78516C8.57464 9.54688 8.4043 9.37653 8.4043 9.16602C8.4043 8.9555 8.57464 8.78516 8.78516 8.78516H11.0957C11.3062 8.78516 11.4766 8.9555 11.4766 9.16602C11.4766 9.37653 11.3062 9.54688 11.0957 9.54688ZM6.11914 11.8574V8.02344C6.11914 7.39339 5.60661 6.88086 4.97656 6.88086H1.14258C0.512535 6.88086 0 7.39339 0 8.02344V11.8574C0 12.4875 0.512535 13 1.14258 13H4.97656C5.60661 13 6.11914 12.4875 6.11914 11.8574ZM4.14939 10.4663C4.29815 10.6151 4.29815 10.8561 4.14939 11.0049C4.00062 11.1536 3.75959 11.1536 3.61083 11.0049L3.07227 10.4663L2.53371 11.0049C2.38494 11.1536 2.14391 11.1536 1.99514 11.0049C1.84638 10.8561 1.84638 10.6151 1.99514 10.4663L2.53371 9.92773L1.99514 9.38917C1.84638 9.24041 1.84638 8.99938 1.99514 8.85061C2.14391 8.70185 2.38494 8.70185 2.53371 8.85061L3.07227 9.38917L3.61083 8.85061C3.75959 8.70185 4.00062 8.70185 4.14939 8.85061C4.29815 8.99938 4.29815 9.24041 4.14939 9.38917L3.61083 9.92773L4.14939 10.4663Z" fill="white"/>
</svg>
