<svg width="49" height="49" viewBox="0 0 49 49" fill="none" xmlns="http://www.w3.org/2000/svg">
<path d="M45.4181 25.1221C45.4181 23.5553 45.2775 22.0488 45.0163 20.6025H24.2061V29.1597H36.0976C35.5754 31.9116 34.0086 34.2417 31.6584 35.8085V41.3726H38.8295C43.0076 37.5159 45.4181 31.8513 45.4181 25.1221Z" fill="#4285F4"/>
<path d="M24.206 46.7164C30.1719 46.7164 35.1736 44.7479 38.8295 41.3732L31.6584 35.8091C29.6898 37.1349 27.1789 37.9383 24.206 37.9383C18.4611 37.9383 13.5799 34.0615 11.8324 28.8389H4.48047V34.5436C8.11624 41.7549 15.5686 46.7164 24.206 46.7164Z" fill="#34A853"/>
<path d="M11.8325 28.818C11.3906 27.4922 11.1295 26.0861 11.1295 24.6198C11.1295 23.1534 11.3906 21.7473 11.8325 20.4215V14.7168H4.48063C2.9741 17.6897 2.11035 21.0442 2.11035 24.6198C2.11035 28.1953 2.9741 31.5498 4.48063 34.5227L10.2055 30.0634L11.8325 28.818Z" fill="#FBBC05"/>
<path d="M24.206 11.3226C27.4602 11.3226 30.3527 12.4475 32.6627 14.6169L38.9902 8.28942C35.1535 4.71391 30.1719 2.52441 24.206 2.52441C15.5686 2.52441 8.11624 7.48594 4.48047 14.7173L11.8324 20.4221C13.5799 15.1994 18.4611 11.3226 24.206 11.3226Z" fill="#EA4335"/>
</svg>
