<svg width="23" height="23" viewBox="0 0 23 23" fill="none" xmlns="http://www.w3.org/2000/svg">
<path d="M11.0172 1.98797C11.3009 1.41713 12.1152 1.41713 12.3988 1.98797L14.7152 6.64999C14.8275 6.87605 15.0433 7.03284 15.293 7.06981L20.4426 7.83214C21.0732 7.92548 21.3248 8.69994 20.8695 9.14608L17.1515 12.7897C16.9712 12.9664 16.8888 13.2201 16.9308 13.469L17.7971 18.6021C17.9032 19.2307 17.2444 19.7093 16.6794 19.4142L12.0651 17.0041C11.8414 16.8872 11.5746 16.8872 11.3509 17.0041L6.73668 19.4142C6.17169 19.7093 5.5129 19.2307 5.61897 18.6021L6.48528 13.469C6.52729 13.2201 6.44486 12.9664 6.26457 12.7897L2.54651 9.14608C2.09126 8.69994 2.34289 7.92548 2.97344 7.83214L8.12308 7.06981C8.37278 7.03284 8.58859 6.87605 8.7009 6.64999L11.0172 1.98797Z" fill="#FEA500"/>
</svg>
