<svg width="13" height="14" viewBox="0 0 13 14" fill="none" xmlns="http://www.w3.org/2000/svg">
<path d="M1.14258 6.61914H4.97656C5.60661 6.61914 6.11914 6.10661 6.11914 5.47656V1.64258C6.11914 1.01254 5.60661 0.5 4.97656 0.5H1.14258C0.512535 0.5 0 1.01254 0 1.64258V5.47656C0 6.10661 0.512535 6.61914 1.14258 6.61914ZM1.92969 3.19141H2.69141V2.42969C2.69141 2.21917 2.86175 2.04883 3.07227 2.04883C3.28278 2.04883 3.45312 2.21917 3.45312 2.42969V3.19141H4.21484C4.42536 3.19141 4.5957 3.36175 4.5957 3.57227C4.5957 3.78278 4.42536 3.95312 4.21484 3.95312H3.45312V4.71484C3.45312 4.92536 3.28278 5.0957 3.07227 5.0957C2.86175 5.0957 2.69141 4.92536 2.69141 4.71484V3.95312H1.92969C1.71917 3.95312 1.54883 3.78278 1.54883 3.57227C1.54883 3.36175 1.71917 3.19141 1.92969 3.19141ZM11.8574 0.5H8.02344C7.39339 0.5 6.88086 1.01254 6.88086 1.64258V5.47656C6.88086 6.10661 7.39339 6.61914 8.02344 6.61914H11.8574C12.4875 6.61914 13 6.10661 13 5.47656V1.64258C13 1.01254 12.4875 0.5 11.8574 0.5ZM11.0957 3.95312H8.78516C8.57464 3.95312 8.4043 3.78278 8.4043 3.57227C8.4043 3.36175 8.57464 3.19141 8.78516 3.19141H11.0957C11.3062 3.19141 11.4766 3.36175 11.4766 3.57227C11.4766 3.78278 11.3062 3.95312 11.0957 3.95312ZM11.8574 7.38086H8.02344C7.39339 7.38086 6.88086 7.89339 6.88086 8.52344V12.3574C6.88086 12.9875 7.39339 13.5 8.02344 13.5H11.8574C12.4875 13.5 13 12.9875 13 12.3574V8.52344C13 7.89339 12.4875 7.38086 11.8574 7.38086ZM11.0957 11.5703H8.78516C8.57464 11.5703 8.4043 11.4 8.4043 11.1895C8.4043 10.9789 8.57464 10.8086 8.78516 10.8086H11.0957C11.3062 10.8086 11.4766 10.9789 11.4766 11.1895C11.4766 11.4 11.3062 11.5703 11.0957 11.5703ZM11.0957 10.0469H8.78516C8.57464 10.0469 8.4043 9.87653 8.4043 9.66602C8.4043 9.4555 8.57464 9.28516 8.78516 9.28516H11.0957C11.3062 9.28516 11.4766 9.4555 11.4766 9.66602C11.4766 9.87653 11.3062 10.0469 11.0957 10.0469ZM6.11914 12.3574V8.52344C6.11914 7.89339 5.60661 7.38086 4.97656 7.38086H1.14258C0.512535 7.38086 0 7.89339 0 8.52344V12.3574C0 12.9875 0.512535 13.5 1.14258 13.5H4.97656C5.60661 13.5 6.11914 12.9875 6.11914 12.3574ZM4.14939 10.9663C4.29815 11.1151 4.29815 11.3561 4.14939 11.5049C4.00062 11.6536 3.75959 11.6536 3.61083 11.5049L3.07227 10.9663L2.53371 11.5049C2.38494 11.6536 2.14391 11.6536 1.99514 11.5049C1.84638 11.3561 1.84638 11.1151 1.99514 10.9663L2.53371 10.4277L1.99514 9.88917C1.84638 9.74041 1.84638 9.49938 1.99514 9.35061C2.14391 9.20185 2.38494 9.20185 2.53371 9.35061L3.07227 9.88917L3.61083 9.35061C3.75959 9.20185 4.00062 9.20185 4.14939 9.35061C4.29815 9.49938 4.29815 9.74041 4.14939 9.88917L3.61083 10.4277L4.14939 10.9663Z" fill="#185AAA"/>
</svg>
