<svg width="12" height="12" viewBox="0 0 12 12" fill="none" xmlns="http://www.w3.org/2000/svg">
<g opacity="0.7" clip-path="url(#clip0_437_2170)">
<path d="M1.13754 11.9249C0.843349 11.942 0.554009 11.8442 0.330533 11.6521C-0.110178 11.2088 -0.110178 10.4927 0.330533 10.0494L9.98066 0.399244C10.439 -0.0296761 11.1583 -0.00583272 11.5872 0.452546C11.9751 0.867055 11.9977 1.50417 11.6402 1.9451L1.93317 11.6521C1.7126 11.8414 1.42788 11.939 1.13754 11.9249Z" fill="white"/>
<path d="M10.7768 11.9249C10.4786 11.9236 10.1928 11.8053 9.98109 11.5953L0.33093 1.94509C-0.0773661 1.4683 -0.0218561 0.750745 0.454938 0.342412C0.88049 -0.0220149 1.50809 -0.0220149 1.93361 0.342412L11.6406 9.99258C12.0989 10.4216 12.1226 11.1409 11.6935 11.5992C11.6765 11.6174 11.6588 11.635 11.6406 11.6521C11.523 11.7544 11.3856 11.8314 11.237 11.8783C11.0884 11.9252 10.9318 11.9411 10.7768 11.9249Z" fill="white"/>
</g>
<defs>
<clipPath id="clip0_437_2170">
<rect width="12" height="12" fill="white"/>
</clipPath>
</defs>
</svg>
