<svg width="36" height="36" viewBox="0 0 36 36" fill="none" xmlns="http://www.w3.org/2000/svg">
<path d="M8.69998 9.15002C7.49995 7.95 2.39998 7.65005 0.749953 7.5C0.599977 7.5 0.44993 7.5 0.299953 7.64998C0.149977 7.80002 0 8.10005 0 8.25002V21.75C0 22.2 0.300023 22.5 0.750023 22.5H5.25002C5.55005 22.5 5.85 22.3501 6.00005 22.05C6.00005 21.6 8.70005 13.65 9.00007 9.75007C9 9.60002 9 9.30007 8.69998 9.15002ZM24.75 12.75C23.25 12.3 21.9 11.7 20.7 11.25C18 10.05 16.8 10.6501 14.4 13.05C13.35 14.1 12.6 15.6001 12.75 16.2C12.75 16.35 12.75 16.35 13.05 16.5001C13.8 16.8001 14.85 16.9501 15.9 15.3C16.05 15.1501 16.2 15 16.5 15C16.95 15 17.0999 14.85 17.5499 14.7C17.85 14.55 18.1499 14.4 18.5999 14.25H18.8999C19.0499 14.25 19.3499 14.4 19.4999 14.4C20.25 15.1501 21.6 16.2 22.95 17.4001C25.05 19.0501 27.15 20.8501 28.2 22.2001H28.35C27.3 19.2001 25.5 14.1 24.75 12.75ZM35.25 9.00005C29.4 9.00005 26.1 10.5 25.95 10.5L25.5 10.95C25.5 11.1 25.5 11.4 25.6499 11.55C26.5499 13.05 29.55 21.3 30 23.4C30.1499 23.7 30.45 24 30.75 24H35.25C35.7 24 36 23.6999 36 23.2499V9.74993C36 9.30007 35.7 9.00005 35.25 9.00005Z" fill="#1D1F38"/>
<path d="M27.1497 23.7C26.5498 22.35 23.9997 20.4 21.7497 18.6C20.5498 17.55 19.3498 16.65 18.4498 15.9C18.2998 16.0499 17.9998 16.0499 17.9998 16.2C17.5498 16.35 17.3998 16.5 16.7997 16.5C15.5998 18 14.0997 18.6 12.4498 18C11.6998 17.85 11.2498 17.25 11.0998 16.65C10.7998 15.15 12.1498 13.05 13.1998 12H10.1998C9.5998 15 8.54976 18.9 7.7998 21C8.39978 21.6 8.99983 22.35 9.44983 22.65C12.2998 25.05 15.5999 27.45 16.1998 27.9C16.6498 28.2001 17.5498 28.5 17.9998 28.5H18.4498L16.0498 26.1C15.7498 25.8 15.7498 25.35 16.0498 25.05C16.3498 24.75 16.7998 24.75 17.0998 25.05L20.0998 28.05C20.3998 28.35 20.6998 28.2 20.9998 28.2C21.4498 28.05 21.5998 27.75 21.7498 27.3L18.2998 23.85C17.9998 23.55 17.9998 23.1 18.2998 22.8C18.5998 22.5 19.0498 22.5 19.3498 22.8L23.0997 26.55C23.2497 26.7 23.8498 26.7 24.2998 26.55C24.4497 26.4 24.7498 26.25 24.8997 25.95L20.6998 21.75C20.3997 21.4499 20.3997 20.9999 20.6998 20.7C20.9998 20.4 21.4498 20.4 21.7497 20.7L26.0998 25.05C26.3998 25.2 26.6997 25.05 26.9998 24.9C27.1497 24.75 27.4498 24.3 27.1497 23.7Z" fill="#1D1F38"/>
</svg>
