<svg width="28" height="28" viewBox="0 0 28 28" fill="none" xmlns="http://www.w3.org/2000/svg">
<circle cx="14" cy="14" r="14" fill="#F7F7FA"/>
<path d="M8.95996 13.44C8.65068 13.44 8.39996 13.6907 8.39996 14C8.39996 14.3093 8.65068 14.56 8.95996 14.56L8.95996 13.44ZM19.4359 14.396C19.6546 14.1773 19.6546 13.8227 19.4359 13.604L15.8721 10.0402C15.6534 9.82151 15.2989 9.82151 15.0802 10.0402C14.8615 10.2589 14.8615 10.6135 15.0802 10.8322L18.248 14L15.0802 17.1678C14.8615 17.3865 14.8615 17.7411 15.0802 17.9598C15.2989 18.1785 15.6534 18.1785 15.8721 17.9598L19.4359 14.396ZM8.95996 14.56L19.04 14.56L19.04 13.44L8.95996 13.44L8.95996 14.56Z" fill="#1D1F38"/>
</svg>
