<svg width="30" height="30" viewBox="0 0 30 30" fill="none" xmlns="http://www.w3.org/2000/svg">
<path fill-rule="evenodd" clip-rule="evenodd" d="M14.4062 1.32126L5.65625 3.46001C5.11246 3.59296 4.62903 3.90458 4.2834 4.34495C3.93777 4.78532 3.74994 5.32895 3.75 5.88876V16.5163C3.74991 18.5784 4.32876 20.5992 5.42066 22.3485C6.51257 24.0979 8.07366 25.5055 9.92625 26.4113L14.4513 28.6238C14.6221 28.7073 14.8098 28.7507 15 28.7507C15.1902 28.7507 15.3779 28.7073 15.5487 28.6238L20.0737 26.4113C21.9263 25.5055 23.4874 24.0979 24.5793 22.3485C25.6712 20.5992 26.2501 18.5784 26.25 16.5163V5.88876C26.2501 5.32895 26.0622 4.78532 25.7166 4.34495C25.371 3.90458 24.8875 3.59296 24.3438 3.46001L15.5938 1.32251C15.2037 1.22713 14.7963 1.22588 14.4062 1.32126ZM20.8838 12.1338C21.1114 11.898 21.2374 11.5823 21.2346 11.2545C21.2317 10.9268 21.1003 10.6132 20.8685 10.3815C20.6368 10.1497 20.3232 10.0183 19.9955 10.0154C19.6678 10.0126 19.352 10.1386 19.1163 10.3663L13.75 15.7325L10.8837 12.8663C10.7684 12.7469 10.6305 12.6516 10.478 12.5861C10.3255 12.5206 10.1615 12.4861 9.9955 12.4847C9.82953 12.4833 9.66493 12.5149 9.51131 12.5777C9.35769 12.6406 9.21812 12.7334 9.10076 12.8508C8.98339 12.9681 8.89057 13.1077 8.82772 13.2613C8.76487 13.4149 8.73324 13.5795 8.73469 13.7455C8.73613 13.9115 8.77061 14.0755 8.83612 14.228C8.90163 14.3805 8.99686 14.5184 9.11625 14.6338L12.8663 18.3838C13.1007 18.6181 13.4185 18.7497 13.75 18.7497C14.0815 18.7497 14.3993 18.6181 14.6337 18.3838L20.8838 12.1338Z" fill="#1D1F38"/>
</svg>
