<svg width="32" height="32" viewBox="0 0 32 32" fill="none" xmlns="http://www.w3.org/2000/svg">
<g clip-path="url(#clip0_120_56)">
<path d="M2.8125 15.0625H12.25C13.8009 15.0625 15.0625 13.8009 15.0625 12.25V2.8125C15.0625 1.26163 13.8009 0 12.25 0H2.8125C1.26163 0 0 1.26163 0 2.8125V12.25C0 13.8009 1.26163 15.0625 2.8125 15.0625ZM4.75 6.625H6.625V4.75C6.625 4.23181 7.04431 3.8125 7.5625 3.8125C8.08069 3.8125 8.5 4.23181 8.5 4.75V6.625H10.375C10.8932 6.625 11.3125 7.04431 11.3125 7.5625C11.3125 8.08069 10.8932 8.5 10.375 8.5H8.5V10.375C8.5 10.8932 8.08069 11.3125 7.5625 11.3125C7.04431 11.3125 6.625 10.8932 6.625 10.375V8.5H4.75C4.23181 8.5 3.8125 8.08069 3.8125 7.5625C3.8125 7.04431 4.23181 6.625 4.75 6.625ZM29.1875 0H19.75C18.1991 0 16.9375 1.26163 16.9375 2.8125V12.25C16.9375 13.8009 18.1991 15.0625 19.75 15.0625H29.1875C30.7384 15.0625 32 13.8009 32 12.25V2.8125C32 1.26163 30.7384 0 29.1875 0ZM27.3125 8.5H21.625C21.1068 8.5 20.6875 8.08069 20.6875 7.5625C20.6875 7.04431 21.1068 6.625 21.625 6.625H27.3125C27.8307 6.625 28.25 7.04431 28.25 7.5625C28.25 8.08069 27.8307 8.5 27.3125 8.5ZM29.1875 16.9375H19.75C18.1991 16.9375 16.9375 18.1991 16.9375 19.75V29.1875C16.9375 30.7384 18.1991 32 19.75 32H29.1875C30.7384 32 32 30.7384 32 29.1875V19.75C32 18.1991 30.7384 16.9375 29.1875 16.9375ZM27.3125 27.25H21.625C21.1068 27.25 20.6875 26.8307 20.6875 26.3125C20.6875 25.7943 21.1068 25.375 21.625 25.375H27.3125C27.8307 25.375 28.25 25.7943 28.25 26.3125C28.25 26.8307 27.8307 27.25 27.3125 27.25ZM27.3125 23.5H21.625C21.1068 23.5 20.6875 23.0807 20.6875 22.5625C20.6875 22.0443 21.1068 21.625 21.625 21.625H27.3125C27.8307 21.625 28.25 22.0443 28.25 22.5625C28.25 23.0807 27.8307 23.5 27.3125 23.5ZM15.0625 29.1875V19.75C15.0625 18.1991 13.8009 16.9375 12.25 16.9375H2.8125C1.26163 16.9375 0 18.1991 0 19.75V29.1875C0 30.7384 1.26163 32 2.8125 32H12.25C13.8009 32 15.0625 30.7384 15.0625 29.1875ZM10.2139 25.7632C10.5801 26.1294 10.5801 26.7227 10.2139 27.0889C9.84769 27.4551 9.25437 27.4551 8.88819 27.0889L7.5625 25.7632L6.23681 27.0889C5.87063 27.4551 5.27731 27.4551 4.91113 27.0889C4.54494 26.7227 4.54494 26.1294 4.91113 25.7632L6.23681 24.4375L4.91113 23.1118C4.54494 22.7456 4.54494 22.1523 4.91113 21.7861C5.27731 21.4199 5.87063 21.4199 6.23681 21.7861L7.5625 23.1118L8.88819 21.7861C9.25437 21.4199 9.84769 21.4199 10.2139 21.7861C10.5801 22.1523 10.5801 22.7456 10.2139 23.1118L8.88819 24.4375L10.2139 25.7632Z" fill="#1D1F38"/>
</g>
<defs>
<clipPath id="clip0_120_56">
<rect width="32" height="32" fill="white"/>
</clipPath>
</defs>
</svg>
