<svg width="27" height="12" viewBox="0 0 27 12" fill="none" xmlns="http://www.w3.org/2000/svg">
<path d="M20.9285 0.428467C18.0268 0.428467 14.8928 3.23926 13.5 4.64697C12.1071 3.23926 8.97319 0.428467 6.07142 0.428467C2.58281 0.428467 0.5 2.51128 0.5 5.99989C0.5 9.48851 2.58281 11.5713 6.07142 11.5713C8.97319 11.5713 12.1071 8.76052 13.5 7.35281C14.8928 8.76052 18.0268 11.5713 20.9285 11.5713C24.4172 11.5713 26.4999 9.48851 26.4999 5.99989C26.4999 2.51128 24.4171 0.428467 20.9285 0.428467ZM6.07137 9.71419C3.60694 9.71419 2.35707 8.46432 2.35707 5.99989C2.35707 3.53546 3.60694 2.28559 6.07137 2.28559C8.11424 2.28559 10.8256 4.5875 12.2259 5.99989C10.8285 7.41413 8.12257 9.71419 6.07137 9.71419ZM20.9285 9.71419C18.8856 9.71419 16.1743 7.41228 14.7739 5.99989C16.1668 4.58663 18.8773 2.28559 20.9285 2.28559C23.393 2.28559 24.6428 3.53546 24.6428 5.99989C24.6428 8.46432 23.393 9.71419 20.9285 9.71419Z" fill="black"/>
</svg>
