<svg width="121" height="67" viewBox="0 0 121 67" fill="none" xmlns="http://www.w3.org/2000/svg">
<path d="M0 0H121V62.2143C121 64.8574 118.857 67 116.214 67H4.78572C2.14264 67 0 64.8574 0 62.2143V0Z" fill="#1D1F38"/>
<path d="M17.7347 11.3447C17.6021 11.3887 17.5137 13.7859 17.5137 18.1184V24.8042H18.9945H20.4531L20.3426 20.3397C20.2763 17.8985 20.2984 16.0951 20.3868 16.337C20.4973 16.579 21.0941 18.2064 21.735 19.9658C22.3759 21.7252 22.9948 23.2867 23.1053 23.4187C23.2158 23.5726 23.6357 23.7046 24.0556 23.7046C24.8734 23.7046 24.6524 24.1004 26.7078 18.4483C27.2824 16.8649 27.7907 15.6113 27.8349 15.6553C27.8791 15.6773 27.7907 16.9528 27.6581 18.4263C27.5255 19.9218 27.4813 21.9672 27.5697 22.9788L27.7244 24.8042H29.0284H30.3324V18.1184C30.3324 12.2244 30.2882 11.4107 29.9787 11.3007C29.3599 11.0588 27.3045 11.1688 27.0614 11.4327C26.9509 11.5866 26.2878 13.3461 25.5806 15.3474C24.8955 17.3487 24.2545 19.1741 24.1661 19.394C24.0556 19.7019 23.6136 18.6683 22.5969 15.7872C21.8013 13.566 21.0499 11.6306 20.8731 11.4767C20.6299 11.2128 18.4198 11.1248 17.7347 11.3447Z" fill="white"/>
<path d="M32.9184 11.3007C32.83 11.3887 32.7637 14.4677 32.7637 18.1404V24.8042H37.0734H41.3831V23.5946V22.385H38.6205H35.8357L35.902 20.7796L35.9683 19.1961L38.2448 19.1301L40.4991 19.0641V17.8765V16.6669H38.1785H35.8578V15.2374V13.8299L38.5763 13.7639L41.2726 13.6979V12.4883V11.2788L37.1618 11.2128C34.9075 11.1908 33.0068 11.2348 32.9184 11.3007Z" fill="white"/>
<path d="M43.4836 11.3667C43.4172 11.4107 43.373 14.4677 43.373 18.1404V24.8042H44.9201H46.4672V18.1184V11.4327L45.8484 11.2788C45.1853 11.1468 43.6383 11.1908 43.4836 11.3667Z" fill="white"/>
<path d="M49.1848 11.3007C48.9638 11.3887 48.8975 12.9722 48.8975 18.1184V24.8042H53.0967H57.2959V23.5946V22.407L54.7101 22.341L52.1021 22.2751L51.9916 16.7769L51.8811 11.2788L50.6656 11.2348C50.0025 11.2128 49.3174 11.2568 49.1848 11.3007Z" fill="white"/>
<path d="M58.9744 11.3447C58.9081 11.4107 58.8418 14.4677 58.8418 18.1404V24.8042H63.041H67.2402V23.5946V22.407L64.6544 22.341L62.0465 22.2751L61.936 16.7769L61.8255 11.2788L60.4552 11.2568C59.7037 11.2348 59.0407 11.2788 58.9744 11.3447Z" fill="white"/>
<path d="M69.1195 11.3007C68.9869 11.3667 68.9206 13.7639 68.9648 18.0965L69.0311 24.8042H73.3187H77.6285V23.5946V22.407L74.8216 22.341L71.9927 22.2751V20.7356V19.1961L74.2691 19.1301L76.5234 19.0641V17.8765V16.6889L74.2691 16.623L71.9927 16.557V15.2374V13.9179L74.7111 13.8519L77.4075 13.7859V12.6203C77.4075 11.8506 77.297 11.3887 77.1201 11.3227C76.7886 11.1908 69.451 11.1908 69.1195 11.3007Z" fill="white"/>
<path d="M79.6843 11.301C79.3307 11.455 79.2865 18.2947 79.618 20.384C80.1484 23.6389 81.7397 25.0244 84.8781 25.0244C86.4473 25.0244 87.7734 24.6285 88.5469 23.9688C88.7679 23.7488 89.2099 23.0891 89.5415 22.4953C90.1161 21.3956 90.1161 21.3736 90.1161 16.3373V11.279H88.79H87.4639L87.3534 16.0074C87.2429 20.7798 87.1987 20.9998 86.4031 21.8795C85.74 22.6052 84.0825 22.5832 83.3973 21.8575C82.6459 21.0657 82.5133 20.0321 82.4912 15.5016C82.4912 13.2364 82.4691 11.389 82.447 11.367C81.9386 11.279 79.8832 11.2131 79.6843 11.301Z" fill="white"/>
<path d="M92.811 11.3227C92.7226 11.3887 92.6562 14.4677 92.6562 18.1404V24.8042H94.2033H95.7504V22.385V19.9658H96.5903H97.408L98.712 22.385L100.016 24.8042H101.651C102.535 24.8042 103.265 24.7382 103.265 24.6283C103.265 24.5403 102.624 23.3747 101.85 22.0331L100.458 19.592L101.386 18.7342C103.486 16.7549 103.176 13.2141 100.789 12.0045C100.347 11.7626 99.3529 11.4987 98.5794 11.3887C96.966 11.1468 93.0099 11.1028 92.811 11.3227ZM99.4192 14.3577C99.7507 14.7976 99.8391 15.9412 99.596 16.557C99.375 17.1288 98.2921 17.5466 96.966 17.5466H95.7504V15.6993C95.7504 13.566 95.7062 13.61 97.8279 13.8079C98.7341 13.8959 99.1982 14.0718 99.4192 14.3577Z" fill="white"/>
<path d="M17.7334 27.3115C17.7334 27.4434 18.6616 30.5664 19.7888 34.2611L21.8221 40.9689L23.7449 41.0349L25.6677 41.1008L26.2645 39.1655C28.6293 31.4681 29.8227 27.3115 29.7343 27.1575C29.6901 27.0696 28.9829 27.0256 28.1652 27.0476L26.6844 27.1135L25.5351 31.622C24.9163 34.1072 24.2754 36.5704 24.1427 37.0982C24.0101 37.626 23.8554 38.0219 23.8112 37.9559C23.767 37.9119 23.1261 35.5147 22.3746 32.6117C21.6232 29.7087 20.8939 27.2675 20.7613 27.1795C20.3634 26.9156 17.7334 27.0256 17.7334 27.3115Z" fill="white"/>
<path d="M30.4643 27.3335C30.398 27.5094 30.3538 30.6544 30.3317 34.3491L30.3096 41.0789H34.8624H39.3932V39.7593V38.4397H36.52H33.6247L33.6911 36.8343L33.7574 35.2508L36.1443 35.1848L38.5312 35.1189L38.4649 33.8653L38.3986 32.6117L36.0338 32.5457L33.6468 32.4798V31.0722V29.6427H36.4095H39.1721V28.4551C39.1721 27.5534 39.0837 27.2455 38.7964 27.1356C38.5975 27.0476 36.6747 27.0036 34.5088 27.0036C31.4367 27.0256 30.5527 27.1136 30.4643 27.3335Z" fill="white"/>
<path d="M41.5365 27.1575C41.4481 27.2235 41.3818 30.3905 41.3818 34.1952V41.0789H42.9731H44.5423L44.3876 36.8343C44.3213 34.5251 44.1887 32.2598 44.1224 31.842C44.0561 31.2922 44.4318 31.886 45.4264 33.8213C46.1778 35.3388 47.3492 37.582 47.9901 38.8136L49.1615 41.0789H50.7969H52.4324V34.1732C52.4324 28.851 52.3661 27.2455 52.1672 27.1575C52.0125 27.1136 51.3274 27.0696 50.6643 27.0916L49.4488 27.1136L49.3825 29.3128C49.3383 30.5224 49.4267 32.6997 49.5593 34.1292C49.8024 36.8123 49.7361 37.4061 49.3383 36.3724C48.8299 35.0529 45.139 27.8833 44.6528 27.2675C44.4097 26.9816 41.8018 26.8936 41.5365 27.1575Z" fill="white"/>
<path d="M55.018 27.1577C54.9296 27.2237 54.8633 30.4127 54.8633 34.2174V41.123L58.1343 41.0351C61.781 40.9471 62.7313 40.6832 64.1237 39.2977C65.4719 37.9561 65.8034 36.9225 65.8034 34.0414C65.7813 31.8422 65.715 31.3803 65.2729 30.4566C64.6099 29.1151 63.2617 27.9715 61.8252 27.5316C60.698 27.2017 55.2611 26.8938 55.018 27.1577ZM60.7643 30.0608C62.0904 30.6766 62.5987 31.7542 62.5987 33.9974C62.5987 35.9108 62.2672 36.9445 61.4494 37.7142C60.919 38.198 59.5708 38.6599 58.6868 38.6599H58.1785V34.1514V29.6429H59.0183C59.4603 29.6429 60.256 29.8408 60.7643 30.0608Z" fill="white"/>
<path d="M68.1916 27.1575C67.9706 27.2455 67.9043 28.851 67.9043 34.1732V41.0789H72.3245H76.7448V39.7593V38.4397H73.8716H70.9764L71.0427 36.8343L71.109 35.2508L73.3854 35.1848L75.6397 35.1189V33.7993V32.4578L74.9325 32.5017C74.5347 32.5237 73.4738 32.5457 72.6119 32.5237L70.9985 32.5017V31.0722V29.6427H73.7611H76.5238V28.4551C76.5238 27.5534 76.4354 27.2455 76.148 27.1356C75.7502 26.9816 68.6115 27.0036 68.1916 27.1575Z" fill="white"/>
<path d="M78.8221 27.3115C78.7558 27.4875 78.7337 29.7967 78.7779 32.4358C78.8442 36.2845 78.9547 37.4281 79.2641 38.2199C80.0597 40.3312 81.6289 41.2768 84.2811 41.2988C85.7177 41.2988 86.1597 41.2109 87.1542 40.683C88.1488 40.1552 88.4582 39.8693 89.0107 38.7697L89.6738 37.4941L89.7401 32.2159L89.8064 26.9597L88.414 27.0476L87.0216 27.1136L86.9111 31.842C86.8227 35.7787 86.7343 36.7024 86.4028 37.3622C85.5629 39.0556 83.1539 39.1216 82.2257 37.4941C82.0268 37.1642 81.8941 35.4268 81.8278 32.0619L81.7173 27.1136L80.325 27.0476C79.2641 27.0036 78.9105 27.0476 78.8221 27.3115Z" fill="white"/>
<path d="M92.3256 27.2455C92.2593 27.4215 92.2372 30.5664 92.2593 34.2612L92.3256 40.9689H93.8727H95.4197L95.486 38.4837L95.5523 36.0206H96.3922H97.232L98.536 38.5497L99.84 41.0789H101.564C102.492 41.0789 103.266 41.0129 103.266 40.9469C103.266 40.8809 102.625 39.6713 101.829 38.2858C101.033 36.9003 100.393 35.6907 100.393 35.6247C100.393 35.5367 100.68 35.2728 101.033 35.0309C103.067 33.6893 103.354 30.1705 101.608 28.4771C100.525 27.4434 99.619 27.2235 95.8176 27.0696C93.0328 26.9596 92.4361 27.0036 92.3256 27.2455ZM98.8454 29.9726C100.149 30.6544 99.84 32.8536 98.3813 33.3595C97.9835 33.4914 97.1878 33.6014 96.6132 33.6014H95.5302V31.622V29.6427H96.8563C97.6299 29.6427 98.4918 29.7967 98.8454 29.9726Z" fill="white"/>
<path d="M54.0685 43.9158C50.7313 45.4113 49.6483 50.4256 51.8363 54.0764C52.853 55.7478 54.378 56.5615 56.5218 56.5615C59.7043 56.5615 61.6493 54.6922 62.1576 51.2173C62.6438 47.8305 61.2956 44.8835 58.7982 43.8498C57.6489 43.366 55.2178 43.41 54.0685 43.9158ZM57.9584 46.357C58.7761 46.9508 59.2844 48.2703 59.2844 49.9198C59.2844 52.6248 58.3562 54.0544 56.5439 54.0544C56.0356 54.0544 55.3946 53.9004 55.1073 53.7025C53.2729 52.4269 53.295 47.5446 55.1294 46.269C55.8145 45.7852 57.2069 45.8291 57.9584 46.357Z" fill="white"/>
<path d="M72.103 43.9599C69.937 44.9276 68.7878 46.665 68.611 49.1721C68.5226 50.5577 68.5668 50.8436 68.9425 51.2614C69.6497 52.0312 69.8928 52.647 69.8928 53.6806C69.8928 54.5383 70.0034 54.7583 70.6222 55.2861C72.6113 56.9575 75.595 57.0675 77.6725 55.528C78.4239 54.9782 78.446 54.8462 77.7167 53.9005C77.0757 53.0428 76.8989 53.0208 76.1475 53.6146C75.7497 53.9225 75.2413 54.0545 74.512 54.0545C72.5892 54.0545 71.4399 52.537 71.4399 50.0079C71.462 46.7969 73.7606 44.9716 76.0591 46.3791L76.8326 46.8409L77.4515 46.1152C78.1587 45.2355 78.2029 45.0155 77.6725 44.5317C76.479 43.4541 73.849 43.1682 72.103 43.9599Z" fill="white"/>
<path d="M82.0484 43.8499C80.9876 44.3117 80.1256 45.1694 79.4405 46.467C78.9101 47.4566 78.8659 47.8085 78.8438 49.8758C78.8438 51.8332 78.9322 52.361 79.3742 53.3287C80.9434 56.8255 85.6509 57.7492 88.3915 55.1101C89.6733 53.8785 90.1154 52.5149 90.1154 49.8758C90.0933 47.8085 90.0491 47.4566 89.5186 46.467C88.8114 45.1254 88.2147 44.5316 86.9107 43.9598C85.6951 43.41 83.1977 43.344 82.0484 43.8499ZM86.0929 46.5769C87.7726 48.0285 87.7726 51.7012 86.1371 53.3287C85.5404 53.9225 85.231 54.0544 84.4354 54.0544C83.3524 54.0544 82.7336 53.6366 82.1368 52.493C81.6506 51.5253 81.4959 49.6779 81.8274 48.3583C82.3799 46.0711 84.5017 45.1914 86.0929 46.5769Z" fill="white"/>
<path d="M19.6562 49.9421C18.5953 53.3509 17.7334 56.21 17.7334 56.2979C17.7334 56.4079 18.3301 56.4739 19.0595 56.4739C20.5402 56.4739 20.6066 56.4299 21.0486 54.5385L21.3138 53.3729L23.325 53.4389L25.3362 53.5049L25.6898 54.9344L26.0434 56.3639L27.5463 56.4299C28.9166 56.4959 29.0492 56.4519 28.9608 56.1C28.8945 55.8801 28.0105 52.999 26.9938 49.7221L25.1373 43.7182H23.3692H21.6011L19.6562 49.9421ZM23.988 48.4906C24.3196 49.8101 24.5848 50.9317 24.5848 51.0197C24.5848 51.2396 22.2199 51.2396 22.0652 51.0197C21.9326 50.8218 23.0819 46.1374 23.2587 46.1374C23.325 46.1374 23.6565 47.193 23.988 48.4906Z" fill="white"/>
<path d="M29.4927 48.3805C29.559 52.9109 29.5811 53.1089 30.1336 54.1645C30.5315 54.9562 30.9956 55.4621 31.7691 55.9239C32.6974 56.4957 33.0289 56.5837 34.5097 56.5617C36.322 56.5617 37.0955 56.2758 38.1122 55.2641C39.2172 54.1645 39.4603 53.0429 39.5708 48.1605L39.6592 43.718H38.2006H36.7419V47.8966C36.7419 53.4168 36.4325 54.1645 34.2666 54.0106C33.5814 53.9666 33.2499 53.7906 32.8963 53.3288C32.4764 52.757 32.4322 52.3831 32.3659 48.2045L32.2996 43.718H30.863H29.4043L29.4927 48.3805Z" fill="white"/>
<path d="M40.7202 44.8175C40.7202 46.0491 40.6318 46.0051 42.7757 45.9392L44.2564 45.8732V51.1954V56.4956L45.6488 56.4296L47.0191 56.3636L47.1296 51.1954L47.2401 46.0271H48.8977L50.5553 46.0051L50.6216 44.8615L50.6879 43.7179H45.7151H40.7202V44.8175Z" fill="white"/>
<path d="M91.5969 50.0298L91.6632 56.3636H92.8788H94.0944L94.0723 53.0648C94.0723 51.2394 94.006 49.26 93.9397 48.6662C93.7629 47.3687 93.8734 47.5886 94.9784 50.6456C96.5918 55.1101 96.6802 55.264 97.5201 55.264H98.2715L99.2439 52.6249C99.7744 51.1734 100.393 49.48 100.614 48.8862L101.012 47.7865L100.968 52.0751L100.946 56.3636L102.228 56.4296L103.487 56.4956V50.0958V43.7179H101.874H100.283L98.9566 47.5666C98.2494 49.6779 97.5864 51.4153 97.498 51.4153C97.4095 51.4153 97.2769 51.1514 97.2106 50.7995C97.1222 50.4696 96.5476 48.7542 95.9067 46.9728L94.7574 43.7179H93.144H91.5527L91.5969 50.0298Z" fill="white"/>
<path d="M65.2948 51.3055C64.234 51.7673 63.5488 53.3508 63.9024 54.5164C64.5434 56.6497 66.9303 57.2215 68.4111 55.594C69.5383 54.3404 69.0741 52.0312 67.5491 51.3055C66.6872 50.9096 66.2452 50.9096 65.2948 51.3055Z" fill="#095096"/>
</svg>
