<svg width="98" height="48" viewBox="0 0 98 48" fill="none" xmlns="http://www.w3.org/2000/svg">
<path d="M0 0H98V44C98 46.2091 96.2091 48 94 48H4C1.79086 48 0 46.2091 0 44V0Z" fill="#1D1F38"/>
<path d="M18.8247 8.12753C18.7301 8.15905 18.667 9.87644 18.667 12.9804V17.7701H19.7237H20.7647L20.6858 14.5717C20.6385 12.8228 20.6543 11.5308 20.7174 11.7041C20.7962 11.8774 21.2221 13.0434 21.6795 14.3038C22.1369 15.5643 22.5785 16.683 22.6573 16.7775C22.7362 16.8878 23.0359 16.9823 23.3355 16.9823C23.9191 16.9823 23.7614 17.266 25.2282 13.2167C25.6383 12.0823 26.001 11.1842 26.0326 11.2157C26.0641 11.2314 26.001 12.1453 25.9064 13.2009C25.8118 14.2723 25.7802 15.7376 25.8433 16.4624L25.9537 17.7701H26.8843H27.8148V12.9804C27.8148 8.75777 27.7833 8.1748 27.5625 8.09602C27.1209 7.92271 25.6541 8.00149 25.4806 8.19056C25.4017 8.30085 24.9285 9.56132 24.4238 10.9951C23.9349 12.4289 23.4775 13.7366 23.4144 13.8942C23.3355 14.1148 23.0201 13.3742 22.2946 11.3102C21.7268 9.71888 21.1905 8.33236 21.0644 8.22207C20.8909 8.033 19.3137 7.96998 18.8247 8.12753Z" fill="white"/>
<path d="M29.6602 8.09602C29.5971 8.15905 29.5498 10.3649 29.5498 12.9961V17.7701H32.6254H35.7009V16.9036V16.037H33.7294H31.7421L31.7894 14.8868L31.8368 13.7524L33.4613 13.7051L35.0701 13.6579V12.807V11.9405H33.414H31.7579V10.9163V9.90795L33.6979 9.86068L35.6221 9.81342V8.94684V8.08027L32.6885 8.033C31.0797 8.01724 29.7233 8.04876 29.6602 8.09602Z" fill="white"/>
<path d="M37.2 8.14329C37.1526 8.1748 37.1211 10.3649 37.1211 12.9961V17.7701H38.2251H39.3292V12.9804V8.19056L38.8876 8.08027C38.4144 7.98573 37.3104 8.01725 37.2 8.14329Z" fill="white"/>
<path d="M41.2675 8.09603C41.1098 8.15905 41.0625 9.29347 41.0625 12.9804V17.7701H44.0592H47.0559V16.9036V16.0527L45.2106 16.0055L43.3495 15.9582L43.2706 12.0192L43.1917 8.08027L42.3243 8.04876C41.8511 8.033 41.3622 8.06451 41.2675 8.09603Z" fill="white"/>
<path d="M48.2548 8.12754C48.2075 8.1748 48.1602 10.3649 48.1602 12.9961V17.7701H51.1569H54.1536V16.9036V16.0527L52.3082 16.0055L50.4471 15.9582L50.3683 12.0192L50.2894 8.08027L49.3115 8.06451C48.7753 8.04876 48.3021 8.08027 48.2548 8.12754Z" fill="white"/>
<path d="M55.4951 8.09602C55.4005 8.14329 55.3532 9.86068 55.3847 12.9646L55.432 17.7701H58.4918H61.5674V16.9036V16.0527L59.5644 16.0055L57.5455 15.9582V14.8553V13.7524L59.17 13.7051L60.7788 13.6579V12.807V11.9562L59.17 11.9089L57.5455 11.8617V10.9163V9.97097L59.4855 9.92371L61.4097 9.87644V9.04138C61.4097 8.48992 61.3308 8.15905 61.2047 8.11178C60.9681 8.01724 55.7317 8.01724 55.4951 8.09602Z" fill="white"/>
<path d="M63.0334 8.09667C62.781 8.20696 62.7495 13.107 62.9861 14.6039C63.3646 16.9357 64.5002 17.9283 66.7398 17.9283C67.8597 17.9283 68.806 17.6447 69.358 17.1721C69.5157 17.0145 69.8312 16.5418 70.0678 16.1164C70.4778 15.3286 70.4778 15.3129 70.4778 11.7048V8.08091H69.5315H68.5852L68.5063 11.4684C68.4275 14.8875 68.3959 15.045 67.8281 15.6753C67.355 16.1952 66.1721 16.1794 65.6831 15.6595C65.1469 15.0923 65.0522 14.3518 65.0365 11.106C65.0365 9.48319 65.0207 8.15969 65.0049 8.14394C64.6422 8.08091 63.1753 8.03364 63.0334 8.09667Z" fill="white"/>
<path d="M72.4014 8.11178C72.3383 8.15905 72.291 10.3649 72.291 12.9961V17.7701H73.3951H74.4991V16.037V14.3038H75.0985H75.682L76.6126 16.037L77.5431 17.7701H78.7103C79.3412 17.7701 79.8616 17.7229 79.8616 17.6441C79.8616 17.5811 79.4043 16.746 78.8522 15.7849L77.8586 14.036L78.521 13.4215C80.0194 12.0035 79.7986 9.46679 78.0952 8.60021C77.7797 8.4269 77.07 8.23783 76.518 8.15905C75.3666 7.98573 72.5434 7.95422 72.4014 8.11178ZM77.1173 10.2861C77.3539 10.6012 77.417 11.4205 77.2435 11.8617C77.0857 12.2713 76.3129 12.5707 75.3666 12.5707H74.4991V11.2472C74.4991 9.71888 74.4676 9.75039 75.9817 9.8922C76.6284 9.95522 76.9596 10.0813 77.1173 10.2861Z" fill="white"/>
<path d="M18.8242 19.5664C18.8242 19.661 19.4866 21.8983 20.291 24.5453L21.7421 29.3508L23.1142 29.3981L24.4864 29.4454L24.9123 28.0589C26.5999 22.5443 27.4516 19.5664 27.3885 19.4561C27.357 19.3931 26.8522 19.3616 26.2687 19.3774L25.2119 19.4246L24.3918 22.6546C23.9502 24.435 23.4928 26.1997 23.3981 26.5778C23.3035 26.9559 23.1931 27.2395 23.1616 27.1923C23.13 27.1608 22.6726 25.4434 22.1364 23.3636C21.6001 21.2838 21.0796 19.5349 20.985 19.4719C20.7011 19.2828 18.8242 19.3616 18.8242 19.5664Z" fill="white"/>
<path d="M27.9083 19.5826C27.8609 19.7086 27.8294 21.9617 27.8136 24.6087L27.7979 29.43H31.0469H34.2802V28.4846V27.5393H32.2298H30.1637L30.211 26.3891L30.2583 25.2547L31.9617 25.2074L33.6651 25.1601L33.6178 24.2621L33.5705 23.364L31.8828 23.3167L30.1794 23.2694V22.2611V21.2369H32.151H34.1225V20.3861C34.1225 19.7401 34.0594 19.5195 33.8544 19.4408C33.7124 19.3777 32.3402 19.3462 30.7946 19.3462C28.6022 19.362 27.9713 19.425 27.9083 19.5826Z" fill="white"/>
<path d="M35.8106 19.4565C35.7475 19.5038 35.7002 21.7726 35.7002 24.4984V29.43H36.8358H37.9556L37.8452 26.3891C37.7979 24.7347 37.7033 23.1119 37.6559 22.8125C37.6086 22.4186 37.8768 22.844 38.5865 24.2305C39.1228 25.3177 39.9587 26.9248 40.4161 27.8071L41.252 29.43H42.4191H43.5863V24.4826C43.5863 20.6697 43.539 19.5195 43.397 19.4565C43.2866 19.425 42.7977 19.3935 42.3245 19.4092L41.457 19.425L41.4097 21.0006C41.3782 21.8672 41.4413 23.427 41.5359 24.4511C41.7094 26.3734 41.6621 26.7988 41.3782 26.0582C41.0154 25.1129 38.3815 19.9765 38.0345 19.5353C37.861 19.3305 35.9999 19.2674 35.8106 19.4565Z" fill="white"/>
<path d="M45.4327 19.4561C45.3696 19.5034 45.3223 21.788 45.3223 24.5138V29.4611L47.6565 29.3981C50.2589 29.3351 50.9372 29.146 51.9308 28.1534C52.8929 27.1923 53.1295 26.4517 53.1295 24.3877C53.1137 22.8121 53.0664 22.4813 52.7509 21.8195C52.2778 20.8584 51.3157 20.0391 50.2905 19.724C49.4861 19.4876 45.6062 19.2671 45.4327 19.4561ZM49.5334 21.5359C50.4798 21.9771 50.8425 22.7491 50.8425 24.3562C50.8425 25.727 50.6059 26.4675 50.0224 27.019C49.6438 27.3656 48.6817 27.6965 48.0508 27.6965H47.6881V24.4665V21.2365H48.2874C48.6029 21.2365 49.1707 21.3783 49.5334 21.5359Z" fill="white"/>
<path d="M54.832 19.4565C54.6743 19.5195 54.627 20.6697 54.627 24.4826V29.43H57.7814H60.9358V28.4846V27.5393H58.8854H56.8193L56.8666 26.3891L56.9139 25.2547L58.5384 25.2074L60.1472 25.1601V24.2148V23.2537L59.6425 23.2852C59.3586 23.301 58.6015 23.3167 57.9864 23.301L56.8351 23.2852V22.2611V21.2369H58.8066H60.7781V20.3861C60.7781 19.7401 60.715 19.5195 60.51 19.4408C60.2261 19.3305 55.1317 19.3462 54.832 19.4565Z" fill="white"/>
<path d="M62.42 19.5664C62.3727 19.6924 62.3569 21.3468 62.3885 23.2375C62.4358 25.9948 62.5147 26.8141 62.7355 27.3813C63.3033 28.8938 64.4231 29.5713 66.3157 29.5871C67.3409 29.5871 67.6564 29.5241 68.3661 29.1459C69.0759 28.7678 69.2967 28.563 69.691 27.7752L70.1642 26.8613L70.2115 23.0799L70.2588 19.3143L69.2651 19.3773L68.2715 19.4245L68.1926 22.8121C68.1295 25.6324 68.0665 26.2941 67.8299 26.7668C67.2305 27.98 65.5114 28.0273 64.8489 26.8613C64.707 26.625 64.6124 25.3803 64.565 22.9696L64.4862 19.4245L63.4925 19.3773C62.7355 19.3458 62.4831 19.3773 62.42 19.5664Z" fill="white"/>
<path d="M72.0552 19.5195C72.0079 19.6456 71.9921 21.8987 72.0079 24.5457L72.0552 29.3512H73.1592H74.2633L74.3106 27.5708L74.3579 25.8061H74.9573H75.5566L76.4872 27.6181L77.4177 29.43H78.6479C79.3104 29.43 79.8624 29.3827 79.8624 29.3355C79.8624 29.2882 79.405 28.4216 78.8372 27.429C78.2694 26.4364 77.812 25.5698 77.812 25.5225C77.812 25.4595 78.0171 25.2704 78.2694 25.0971C79.7204 24.136 79.9255 21.6151 78.6795 20.4019C77.9067 19.6613 77.26 19.5038 74.5472 19.3935C72.5599 19.3147 72.134 19.3462 72.0552 19.5195ZM76.708 21.4733C77.6385 21.9617 77.4177 23.5373 76.3768 23.8997C76.0929 23.9942 75.5251 24.073 75.115 24.073H74.3421V22.655V21.2369H75.2885C75.8405 21.2369 76.4556 21.3472 76.708 21.4733Z" fill="white"/>
<path d="M44.7555 31.4625C42.3739 32.5339 41.601 36.1263 43.1625 38.7417C43.888 39.9392 44.9763 40.5222 46.5062 40.5222C48.7774 40.5222 50.1653 39.1829 50.5281 36.6935C50.8751 34.2671 49.913 32.1558 48.1307 31.4153C47.3106 31.0686 45.5756 31.1001 44.7555 31.4625ZM47.5314 33.2114C48.1149 33.6368 48.4777 34.5822 48.4777 35.7639C48.4777 37.7019 47.8153 38.726 46.5219 38.726C46.1592 38.726 45.7018 38.6157 45.4968 38.4739C44.1877 37.56 44.2034 34.0622 45.5125 33.1484C46.0015 32.8018 46.9951 32.8333 47.5314 33.2114Z" fill="white"/>
<path d="M57.6241 31.4938C56.0784 32.1871 55.2583 33.4318 55.1321 35.228C55.069 36.2206 55.1006 36.4254 55.3687 36.7248C55.8734 37.2762 56.0469 37.7174 56.0469 38.4579C56.0469 39.0724 56.1258 39.23 56.5674 39.6081C57.9869 40.8056 60.1161 40.8843 61.5987 39.7814C62.135 39.3875 62.1507 39.293 61.6302 38.6155C61.1729 38.001 61.0467 37.9853 60.5104 38.4107C60.2265 38.6313 59.8638 38.7258 59.3433 38.7258C57.9711 38.7258 57.151 37.6386 57.151 35.8267C57.1667 33.5263 58.807 32.2186 60.4473 33.227L60.9994 33.5579L61.441 33.0379C61.9457 32.4077 61.9772 32.2501 61.5987 31.9035C60.747 31.1314 58.8701 30.9266 57.6241 31.4938Z" fill="white"/>
<path d="M64.7215 31.4151C63.9645 31.7459 63.3494 32.3604 62.8604 33.29C62.4819 33.999 62.4503 34.2511 62.4346 35.7322C62.4346 37.1344 62.4977 37.5126 62.8131 38.2058C63.9329 40.711 67.2924 41.3728 69.2481 39.4821C70.1629 38.5997 70.4784 37.6229 70.4784 35.7322C70.4626 34.2511 70.4311 33.999 70.0525 33.29C69.5478 32.3289 69.122 31.9035 68.1914 31.4938C67.3239 31.0999 65.5417 31.0527 64.7215 31.4151ZM67.6078 33.3688C68.8065 34.4087 68.8065 37.0399 67.6394 38.2058C67.2135 38.6313 66.9927 38.7258 66.4249 38.7258C65.6521 38.7258 65.2105 38.4264 64.7846 37.6071C64.4376 36.9139 64.3272 35.5904 64.5638 34.645C64.9581 33.0064 66.4722 32.3762 67.6078 33.3688Z" fill="white"/>
<path d="M20.1964 35.7792C19.4393 38.2214 18.8242 40.2697 18.8242 40.3327C18.8242 40.4115 19.2501 40.4587 19.7705 40.4587C20.8273 40.4587 20.8746 40.4272 21.19 39.0722L21.3793 38.2372L22.8146 38.2844L24.2498 38.3317L24.5022 39.3558L24.7545 40.38L25.8271 40.4272C26.8049 40.4745 26.8996 40.443 26.8365 40.1909C26.7892 40.0333 26.1583 37.9693 25.4327 35.6217L24.1079 31.3203H22.8461H21.5843L20.1964 35.7792ZM23.2877 34.7394C23.5243 35.6847 23.7136 36.4883 23.7136 36.5513C23.7136 36.7088 22.026 36.7088 21.9156 36.5513C21.8209 36.4095 22.6411 33.0535 22.7673 33.0535C22.8146 33.0535 23.0512 33.8098 23.2877 34.7394Z" fill="white"/>
<path d="M27.2164 34.661C27.2637 37.9067 27.2795 38.0485 27.6738 38.8048C27.9577 39.372 28.2889 39.7344 28.8409 40.0653C29.5034 40.4749 29.74 40.538 30.7967 40.5222C32.09 40.5222 32.642 40.3174 33.3675 39.5926C34.1562 38.8048 34.3296 38.0013 34.4085 34.5035L34.4716 31.3208H33.4306H32.3897V34.3144C32.3897 38.2691 32.1689 38.8048 30.6232 38.6945C30.1343 38.663 29.8977 38.537 29.6453 38.2061C29.3456 37.7964 29.3141 37.5286 29.2668 34.535L29.2195 31.3208H28.1943H27.1533L27.2164 34.661Z" fill="white"/>
<path d="M35.2279 32.1082C35.2279 32.9905 35.1648 32.959 36.6947 32.9117L37.7514 32.8645V36.6774V40.4745L38.7451 40.4273L39.723 40.38L39.8018 36.6774L39.8807 32.9747H41.0636L42.2465 32.959L42.2938 32.1397L42.3411 31.3204H38.7924H35.2279V32.1082Z" fill="white"/>
<path d="M71.5345 35.8423L71.5818 40.38H72.4493H73.3167L73.301 38.0166C73.301 36.7089 73.2536 35.2909 73.2063 34.8655C73.0801 33.9359 73.159 34.0934 73.9476 36.2835C75.099 39.4819 75.1621 39.5922 75.7614 39.5922H76.2977L76.9916 37.7015C77.3702 36.6616 77.8118 35.4484 77.9695 35.023L78.2534 34.2352L78.2219 37.3076L78.2061 40.38L79.1209 40.4273L80.0199 40.4745V35.8896V31.3204H78.8685H77.7329L76.7866 34.0777C76.2819 35.5902 75.8087 36.8349 75.7456 36.8349C75.6825 36.8349 75.5879 36.6459 75.5406 36.3938C75.4775 36.1574 75.0674 34.9285 74.61 33.6522L73.7899 31.3204H72.6385H71.5029L71.5345 35.8423Z" fill="white"/>
<path d="M52.7657 36.7568C52.0086 37.0877 51.5197 38.2221 51.7721 39.0572C52.2294 40.5855 53.9328 40.9951 54.9896 39.8292C55.794 38.9311 55.4627 37.2767 54.3745 36.7568C53.7593 36.4732 53.4439 36.4732 52.7657 36.7568Z" fill="#095096"/>
</svg>
