<svg width="89" height="48" viewBox="0 0 89 48" fill="none" xmlns="http://www.w3.org/2000/svg">
<path d="M0.300323 0.683615C0.163488 0.728913 0.0722656 3.19766 0.0722656 7.65954V14.5449H1.60025H3.10543L2.9914 9.94709C2.92298 7.43305 2.94579 5.57582 3.03701 5.82496C3.15104 6.0741 3.76679 7.75013 4.42816 9.56206C5.08952 11.374 5.72808 12.9821 5.84211 13.118C5.95614 13.2765 6.38945 13.4124 6.82276 13.4124C7.66657 13.4124 7.43851 13.8201 9.55944 7.99927C10.1524 6.36854 10.6769 5.07754 10.7225 5.12284C10.7681 5.14549 10.6769 6.45913 10.5401 7.97662C10.4033 9.51676 10.3576 11.6231 10.4489 12.665L10.6085 14.5449H11.954H13.2996V7.65954C13.2996 1.58958 13.254 0.751562 12.9347 0.638317C12.2961 0.389176 10.1752 0.502422 9.92433 0.774212C9.81031 0.932755 9.12613 2.74468 8.39635 4.80575C7.68937 6.86682 7.02801 8.74669 6.93679 8.97318C6.82276 9.29027 6.36664 8.22576 5.31758 5.25873C4.49657 2.97117 3.72118 0.978053 3.53873 0.81951C3.28787 0.547721 1.0073 0.457124 0.300323 0.683615Z" fill="white"/>
<path d="M15.9682 0.638317C15.877 0.728913 15.8086 3.89979 15.8086 7.68219V14.5449H20.2557H24.7028V13.2992V12.0535H21.8521H18.9786L19.047 10.4001L19.1154 8.76934L21.4644 8.70139L23.7906 8.63345V7.4104V6.1647H21.396H19.0014V4.6925V3.24296L21.8065 3.17502L24.5888 3.10707V1.86137V0.615667L20.3469 0.547721C18.0207 0.525071 16.0595 0.57037 15.9682 0.638317Z" fill="white"/>
<path d="M26.8699 0.706265C26.8015 0.751563 26.7559 3.89979 26.7559 7.68219V14.5449H28.3523H29.9487V7.65954V0.774213L29.3101 0.615669C28.6259 0.479774 27.0295 0.525072 26.8699 0.706265Z" fill="white"/>
<path d="M32.7535 0.638317C32.5254 0.728913 32.457 2.35965 32.457 7.65954V14.5449H36.7901H41.1232V13.2992V12.0761L38.4549 12.0082L35.7639 11.9402L35.6498 6.27794L35.5358 0.615667L34.2815 0.57037C33.5973 0.547721 32.8903 0.593019 32.7535 0.638317Z" fill="white"/>
<path d="M42.8556 0.683618C42.7872 0.751565 42.7188 3.89979 42.7188 7.68219V14.5449H47.0518H51.3849V13.2992V12.0761L48.7167 12.0082L46.0256 11.9402L45.9115 6.27794L45.7975 0.61567L44.3836 0.593021C43.6082 0.570372 42.924 0.61567 42.8556 0.683618Z" fill="white"/>
<path d="M53.3231 0.638317C53.1863 0.706264 53.1179 3.17502 53.1635 7.63689L53.2319 14.5449H57.6562H62.1033V13.2992V12.0761L59.207 12.0082L56.2879 11.9402V10.3548V8.76934L58.6369 8.70139L60.963 8.63345V7.4104V6.18734L58.6369 6.1194L56.2879 6.05145V4.6925V3.33356L59.093 3.26561L61.8753 3.19766V1.99726C61.8753 1.20454 61.7612 0.728913 61.5788 0.660966C61.2367 0.525071 53.6652 0.525071 53.3231 0.638317Z" fill="white"/>
<path d="M64.2249 0.638267C63.86 0.79681 63.8144 7.84068 64.1565 9.99234C64.7038 13.3444 66.3458 14.7713 69.5842 14.7713C71.2034 14.7713 72.5718 14.3636 73.37 13.6841C73.598 13.4577 74.0541 12.7782 74.3962 12.1667C74.9892 11.0342 74.9892 11.0116 74.9892 5.82491V0.615617H73.6208H72.2525L72.1385 5.48517C72.0244 10.4 71.9788 10.6265 71.1578 11.5325C70.4736 12.2799 68.7632 12.2573 68.0562 11.5098C67.2808 10.6945 67.144 9.62996 67.1212 4.96424C67.1212 2.63139 67.0984 0.728863 67.0756 0.706214C66.5511 0.615617 64.4301 0.54767 64.2249 0.638267Z" fill="white"/>
<path d="M77.77 0.660968C77.6788 0.728915 77.6104 3.89979 77.6104 7.68219V14.5449H79.2068H80.8032V12.0535V9.56206H81.6698H82.5136L83.8591 12.0535L85.2047 14.5449H86.8923C87.8045 14.5449 88.5571 14.4769 88.5571 14.3637C88.5571 14.2731 87.8957 13.0727 87.0975 11.6911L85.6608 9.17703L86.6186 8.29371C88.7852 6.25529 88.4659 2.60879 86.0029 1.36309C85.5467 1.11395 84.5205 0.842161 83.7223 0.728915C82.0575 0.479775 77.9752 0.434477 77.77 0.660968ZM84.5889 3.78654C84.931 4.23952 85.0222 5.41728 84.7713 6.05145C84.5433 6.64033 83.4258 7.07066 82.0575 7.07066H80.8032V5.16814C80.8032 2.97118 80.7575 3.01647 82.9469 3.22032C83.8819 3.31091 84.3608 3.4921 84.5889 3.78654Z" fill="white"/>
<path d="M0.299805 17.1268C0.299805 17.2627 1.25764 20.4789 2.42074 24.284L4.51886 31.1919L6.50296 31.2599L8.48706 31.3278L9.10281 29.3347C11.543 21.4075 12.7745 17.1268 12.6833 16.9683C12.6377 16.8777 11.9079 16.8324 11.0641 16.8551L9.53612 16.923L8.35022 21.5661C7.71166 24.1254 7.0503 26.6621 6.91346 27.2057C6.77663 27.7493 6.61699 28.1569 6.57138 28.089C6.52576 28.0437 5.8644 25.575 5.089 22.5853C4.31361 19.5956 3.56102 17.0815 3.42419 16.9909C3.01368 16.7192 0.299805 16.8324 0.299805 17.1268Z" fill="white"/>
<path d="M13.436 17.1496C13.3676 17.3307 13.322 20.5696 13.2992 24.3746L13.2764 31.3052H17.9743H22.6495V29.9463V28.5873H19.6848H16.6972L16.7656 26.934L16.8341 25.3032L19.2971 25.2353L21.7601 25.1673L21.6917 23.8763L21.6233 22.5853L19.183 22.5174L16.72 22.4494V20.9999V19.5277H19.5707H22.4215V18.3047C22.4215 17.376 22.3302 17.059 22.0338 16.9457C21.8285 16.8551 19.8444 16.8098 17.6095 16.8098C14.4395 16.8325 13.5272 16.9231 13.436 17.1496Z" fill="white"/>
<path d="M24.8608 16.9684C24.7696 17.0363 24.7012 20.2978 24.7012 24.2161V31.3052H26.3432H27.9624L27.8027 26.934C27.7343 24.5558 27.5975 22.223 27.5291 21.7926C27.4607 21.2264 27.8484 21.8379 28.8746 23.831C29.65 25.3938 30.8587 27.704 31.5201 28.9724L32.7288 31.3052H34.4164H36.104V24.1934C36.104 18.7123 36.0356 17.059 35.8304 16.9684C35.6707 16.9231 34.9637 16.8778 34.2796 16.9004L33.0253 16.9231L32.9568 19.188C32.9112 20.4337 33.0025 22.6759 33.1393 24.1481C33.3901 26.9113 33.3217 27.5228 32.9112 26.4583C32.3867 25.0994 28.5781 17.7158 28.0764 17.0816C27.8256 16.7872 25.1345 16.6966 24.8608 16.9684Z" fill="white"/>
<path d="M38.7729 16.9683C38.6817 17.0362 38.6133 20.3204 38.6133 24.2386V31.3505L41.9885 31.2599C45.7515 31.1693 46.7321 30.8975 48.1689 29.4706C49.56 28.089 49.9021 27.0245 49.9021 24.0575C49.8793 21.7925 49.8109 21.3169 49.3548 20.3657C48.6706 18.9841 47.2795 17.8063 45.7971 17.3533C44.634 17.0136 39.0238 16.6965 38.7729 16.9683ZM44.7024 19.958C46.0708 20.5921 46.5953 21.702 46.5953 24.0122C46.5953 25.9826 46.2532 27.0471 45.4094 27.8399C44.862 28.3381 43.4709 28.8138 42.5587 28.8138H42.0341V24.1707V19.5276H42.9008C43.3569 19.5276 44.1779 19.7315 44.7024 19.958Z" fill="white"/>
<path d="M52.3658 16.9684C52.1378 17.059 52.0693 18.7123 52.0693 24.1934V31.3052H56.6305H61.1916V29.9463V28.5873H58.2269H55.2393L55.3077 26.934L55.3762 25.3032L57.7252 25.2353L60.0513 25.1673V23.8084V22.4268L59.3216 22.4721C58.9111 22.4947 57.8164 22.5174 56.927 22.4947L55.2621 22.4721V20.9999V19.5277H58.1129H60.9636V18.3047C60.9636 17.376 60.8723 17.059 60.5759 16.9457C60.1654 16.7872 52.7991 16.8098 52.3658 16.9684Z" fill="white"/>
<path d="M63.3359 17.1268C63.2675 17.308 63.2447 19.6861 63.2903 22.404C63.3587 26.3676 63.4728 27.5454 63.7921 28.3607C64.6131 30.5351 66.2323 31.509 68.969 31.5316C70.4513 31.5316 70.9074 31.441 71.9337 30.8974C72.96 30.3539 73.2792 30.0594 73.8494 28.927L74.5335 27.6133L74.602 22.1775L74.6704 16.7644L73.2336 16.855L71.7969 16.923L71.6828 21.7925C71.5916 25.8467 71.5004 26.798 71.1583 27.4774C70.2917 29.2214 67.8059 29.2894 66.848 27.6133C66.6428 27.2736 66.5059 25.4843 66.4375 22.019L66.3235 16.923L64.8867 16.855C63.7921 16.8097 63.4272 16.855 63.3359 17.1268Z" fill="white"/>
<path d="M77.2694 17.059C77.2009 17.2402 77.1781 20.479 77.2009 24.284L77.2694 31.192H78.8658H80.4622L80.5306 28.6326L80.599 26.0959H81.4656H82.3322L83.6778 28.7006L85.0233 31.3052H86.8021C87.76 31.3052 88.5582 31.2373 88.5582 31.1693C88.5582 31.1014 87.8968 29.8557 87.0758 28.4288C86.2548 27.0019 85.5934 25.7562 85.5934 25.6883C85.5934 25.5977 85.8899 25.3259 86.2548 25.0767C88.3529 23.6951 88.6494 20.0713 86.8478 18.3273C85.7303 17.2628 84.7952 17.0363 80.8727 16.8778C77.9991 16.7645 77.3834 16.8098 77.2694 17.059ZM83.997 19.8674C85.3426 20.5696 85.0233 22.8345 83.5181 23.3554C83.1076 23.4913 82.2866 23.6045 81.6937 23.6045H80.5762V21.5661V19.5277H81.9445C82.7427 19.5277 83.6321 19.6863 83.997 19.8674Z" fill="white"/>
<path d="M37.7932 34.2268C34.3495 35.767 33.2321 40.931 35.4898 44.6907C36.5389 46.412 38.1125 47.2501 40.3246 47.2501C43.6087 47.2501 45.6156 45.3249 46.1401 41.7463C46.6418 38.2584 45.2507 35.2234 42.6736 34.1589C41.4877 33.6606 38.9791 33.7059 37.7932 34.2268ZM41.807 36.7409C42.6508 37.3524 43.1753 38.7114 43.1753 40.41C43.1753 43.1959 42.2175 44.6681 40.3474 44.6681C39.8229 44.6681 39.1615 44.5095 38.8651 44.3057C36.9722 42.992 36.995 37.9639 38.8879 36.6503C39.5949 36.152 41.0316 36.1973 41.807 36.7409Z" fill="white"/>
<path d="M56.402 34.2721C54.1671 35.2687 52.9812 37.058 52.7987 39.64C52.7075 41.0669 52.7531 41.3613 53.1408 41.7916C53.8706 42.5844 54.1215 43.2185 54.1215 44.283C54.1215 45.1664 54.2355 45.3928 54.8741 45.9364C56.9266 47.6578 60.0053 47.771 62.1491 46.1856C62.9245 45.6193 62.9473 45.4834 62.1947 44.5095C61.5333 43.6262 61.3509 43.6036 60.5755 44.2151C60.165 44.5322 59.6405 44.6681 58.8879 44.6681C56.9038 44.6681 55.7179 43.1053 55.7179 40.5006C55.7407 37.1939 58.1125 35.314 60.4843 36.7635L61.2825 37.2392L61.921 36.4917C62.6508 35.5858 62.6964 35.3593 62.1491 34.861C60.9176 33.7512 58.2037 33.4568 56.402 34.2721Z" fill="white"/>
<path d="M66.6652 34.159C65.5706 34.6346 64.6811 35.5179 63.9742 36.8542C63.4268 37.8734 63.3812 38.2358 63.3584 40.3648C63.3584 42.3806 63.4496 42.9242 63.9057 43.9207C65.5249 47.5219 70.3826 48.4732 73.2105 45.7553C74.5332 44.4869 74.9893 43.0827 74.9893 40.3648C74.9665 38.2358 74.9209 37.8734 74.3736 36.8542C73.6438 35.4726 73.028 34.8611 71.6825 34.2722C70.4282 33.706 67.8511 33.638 66.6652 34.159ZM70.8387 36.9674C72.5719 38.4623 72.5719 42.2447 70.8843 43.9207C70.2685 44.5322 69.9492 44.6681 69.1282 44.6681C68.0108 44.6681 67.3722 44.2378 66.7564 43.06C66.2547 42.0635 66.0951 40.161 66.4372 38.802C67.0073 36.4465 69.1967 35.5405 70.8387 36.9674Z" fill="white"/>
<path d="M2.2839 40.4328C1.18923 43.9434 0.299805 46.8878 0.299805 46.9784C0.299805 47.0916 0.915559 47.1595 1.66815 47.1595C3.19613 47.1595 3.26455 47.1142 3.72066 45.1664L3.99433 43.966L6.06965 44.034L8.14497 44.1019L8.50986 45.5741L8.87475 47.0463L10.4255 47.1142C11.8395 47.1822 11.9763 47.1369 11.8851 46.7745C11.8167 46.548 10.9045 43.581 9.8554 40.2063L7.93972 34.0231H6.11526H4.2908L2.2839 40.4328ZM6.75382 38.9379C7.09591 40.2969 7.36958 41.452 7.36958 41.5426C7.36958 41.7691 4.92936 41.7691 4.76972 41.5426C4.63289 41.3387 5.81879 36.5145 6.00123 36.5145C6.06965 36.5145 6.41174 37.6016 6.75382 38.9379Z" fill="white"/>
<path d="M12.434 38.8247C12.5024 43.4905 12.5252 43.6943 13.0954 44.7815C13.5059 45.5968 13.9848 46.1178 14.783 46.5934C15.7408 47.1823 16.0829 47.2729 17.6109 47.2502C19.481 47.2502 20.2792 46.9558 21.3282 45.9139C22.4685 44.7815 22.7194 43.6264 22.8334 38.5983L22.9246 34.0231H21.4194H19.9143V38.3265C19.9143 44.0114 19.595 44.7815 17.36 44.6229C16.6531 44.5776 16.311 44.3964 15.9461 43.9208C15.5128 43.3319 15.4672 42.9469 15.3987 38.6436L15.3303 34.0231H13.848H12.3428L12.434 38.8247Z" fill="white"/>
<path d="M24.0181 35.1554C24.0181 36.4237 23.9269 36.3784 26.139 36.3105L27.667 36.2426V41.7236V47.1821L29.1038 47.1141L30.5177 47.0462L30.6318 41.7236L30.7458 36.4011H32.4562L34.1666 36.3784L34.2351 35.2007L34.3035 34.0229H29.1722H24.0181V35.1554Z" fill="white"/>
<path d="M76.5173 40.5232L76.5857 47.0462H77.84H79.0943L79.0715 43.6488C79.0715 41.7689 79.0031 39.7305 78.9347 39.119C78.7523 37.7827 78.8663 38.0092 80.0066 41.1574C81.6714 45.7552 81.7626 45.9137 82.6292 45.9137H83.4046L84.4081 43.1958C84.9554 41.701 85.594 39.957 85.822 39.3455L86.2325 38.213L86.1869 42.6296L86.1641 47.0462L87.4868 47.1141L88.7868 47.1821V40.5912V34.0229H87.1219H85.4799L84.1116 37.9865C83.3818 40.1608 82.6976 41.9501 82.6064 41.9501C82.5152 41.9501 82.3784 41.6783 82.3099 41.316C82.2187 40.9762 81.6258 39.2096 80.9644 37.375L79.7785 34.0229H78.1137H76.4717L76.5173 40.5232Z" fill="white"/>
<path d="M49.3783 41.8369C48.2837 42.3126 47.5767 43.9433 47.9416 45.1437C48.6029 47.3407 51.066 47.9295 52.5939 46.2535C53.757 44.9625 53.2781 42.5843 51.7045 41.8369C50.8151 41.4292 50.359 41.4292 49.3783 41.8369Z" fill="#095096"/>
</svg>
