<svg width="300" height="192" viewBox="0 0 300 192" fill="none" xmlns="http://www.w3.org/2000/svg">
<path d="M300 0V192L0.5 0H300Z" fill="#1D1F38"/>
<path d="M165.278 27.2236C165.111 27.2787 165 30.2842 165 35.716V44.0981H166.86H168.693L168.554 38.5009C168.47 35.4403 168.498 33.1793 168.609 33.4826C168.748 33.7859 169.498 35.8263 170.303 38.0321C171.108 40.238 171.885 42.1956 172.024 42.3611C172.163 42.5541 172.69 42.7195 173.218 42.7195C174.245 42.7195 173.968 43.2158 176.55 36.1296C177.271 34.1444 177.91 32.5727 177.966 32.6279C178.021 32.6554 177.91 34.2547 177.743 36.102C177.577 37.977 177.521 40.5413 177.632 41.8096L177.827 44.0981H179.465H181.103V35.716C181.103 28.3265 181.047 27.3063 180.659 27.1684C179.881 26.8651 177.299 27.003 176.994 27.3339C176.855 27.5269 176.022 29.7327 175.134 32.2418C174.273 34.751 173.468 37.0395 173.357 37.3152C173.218 37.7013 172.663 36.4053 171.386 32.7933C170.386 30.0084 169.442 27.582 169.22 27.389C168.915 27.0581 166.138 26.9479 165.278 27.2236Z" fill="white"/>
<path d="M184.352 27.1684C184.241 27.2787 184.157 31.1389 184.157 35.7436V44.0981H189.571H194.985V42.5816V41.0651H191.515H188.016L188.1 39.0523L188.183 37.0671L191.043 36.9844L193.874 36.9016V35.4127V33.8962H190.959H188.044V32.104V30.3393L191.459 30.2566L194.846 30.1739V28.6574V27.1409L189.682 27.0581C186.85 27.0306 184.463 27.0857 184.352 27.1684Z" fill="white"/>
<path d="M197.623 27.2512C197.54 27.3063 197.484 31.1389 197.484 35.7436V44.0981H199.428H201.371V35.716V27.3339L200.594 27.1409C199.761 26.9754 197.818 27.0306 197.623 27.2512Z" fill="white"/>
<path d="M204.786 27.1684C204.508 27.2787 204.425 29.264 204.425 35.716V44.0981H209.7H214.975V42.5816V41.0927L211.727 41.01L208.451 40.9273L208.312 34.0341L208.173 27.1409L206.646 27.0857C205.813 27.0581 204.952 27.1133 204.786 27.1684Z" fill="white"/>
<path d="M217.085 27.2236C217.001 27.3063 216.918 31.1389 216.918 35.7436V44.0981H222.193H227.468V42.5816V41.0927L224.22 41.01L220.944 40.9273L220.805 34.0341L220.666 27.1409L218.945 27.1133C218.001 27.0857 217.168 27.1409 217.085 27.2236Z" fill="white"/>
<path d="M229.828 27.1684C229.661 27.2512 229.578 30.2566 229.633 35.6884L229.717 44.0981H235.103H240.517V42.5816V41.0927L236.991 41.01L233.437 40.9273V38.9972V37.0671L236.297 36.9844L239.128 36.9016V35.4127V33.9238L236.297 33.8411L233.437 33.7583V32.104V30.4496L236.852 30.3669L240.239 30.2842V28.8228C240.239 27.8578 240.1 27.2787 239.878 27.196C239.462 27.0306 230.244 27.0306 229.828 27.1684Z" fill="white"/>
<path d="M243.099 27.1681C242.655 27.3611 242.599 35.9363 243.016 38.5557C243.682 42.6364 245.681 44.3735 249.623 44.3735C251.595 44.3735 253.26 43.8772 254.232 43.05C254.51 42.7743 255.065 41.9471 255.481 41.2027C256.203 39.824 256.203 39.7964 256.203 33.4823V27.1405H254.537H252.872L252.733 33.0687C252.594 39.052 252.538 39.3277 251.539 40.4306C250.706 41.3405 248.624 41.313 247.763 40.4031C246.819 39.4104 246.653 38.1145 246.625 32.4345C246.625 29.5945 246.597 27.2784 246.569 27.2508C245.931 27.1405 243.349 27.0578 243.099 27.1681Z" fill="white"/>
<path d="M259.589 27.196C259.478 27.2787 259.395 31.1389 259.395 35.7436V44.0981H261.338H263.281V41.0651V38.0321H264.336H265.364L267.002 41.0651L268.64 44.0981H270.694C271.805 44.0981 272.721 44.0154 272.721 43.8776C272.721 43.7673 271.916 42.3059 270.944 40.624L269.195 37.5634L270.361 36.488C272.999 34.0065 272.61 29.5673 269.611 28.0508C269.056 27.7475 267.807 27.4166 266.835 27.2787C264.808 26.9754 259.839 26.9203 259.589 27.196ZM267.89 31.0011C268.307 31.5525 268.418 32.9863 268.112 33.7583C267.835 34.4752 266.474 34.9991 264.808 34.9991H263.281V32.683C263.281 30.0084 263.226 30.0636 265.891 30.3117C267.029 30.422 267.613 30.6426 267.89 31.0011Z" fill="white"/>
<path d="M165.277 47.2411C165.277 47.4066 166.443 51.3219 167.859 55.9542L170.414 64.3639L172.829 64.4466L175.244 64.5293L175.994 62.1029C178.965 52.4524 180.464 47.2411 180.353 47.0481C180.297 46.9378 179.409 46.8827 178.382 46.9103L176.522 46.993L175.078 52.6454C174.3 55.7611 173.495 58.8493 173.329 59.511C173.162 60.1728 172.968 60.6691 172.912 60.5864C172.857 60.5312 172.052 57.5258 171.108 53.8862C170.164 50.2466 169.248 47.186 169.081 47.0757C168.581 46.7448 165.277 46.8827 165.277 47.2411Z" fill="white"/>
<path d="M181.269 47.2689C181.185 47.4895 181.13 51.4324 181.102 56.0647L181.074 64.502H186.793H192.485V62.8476V61.1932H188.876H185.239L185.322 59.1804L185.405 57.1952L188.404 57.1124L191.402 57.0297L191.319 55.4581L191.236 53.8864L188.265 53.8037L185.267 53.721V51.9563V50.1641H188.737H192.207V48.6752C192.207 47.5447 192.096 47.1587 191.735 47.0208C191.486 46.9105 189.07 46.8554 186.349 46.8554C182.49 46.8829 181.38 46.9932 181.269 47.2689Z" fill="white"/>
<path d="M195.178 47.0484C195.067 47.1311 194.983 51.1016 194.983 55.8717V64.502H196.982H198.954L198.759 59.1804C198.676 56.2853 198.509 53.4453 198.426 52.9214C198.343 52.2321 198.815 52.9765 200.064 55.4029C201.008 57.3055 202.48 60.1179 203.285 61.662L204.756 64.502H206.811H208.865V55.8441C208.865 49.1715 208.782 47.1587 208.532 47.0484C208.338 46.9932 207.477 46.9381 206.644 46.9656L205.117 46.9932L205.034 49.7505C204.978 51.267 205.089 53.9967 205.256 55.7889C205.561 59.1528 205.478 59.8973 204.978 58.6014C204.34 56.947 199.703 47.9583 199.092 47.1862C198.787 46.8278 195.511 46.7175 195.178 47.0484Z" fill="white"/>
<path d="M212.114 47.0484C212.003 47.1311 211.92 51.1292 211.92 55.8993V64.5571L216.029 64.4468C220.61 64.3365 221.804 64.0057 223.553 62.2686C225.246 60.5866 225.663 59.2907 225.663 55.6787C225.635 52.9214 225.552 52.3424 224.997 51.1843C224.164 49.5024 222.47 48.0686 220.665 47.5171C219.249 47.1035 212.42 46.7175 212.114 47.0484ZM219.333 50.688C220.999 51.46 221.637 52.8111 221.637 55.6235C221.637 58.0224 221.221 59.3183 220.193 60.2833C219.527 60.8899 217.834 61.469 216.723 61.469H216.084V55.8165V50.1641H217.139C217.695 50.1641 218.694 50.4123 219.333 50.688Z" fill="white"/>
<path d="M228.662 47.0484C228.384 47.1587 228.301 49.1715 228.301 55.8441V64.502H233.853H239.406V62.8476V61.1932H235.797H232.16L232.243 59.1804L232.326 57.1952L235.186 57.1124L238.018 57.0297V55.3754V53.6934L237.13 53.7486C236.63 53.7761 235.297 53.8037 234.214 53.7761L232.188 53.7486V51.9563V50.1641H235.658H239.129V48.6752C239.129 47.5447 239.017 47.1587 238.657 47.0208C238.157 46.8278 229.189 46.8554 228.662 47.0484Z" fill="white"/>
<path d="M242.017 47.2415C241.934 47.4621 241.906 50.3573 241.962 53.666C242.045 58.4912 242.184 59.925 242.572 60.9176C243.572 63.5646 245.543 64.7503 248.875 64.7778C250.679 64.7778 251.235 64.6675 252.484 64.0058C253.733 63.344 254.122 62.9856 254.816 61.607L255.649 60.0077L255.732 53.3903L255.815 46.8004L254.066 46.9107L252.317 46.9934L252.178 52.9215C252.067 57.8571 251.956 59.0151 251.54 59.8423C250.485 61.9654 247.459 62.0481 246.293 60.0077C246.043 59.5941 245.876 57.4159 245.793 53.1973L245.654 46.9934L243.905 46.9107C242.572 46.8555 242.128 46.9107 242.017 47.2415Z" fill="white"/>
<path d="M258.979 47.1587C258.896 47.3792 258.868 51.3222 258.896 55.9544L258.979 64.3641H260.923H262.866L262.95 61.2484L263.033 58.1602H264.088H265.143L266.781 61.3311L268.419 64.502H270.585C271.751 64.502 272.722 64.4192 272.722 64.3365C272.722 64.2538 271.917 62.7373 270.918 61.0002C269.918 59.2631 269.113 57.7466 269.113 57.6639C269.113 57.5536 269.474 57.2227 269.918 56.9194C272.472 55.2375 272.833 50.8258 270.64 48.7027C269.28 47.4068 268.141 47.1311 263.366 46.9381C259.868 46.8002 259.118 46.8554 258.979 47.1587ZM267.17 50.5777C268.808 51.4324 268.419 54.1897 266.587 54.8239C266.087 54.9893 265.087 55.1272 264.366 55.1272H263.005V52.6456V50.1641H264.671C265.643 50.1641 266.725 50.3571 267.17 50.5777Z" fill="white"/>
<path d="M210.921 68.0587C206.728 69.9337 205.368 76.2203 208.116 80.7974C209.394 82.8929 211.309 83.9131 214.002 83.9131C218 83.9131 220.443 81.5694 221.082 77.2129C221.693 72.9667 219.999 69.2719 216.862 67.976C215.418 67.3694 212.364 67.4245 210.921 68.0587ZM215.807 71.1193C216.834 71.8638 217.473 73.5181 217.473 75.5861C217.473 78.9776 216.307 80.7698 214.03 80.7698C213.391 80.7698 212.586 80.5768 212.225 80.3286C209.921 78.7294 209.949 72.6082 212.253 71.009C213.114 70.4024 214.863 70.4576 215.807 71.1193Z" fill="white"/>
<path d="M233.576 68.1137C230.855 69.3269 229.411 71.5052 229.189 74.6485C229.078 76.3855 229.134 76.744 229.606 77.2679C230.494 78.2329 230.8 79.005 230.8 80.3009C230.8 81.3762 230.938 81.652 231.716 82.3137C234.214 84.4092 237.963 84.5471 240.572 82.617C241.516 81.9277 241.544 81.7622 240.628 80.5766C239.823 79.5013 239.601 79.4737 238.657 80.2182C238.157 80.6042 237.518 80.7696 236.602 80.7696C234.187 80.7696 232.743 78.8671 232.743 75.6962C232.771 71.6706 235.658 69.3821 238.546 71.1467L239.517 71.7257L240.295 70.8158C241.183 69.7129 241.239 69.4372 240.572 68.8306C239.073 67.4795 235.769 67.1211 233.576 68.1137Z" fill="white"/>
<path d="M246.07 67.9761C244.737 68.5551 243.654 69.6304 242.794 71.2572C242.127 72.498 242.072 72.9392 242.044 75.531C242.044 77.985 242.155 78.6467 242.71 79.8599C244.681 84.244 250.595 85.4021 254.038 82.0933C255.648 80.5493 256.203 78.8397 256.203 75.531C256.176 72.9392 256.12 72.498 255.454 71.2572C254.565 69.5753 253.816 68.8308 252.178 68.1139C250.651 67.4246 247.513 67.3419 246.07 67.9761ZM251.15 71.3951C253.26 73.2149 253.26 77.8196 251.206 79.8599C250.456 80.6044 250.068 80.7698 249.068 80.7698C247.708 80.7698 246.93 80.246 246.181 78.8122C245.57 77.599 245.376 75.2829 245.792 73.6285C246.486 70.7609 249.151 69.658 251.15 71.3951Z" fill="white"/>
<path d="M167.693 75.6136C166.36 79.8874 165.277 83.4719 165.277 83.5822C165.277 83.72 166.027 83.8027 166.943 83.8027C168.803 83.8027 168.887 83.7476 169.442 81.3763L169.775 79.915L172.302 79.9977L174.828 80.0804L175.272 81.8726L175.716 83.6649L177.604 83.7476C179.326 83.8303 179.492 83.7752 179.381 83.334C179.298 83.0583 178.187 79.4462 176.91 75.3379L174.578 67.8105H172.357H170.136L167.693 75.6136ZM173.134 73.7938C173.551 75.4482 173.884 76.8544 173.884 76.9647C173.884 77.2404 170.913 77.2404 170.719 76.9647C170.552 76.7165 171.996 70.8435 172.218 70.8435C172.302 70.8435 172.718 72.167 173.134 73.7938Z" fill="white"/>
<path d="M180.049 73.6561C180.132 79.3361 180.16 79.5843 180.854 80.9078C181.353 81.9004 181.936 82.5346 182.908 83.1136C184.074 83.8305 184.491 83.9408 186.351 83.9132C188.627 83.9132 189.599 83.5548 190.876 82.2864C192.264 80.9078 192.57 79.5016 192.709 73.3804L192.82 67.8107H190.987H189.155V73.0495C189.155 79.9703 188.766 80.9078 186.045 80.7148C185.185 80.6596 184.768 80.4391 184.324 79.86C183.797 79.1431 183.741 78.6744 183.658 73.4356L183.575 67.8107H181.77H179.938L180.049 73.6561Z" fill="white"/>
<path d="M194.152 69.1894C194.152 70.7335 194.041 70.6783 196.734 70.5956L198.594 70.5129V77.1855V83.8306L200.343 83.7478L202.065 83.6651L202.203 77.1855L202.342 70.7059H204.424L206.507 70.6783L206.59 69.2446L206.673 67.8108H200.427H194.152V69.1894Z" fill="white"/>
<path d="M258.063 75.7242L258.147 83.6651H259.674H261.201L261.173 79.5292C261.173 77.2407 261.09 74.7591 261.006 74.0146C260.784 72.3879 260.923 72.6636 262.311 76.4962C264.338 82.0935 264.449 82.2865 265.504 82.2865H266.448L267.67 78.9778C268.336 77.1579 269.113 75.0348 269.391 74.2904L269.891 72.9117L269.835 78.2884L269.807 83.6651L271.418 83.7478L273 83.8306V75.8069V67.8108H270.973H268.974L267.309 72.636C266.42 75.283 265.587 77.4612 265.476 77.4612C265.365 77.4612 265.199 77.1304 265.115 76.6892C265.004 76.2756 264.282 74.1249 263.477 71.8915L262.034 67.8108H260.007H258.008L258.063 75.7242Z" fill="white"/>
<path d="M225.024 77.3232C223.692 77.9022 222.831 79.8875 223.275 81.3488C224.08 84.0234 227.079 84.7403 228.939 82.6999C230.355 81.1282 229.772 78.2331 227.856 77.3232C226.773 76.8269 226.218 76.8269 225.024 77.3232Z" fill="#095096"/>
</svg>
