<svg width="96" height="96" viewBox="0 0 96 96" fill="none" xmlns="http://www.w3.org/2000/svg">
<circle cx="48" cy="48" r="47.5789" stroke="#F7F7FA" stroke-width="0.842105"/>
<path d="M47.9454 29.4736C40.5461 29.4736 34.5264 35.4934 34.5264 42.8926C34.5264 52.0753 46.5351 65.556 47.0464 66.1254C47.5266 66.6603 48.3651 66.6594 48.8445 66.1254C49.3557 65.556 61.3645 52.0753 61.3645 42.8926C61.3643 35.4934 55.3447 29.4736 47.9454 29.4736ZM47.9454 49.6441C44.2227 49.6441 41.194 46.6154 41.194 42.8926C41.194 39.1698 44.2227 36.1412 47.9454 36.1412C51.6681 36.1412 54.6967 39.1699 54.6967 42.8927C54.6967 46.6155 51.6681 49.6441 47.9454 49.6441Z" fill="#185AAA"/>
</svg>
