<svg width="96" height="96" viewBox="0 0 96 96" fill="none" xmlns="http://www.w3.org/2000/svg">
<circle cx="48" cy="48" r="47.5789" stroke="#F7F7FA" stroke-width="0.842105"/>
<path fill-rule="evenodd" clip-rule="evenodd" d="M35.0383 52.9971C35.0383 53.3761 34.4427 58.3577 33.7929 60.1446C33.143 61.9315 31.1939 61.6067 32.2767 63.1229C33.3595 64.639 36.6084 65.9384 37.6914 66.3718C38.7745 66.8049 42.7272 65.4511 43.2146 66.5883C43.7019 67.7255 47.1675 68.7542 47.1675 68.7542C47.1675 68.7542 49.8207 67.7795 49.6041 67.4006C49.3875 67.0216 49.6041 63.6102 51.6618 63.2312C53.7194 62.8521 57.9431 66.2095 58.8094 65.2889C59.6757 64.3685 64.3327 61.2821 64.4411 60.4157C64.5494 59.5492 61.4628 60.6323 61.7337 58.3038C62.0045 55.9754 60.6509 56.3544 60.9216 55.3257C61.1924 54.2971 64.0623 54.6218 63.0877 53.593C62.113 52.5642 61.3549 48.503 61.0842 48.2864C60.8134 48.0699 58.2684 49.0445 59.1349 47.4744C60.0012 45.904 62.438 43.684 62.438 43.684C62.438 43.684 63.1422 40.7062 63.6837 38.8111C64.2252 36.916 67.1493 36.97 65.3082 36.2119C63.4671 35.4539 60.5972 35.1831 59.785 34.9125C58.9729 34.6418 57.1316 33.9377 55.778 33.1254C54.4244 32.3133 51.013 30.2015 50.5798 29.8224C50.1467 29.4432 47.8723 25.7072 47.006 26.1404C46.1397 26.5735 44.2986 26.8984 44.2986 28.2522C44.2986 29.6058 44.2986 31.2303 43.7029 31.7718C43.1073 32.3133 39.7502 32.2592 39.7502 33.1796C39.7502 34.1001 39.5334 35.2373 38.7754 35.2373C38.0175 35.2373 36.6637 34.371 36.1222 34.1003C35.5807 33.8295 33.1981 31.0139 32.7649 32.6383C32.3318 34.2628 33.5772 35.1291 33.6856 36.2121C33.7939 37.2951 34.0107 38.5947 32.332 38.1614C30.6532 37.7283 29.0289 36.3203 28.2708 36.537C27.5127 36.7536 24.0473 37.0784 23.9931 37.4575C23.9389 37.8365 22.9641 39.0278 24.2095 39.7859C25.4551 40.544 27.9999 42.3311 29.2453 42.9808C30.4907 43.6305 32.2776 43.9554 32.2236 45.2008C32.1694 46.4462 31.0322 46.3919 32.5484 47.9622C34.0647 49.5326 34.66 48.3954 34.5518 49.9657C34.4433 51.5357 35.0383 52.9971 35.0383 52.9971ZM67.1247 65.421C67.0588 65.727 66.621 66.6872 66.6873 67.5054C66.7723 68.5535 67.4096 69.5069 67.7744 70.0238C68.4243 70.9439 71.1317 69.3196 71.1317 68.5615C71.1317 68.2947 70.2991 67.6057 70.4358 66.4313C70.4927 65.9438 71.6055 65.1053 71.6015 64.6028C71.5884 62.8769 71.8488 61.1583 71.0233 61.0349C70.2446 60.9187 69.8744 61.9689 69.3851 62.4277C68.2129 63.5278 67.1796 64.0396 67.1247 65.421Z" fill="#185AAA"/>
</svg>
