<svg width="96" height="96" viewBox="0 0 96 96" fill="none" xmlns="http://www.w3.org/2000/svg">
<circle cx="48" cy="48" r="47.5789" stroke="#F7F7FA" stroke-width="0.842105"/>
<path d="M33.1691 39.3568C32.5669 39.0089 31.7972 39.2154 31.4498 39.8173C31.1019 40.4195 31.3084 41.1892 31.9103 41.5366C32.5122 41.8845 33.2822 41.678 33.6297 41.0761C33.9775 40.4739 33.771 39.7042 33.1691 39.3568ZM65.2683 36.6707H64.0095V35.4119C64.0095 34.7162 63.4467 34.1531 62.7507 34.1531C62.0551 34.1531 61.4919 34.7162 61.4919 35.4119V36.6707H60.2331C59.5375 36.6707 58.9743 37.2338 58.9743 37.9295C58.9743 38.6254 59.5375 39.1882 60.2331 39.1882H61.4919V40.447C61.4919 41.1426 62.0551 41.7058 62.7507 41.7058C63.4467 41.7058 64.0095 41.1426 64.0095 40.447V39.1882H65.2683C65.964 39.1882 66.5271 38.6254 66.5271 37.9295C66.5271 37.2338 65.964 36.6707 65.2683 36.6707ZM31.2813 32.8104C31.2813 33.5063 31.8441 34.0692 32.54 34.0692C33.2357 34.0692 33.7988 33.5063 33.7988 32.8104V31.5516H35.0576C35.7533 31.5516 36.3164 30.9887 36.3164 30.2928C36.3164 29.5971 35.7533 29.034 35.0576 29.034H33.7988V27.7752C33.7988 27.0795 33.2357 26.5164 32.54 26.5164C31.8441 26.5164 31.2813 27.0795 31.2813 27.7752V29.034H30.0225C29.3268 29.034 28.7637 29.5971 28.7637 30.2928C28.7637 30.9887 29.3268 31.5516 30.0225 31.5516H31.2813V32.8104ZM39.2323 28.8694C40.4304 31.2663 41.0959 33.9125 41.2634 36.5867H54.0277C54.1949 33.9128 54.8604 31.2663 56.0585 28.8694L56.324 28.3384C56.4422 28.1021 56.483 27.8346 56.4406 27.5738C56.3983 27.313 56.2749 27.0722 56.088 26.8855C55.7058 26.502 55.1206 26.4072 54.6351 26.6495L50.4113 28.7612L48.5353 26.8855C48.0435 26.3938 47.2469 26.3938 46.7552 26.8855L44.8795 28.7612L40.6556 26.6492C40.1689 26.4072 39.5876 26.5006 39.2028 26.8855C39.0159 27.0722 38.8925 27.313 38.8501 27.5738C38.8078 27.8346 38.8486 28.1021 38.9668 28.3384L39.2323 28.8694ZM55.3524 39.1882H39.9381L35.0232 45.1367C32.6102 48.0588 31.2813 51.8413 31.2813 55.6365C31.2813 64.048 37.7045 69.4828 47.6452 69.4828C57.5864 69.4828 64.0095 64.048 64.0095 55.6365C64.0095 51.8414 62.6806 48.1427 60.2663 45.2206L55.3524 39.1882ZM47.6318 52.2288C49.7143 52.2288 51.4082 53.9227 51.4082 56.0052C51.4082 57.6391 50.3592 59.0201 48.904 59.5453V60.6716C48.904 61.3672 48.3412 61.9304 47.6452 61.9304C46.9496 61.9304 46.3868 61.3672 46.3868 60.6716V59.5538C44.9175 59.0362 43.8554 57.6488 43.8554 56.0052C43.8554 55.3093 44.4185 54.7464 45.1142 54.7464C45.8101 54.7464 46.373 55.3093 46.373 56.0052C46.373 56.6999 46.9374 57.264 47.6318 57.264C48.3264 57.264 48.8906 56.6999 48.8906 56.0052C48.8906 55.3106 48.3264 54.7464 47.6318 54.7464C45.5495 54.7464 43.8554 53.0523 43.8554 50.97C43.8554 49.326 44.9175 47.9391 46.3868 47.4215V45.566C46.3868 44.8705 46.9496 44.3072 47.6452 44.3072C48.3412 44.3072 48.904 44.8705 48.904 45.566V47.4301C50.3592 47.9552 51.4082 49.3363 51.4082 50.97C51.4082 51.666 50.8453 52.2288 50.1494 52.2288C49.4537 52.2288 48.8906 51.666 48.8906 50.97C48.8906 50.2758 48.3264 49.7112 47.6318 49.7112C46.9374 49.7112 46.373 50.2758 46.373 50.97C46.373 51.6647 46.9372 52.2288 47.6318 52.2288Z" fill="#185AAA"/>
</svg>
