<svg width="96" height="96" viewBox="0 0 96 96" fill="none" xmlns="http://www.w3.org/2000/svg">
<path d="M72.0079 45.0776C65.5791 43.3858 61.6316 43.6114 60.7293 43.273C60.2782 43.1602 60.7293 43.273 53.8494 39.0999C53.1727 38.6488 52.2704 38.4232 51.4809 38.3104C43.6987 37.4081 34.563 37.6337 28.3598 42.4835C28.0214 42.7091 27.7959 42.9347 27.4575 42.9347L23.8484 44.0625C23.1716 44.2881 22.6077 44.7392 22.3821 45.3032C21.1415 47.4461 20.6904 50.1529 21.3671 52.6342C21.5926 53.6493 22.3821 54.326 23.2844 54.5516L24.1867 54.7772C24.1867 54.4388 24.0739 54.2132 24.0739 53.8749C24.0739 49.8146 27.3447 46.5438 31.405 46.5438C35.4653 46.5438 38.7361 49.8146 38.7361 53.8749C38.7361 54.4388 38.6233 55.0027 38.5105 55.4539H59.1503C59.0376 54.89 58.9248 54.4388 58.9248 53.8749C58.9248 49.8146 62.1956 46.5438 66.2558 46.5438C70.3161 46.5438 73.5869 49.8146 73.5869 53.8749C73.5869 54.326 73.5869 54.7772 73.4741 55.2283C74.3764 54.7772 74.9404 53.7621 74.9404 52.747V49.2507C75.0531 47.2205 73.8125 45.5287 72.0079 45.0776ZM38.8489 44.9648C38.5105 44.9648 38.1722 44.852 37.9466 44.5137L35.2397 41.2429C37.721 40.4534 40.6535 40.0022 43.9242 40.0022L45.2777 44.9648H38.8489ZM57.3458 44.852C57.1202 44.9648 57.0074 44.9648 56.7818 44.9648H47.6462L46.2927 40.115L51.0298 40.4534C51.4809 40.4534 52.0448 40.6789 52.496 40.9045L58.0225 44.2881L57.3458 44.852Z" fill="#185AAA"/>
<path d="M31.4054 58.8377C34.2085 58.8377 36.4808 56.5654 36.4808 53.7624C36.4808 50.9593 34.2085 48.687 31.4054 48.687C28.6024 48.687 26.3301 50.9593 26.3301 53.7624C26.3301 56.5654 28.6024 58.8377 31.4054 58.8377Z" fill="#185AAA"/>
<path d="M66.3683 58.8377C69.1714 58.8377 71.4437 56.5654 71.4437 53.7624C71.4437 50.9593 69.1714 48.687 66.3683 48.687C63.5653 48.687 61.293 50.9593 61.293 53.7624C61.293 56.5654 63.5653 58.8377 66.3683 58.8377Z" fill="#185AAA"/>
<circle cx="48" cy="48" r="47.5789" stroke="#F7F7FA" stroke-width="0.842105"/>
</svg>
