<svg width="86" height="50" viewBox="0 0 86 50" fill="none" xmlns="http://www.w3.org/2000/svg">
<path d="M0.353516 19.7058C0.353516 16.9444 2.59209 14.7058 5.35352 14.7058H80.6469C83.4083 14.7058 85.6469 16.9444 85.6469 19.7058V44.9996C85.6469 47.761 83.4083 49.9996 80.6469 49.9996H5.35351C2.59209 49.9996 0.353516 47.761 0.353516 44.9996V19.7058Z" fill="#E9E9E9"/>
<path d="M15.0586 22.0587C15.0586 21.2465 15.717 20.5881 16.5292 20.5881H31.2349C32.0471 20.5881 32.7055 21.2465 32.7055 22.0587C32.7055 22.8709 32.0471 23.5293 31.2349 23.5293H16.5292C15.717 23.5293 15.0586 22.8709 15.0586 22.0587ZM15.0586 27.941C15.0586 27.1288 15.717 26.4704 16.5292 26.4704H25.3526C26.1648 26.4704 26.8232 27.1288 26.8232 27.941C26.8232 28.7532 26.1648 29.4116 25.3526 29.4116H16.5292C15.717 29.4116 15.0586 28.7532 15.0586 27.941ZM15.0586 35.2939C15.0586 34.4817 15.717 33.8233 16.5292 33.8233H53.2936C54.1057 33.8233 54.7641 34.4817 54.7641 35.2939C54.7641 36.1061 54.1057 36.7645 53.2936 36.7645H16.5292C15.717 36.7645 15.0586 36.1061 15.0586 35.2939ZM15.0586 42.6468C15.0586 41.8346 15.717 41.1762 16.5292 41.1762H53.2936C54.1057 41.1762 54.7641 41.8346 54.7641 42.6468C54.7641 43.4589 54.1057 44.1173 53.2936 44.1173H16.5292C15.717 44.1173 15.0586 43.4589 15.0586 42.6468ZM57.7053 42.6468C57.7053 41.8346 58.3637 41.1762 59.1759 41.1762H79.7639C80.5761 41.1762 81.2345 41.8346 81.2345 42.6468C81.2345 43.4589 80.5761 44.1173 79.7639 44.1173H59.1759C58.3637 44.1173 57.7053 43.4589 57.7053 42.6468Z" fill="#8C8C8C"/>
<path d="M75.3529 14.7058C75.3529 22.8277 68.7691 29.4115 60.6472 29.4115C52.5252 29.4115 45.9414 22.8277 45.9414 14.7058C45.9414 6.58377 52.5252 0 60.6472 0C68.7691 0 75.3529 6.58377 75.3529 14.7058Z" fill="#FBD405"/>
<path d="M54.7204 10.8585C54.1462 10.2843 54.1462 9.35328 54.7204 8.77907C55.2946 8.20486 56.2255 8.20486 56.7998 8.77907L66.4706 18.4498C67.0448 19.024 67.0449 19.955 66.4707 20.5292C65.8964 21.1035 64.9654 21.1035 64.3911 20.5293L54.7204 10.8585Z" fill="white"/>
<path d="M54.7204 20.6335C54.1462 20.0593 54.1462 19.1283 54.7204 18.5541L64.3912 8.8832C64.9654 8.30899 65.8964 8.30899 66.4706 8.8832C67.0448 9.45741 67.0448 10.3884 66.4706 10.9626L56.7998 20.6335C56.2255 21.2077 55.2946 21.2077 54.7204 20.6335Z" fill="white"/>
<path d="M0.353516 19.7058C0.353516 16.9444 2.59209 14.7058 5.35352 14.7058H5.64754C8.40897 14.7058 10.6475 16.9444 10.6475 19.7058V44.9996C10.6475 47.761 8.40897 49.9996 5.64754 49.9996H5.35351C2.59209 49.9996 0.353516 47.761 0.353516 44.9996V19.7058Z" fill="#264B74"/>
</svg>
