<svg width="24" height="21" viewBox="0 0 24 21" fill="none" xmlns="http://www.w3.org/2000/svg">
<path d="M10.2275 1.00766L0.274488 17.9762C0.0947018 18.2827 3.32746e-05 18.6303 8.77004e-09 18.9841C-3.3257e-05 19.338 0.0945699 19.6856 0.274298 19.9921C0.454027 20.2986 0.712546 20.5531 1.02387 20.73C1.33519 20.9069 1.68834 21 2.04782 21H21.9522C22.3117 21 22.6648 20.9069 22.9761 20.73C23.2875 20.5531 23.546 20.2986 23.7257 19.9921C23.9054 19.6856 24 19.338 24 18.9841C24 18.6303 23.9053 18.2827 23.7255 17.9762L13.7736 1.00766C13.5939 0.701294 13.3354 0.446883 13.0242 0.270002C12.713 0.0931203 12.3599 0 12.0005 0C11.6412 0 11.2881 0.0931203 10.9769 0.270002C10.6656 0.446883 10.4072 0.701294 10.2275 1.00766Z" fill="#1D1F38"/>
<path d="M12.1319 6.24146H11.8722C11.233 6.24146 10.7148 6.75154 10.7148 7.38076V12.8264C10.7148 13.4556 11.233 13.9657 11.8722 13.9657H12.1319C12.7711 13.9657 13.2892 13.4556 13.2892 12.8264V7.38076C13.2892 6.75154 12.7711 6.24146 12.1319 6.24146Z" fill="#F3F5FA"/>
<path d="M12.002 18.2844C12.7129 18.2844 13.2892 17.7171 13.2892 17.0173C13.2892 16.3175 12.7129 15.7502 12.002 15.7502C11.2911 15.7502 10.7148 16.3175 10.7148 17.0173C10.7148 17.7171 11.2911 18.2844 12.002 18.2844Z" fill="#F3F5FA"/>
</svg>
