<svg width="62" height="62" viewBox="0 0 62 62" fill="none" xmlns="http://www.w3.org/2000/svg">
<g clip-path="url(#clip0_271_79)">
<path d="M35.3145 18.4905L38.2894 28.7561C39.3721 31.8795 42.6732 33.6464 45.8727 32.8152L46.4134 32.6748C47.2733 32.4513 47.7685 31.5509 47.4966 30.705L42.6285 15.5631L35.3145 18.4905Z" fill="#FEBEAC"/>
<path d="M48.8051 11.6513L51.1937 12.7516C54.1678 14.1946 57.7514 13.1098 59.426 10.2597L60.2533 8.65136C60.6751 7.83132 60.3394 6.82485 59.5098 6.42233L46.2733 0L28.5281 2.71992C27.0019 2.95383 25.5185 3.41125 24.1256 4.07745L2.16604 16.0041L0.00976562 16.6802V35.7884H2.53853C3.51302 35.7884 4.46968 36.0497 5.30891 36.545C6.14814 37.0403 6.83924 37.7515 7.31025 38.6046C8.74976 41.212 10.8641 43.3843 13.4316 44.8937C15.4408 46.0749 17.6841 46.8023 20.0041 47.0248L23.5018 47.3603C25.7158 47.5727 27.8444 48.3227 29.7025 49.5451L35.7604 53.5311C36.4187 53.9642 37.3028 53.7876 37.7442 53.1347C39.9975 49.8018 39.284 45.293 36.1117 42.8186L27.2256 35.9445C26.7543 35.5799 26.3638 35.1214 26.0788 34.598C25.7938 34.0747 25.6206 33.4979 25.5701 32.9041L25.1223 27.6426C24.9611 25.75 26.0594 23.9755 27.825 23.2752L43.154 17.1958L52.7705 24.922C55.3911 26.937 59.1201 26.5998 61.3369 24.1475L61.5008 23.9769C62.1593 23.2912 62.0998 22.1916 61.3716 21.5808L48.8051 11.6513Z" fill="#FEDED0"/>
<path d="M36.1118 42.8187L33.542 40.8307V52.0714L35.7606 53.5311C36.4189 53.9642 37.303 53.7876 37.7443 53.1347C39.9976 49.8019 39.2841 45.2931 36.1118 42.8187ZM61.3716 21.581L48.8054 11.6513L51.194 12.7516C54.1681 14.1946 57.7518 13.1099 59.4264 10.2597L60.2537 8.65136C60.6754 7.83132 60.3397 6.82485 59.5101 6.42233L46.2736 0L33.542 1.95144V21.0082L43.1541 17.1961L52.7706 24.9222C55.3911 26.9372 59.1202 26.6 61.337 24.1478L61.5009 23.9771C62.1593 23.2914 62.1 22.1917 61.3716 21.581Z" fill="#FEDED0"/>
<path d="M46.1493 4.63301C45.9332 4.45177 45.6779 4.32337 45.4035 4.25797C45.1292 4.19258 44.8434 4.192 44.5688 4.25628L26.1253 8.57076C25.1489 8.79919 24.5424 9.77601 24.7708 10.7525C24.9992 11.7289 25.9764 12.3354 26.9525 12.1068L44.5115 7.99925L48.9405 11.7138L51.1935 12.7516C52.7934 13.5278 54.5694 13.5716 56.13 13.0035L46.1493 4.63301Z" fill="#FECDBF"/>
<path d="M46.1496 4.63301C45.9335 4.45177 45.6782 4.32337 45.4039 4.25797C45.1295 4.19258 44.8437 4.192 44.5691 4.25628L33.542 6.83589V10.5655L44.512 7.99937L48.941 11.7139L51.194 12.7517C52.7939 13.5279 54.5699 13.5718 56.1304 13.0036L46.1496 4.63301Z" fill="#FEBEAC"/>
<path d="M60.1752 62H44.3246C43.3218 62 42.5088 61.187 42.5088 60.1841V55.0771C42.5088 54.0743 43.3218 53.2612 44.3246 53.2612H60.175C61.1779 53.2612 61.9909 54.0743 61.9909 55.0771V60.1841C61.991 61.187 61.178 62 60.1752 62Z" fill="#FBD405"/>
<path d="M60.1753 53.2612H52.25V62H60.1753C61.1781 62 61.9911 61.187 61.9911 60.1841V55.0771C61.9911 54.0743 61.1781 53.2612 60.1753 53.2612Z" fill="#FBD405"/>
<path d="M60.1752 53.2876H44.3246C43.3218 53.2876 42.5088 52.4746 42.5088 51.4717V46.3647C42.5088 45.3618 43.3218 44.5488 44.3246 44.5488H60.175C61.1779 44.5488 61.9909 45.3618 61.9909 46.3647V51.4717C61.991 52.4746 61.178 53.2876 60.1752 53.2876Z" fill="#FFE678"/>
<path d="M60.1753 44.5488H52.25V53.2876H60.1753C61.1781 53.2876 61.9911 52.4746 61.9911 51.4717V46.3647C61.9911 45.3618 61.1781 44.5488 60.1753 44.5488Z" fill="#FFE678"/>
<path d="M60.1752 44.5751H44.3246C43.3218 44.5751 42.5088 43.7621 42.5088 42.7592V37.6523C42.5088 36.6494 43.3218 35.8364 44.3246 35.8364H60.175C61.1779 35.8364 61.9909 36.6494 61.9909 37.6523V42.7592C61.991 43.7622 61.178 44.5751 60.1752 44.5751Z" fill="#FBD405"/>
<path d="M60.1753 35.8364H52.25V44.5751H60.1753C61.1781 44.5751 61.9911 43.7621 61.9911 42.7592V37.6523C61.9911 36.6494 61.1781 35.8364 60.1753 35.8364Z" fill="#FBD405"/>
</g>
<defs>
<clipPath id="clip0_271_79">
<rect width="62" height="62" fill="white"/>
</clipPath>
</defs>
</svg>
