<svg width="52" height="59" viewBox="0 0 52 59" fill="none" xmlns="http://www.w3.org/2000/svg">
<path d="M36.1653 10.3711C35.2288 10.3711 34.471 9.59799 34.471 8.64258V5.18555C34.471 4.23187 33.7115 3.45703 32.7766 3.45703H19.2217C18.2869 3.45703 17.5274 4.23187 17.5274 5.18555V8.64258C17.5274 9.59799 16.7696 10.3711 15.833 10.3711C14.8965 10.3711 14.1387 9.59799 14.1387 8.64258V5.18555C14.1387 2.32612 16.4188 0 19.2217 0H32.7766C35.5795 0 37.8597 2.32612 37.8597 5.18555V8.64258C37.8597 9.59799 37.1019 10.3711 36.1653 10.3711Z" fill="#8C8C8C"/>
<path d="M32.7765 0H25.999V3.45703H32.7765C33.7113 3.45703 34.4708 4.23187 34.4708 5.18555V8.64258C34.4708 9.59799 35.2286 10.3711 36.1652 10.3711C37.1017 10.3711 37.8595 9.59799 37.8595 8.64258V5.18555C37.8595 2.32612 35.5794 0 32.7765 0Z" fill="#8C8C8C"/>
<path d="M39.8257 59H12.1734C9.55071 59 7.32523 56.9102 7.11015 54.2449L3.97954 15.7001C3.96001 15.4621 3.98902 15.2225 4.06477 14.9965C4.14051 14.7705 4.26134 14.5629 4.41963 14.3869C4.57842 14.2108 4.77128 14.0703 4.98602 13.9741C5.20076 13.8779 5.43272 13.8282 5.66724 13.8281H46.3319C46.805 13.8281 47.2584 14.0307 47.5795 14.3869C47.7377 14.5629 47.8586 14.7705 47.9343 14.9965C48.0101 15.2225 48.0391 15.4621 48.0195 15.7001L44.8889 54.2449C44.6739 56.9102 42.4484 59 39.8257 59Z" fill="#E9E9E9"/>
<path d="M46.3313 13.8281H25.999V59H39.8252C42.4479 59 44.6733 56.9102 44.8884 54.2449L48.019 15.7001C48.0386 15.4621 48.0095 15.2225 47.9338 14.9965C47.8581 14.7705 47.7372 14.5629 47.5789 14.3869C47.4201 14.2108 47.2273 14.0703 47.0125 13.9741C46.7978 13.8779 46.5659 13.8282 46.3313 13.8281Z" fill="#E9E9E9"/>
<path d="M46.3317 17.285H5.66706C2.86414 17.285 0.583984 14.9589 0.583984 12.0995C0.583984 9.24006 2.86414 6.91394 5.66706 6.91394H46.3317C49.1346 6.91394 51.4148 9.24006 51.4148 12.0995C51.4148 14.9589 49.1346 17.285 46.3317 17.285Z" fill="#8C8C8C"/>
<path d="M46.3313 6.91394H25.999V17.285H46.3313C49.1343 17.285 51.4144 14.9589 51.4144 12.0995C51.4144 9.24006 49.1343 6.91394 46.3313 6.91394Z" fill="#8C8C8C"/>
<path d="M26.0006 51.7386C35.0242 51.7386 42.3392 44.4236 42.3392 35.4C42.3392 26.3765 35.0242 19.0615 26.0006 19.0615C16.9771 19.0615 9.66211 26.3765 9.66211 35.4C9.66211 44.4236 16.9771 51.7386 26.0006 51.7386Z" fill="#FBD405"/>
<path d="M26.0009 48.319C33.1357 48.319 38.9197 42.535 38.9197 35.4002C38.9197 28.2653 33.1357 22.4813 26.0009 22.4813C18.866 22.4813 13.082 28.2653 13.082 35.4002C13.082 42.535 18.866 48.319 26.0009 48.319Z" fill="#EEF3FF"/>
<path d="M30.5598 41.0997C30.4102 41.0997 30.262 41.0702 30.1237 41.0128C29.9855 40.9555 29.86 40.8714 29.7543 40.7653L25.1947 36.2057C24.9809 35.9922 24.8606 35.7024 24.8604 35.4002V27.8009C24.8604 27.4986 24.9804 27.2087 25.1942 26.9949C25.408 26.7811 25.6979 26.661 26.0002 26.661C26.3026 26.661 26.5925 26.7811 26.8063 26.9949C27.02 27.2087 27.1401 27.4986 27.1401 27.8009V34.9291L31.3654 39.1543C31.5246 39.3137 31.633 39.5167 31.6769 39.7377C31.7208 39.9587 31.6982 40.1877 31.612 40.3959C31.5258 40.6041 31.3799 40.782 31.1926 40.9073C31.0053 41.0325 30.7851 41.0995 30.5598 41.0997Z" fill="#FBD405"/>
</svg>
