<svg width="28" height="28" viewBox="0 0 28 28" fill="none" xmlns="http://www.w3.org/2000/svg">
<circle cx="14" cy="14" r="14" fill="black"/>
<path d="M12.787 12.0848V11.4722C12.5744 11.4385 12.3596 11.4201 12.1443 11.417C10.0603 11.4126 8.21515 12.7631 7.58941 14.751C6.96356 16.7388 7.70227 18.9027 9.41296 20.093C8.13155 18.7215 7.77573 16.725 8.5045 14.9953C9.23322 13.2657 10.9105 12.1257 12.787 12.0848Z" fill="#25F4EE"/>
<path d="M12.9028 19.0239C14.068 19.0224 15.0258 18.1044 15.0768 16.9403V6.55226H16.9747C16.9359 6.3352 16.9174 6.11501 16.9194 5.89453L14.3237 5.89453V16.2725C14.2805 17.4425 13.3205 18.3693 12.1497 18.3712C11.7998 18.3683 11.4556 18.2822 11.1455 18.1202C11.3465 18.3987 11.6104 18.6257 11.9158 18.7827C12.2212 18.9398 12.5594 19.0224 12.9028 19.0239ZM20.5194 10.0769V9.49947C19.8209 9.49971 19.1379 9.2936 18.5562 8.90702C19.0662 9.49983 19.7553 9.91048 20.5194 10.0769Z" fill="#25F4EE"/>
<path d="M18.5562 8.90665C17.9832 8.25412 17.6673 7.4153 17.6675 6.54688H16.9747C17.0642 7.02702 17.2505 7.48389 17.5225 7.88961C17.7944 8.29533 18.1461 8.64138 18.5562 8.90665ZM12.1446 14.0128C11.1447 14.0179 10.2766 14.703 10.0391 15.6743C9.80163 16.6456 10.2557 17.6539 11.1405 18.1198C10.9054 17.7952 10.7646 17.412 10.7336 17.0123C10.7027 16.6127 10.7828 16.2124 10.9652 15.8554C11.1475 15.4985 11.425 15.199 11.767 14.9899C12.1089 14.7807 12.502 14.6702 12.9028 14.6705C13.1207 14.6733 13.3371 14.7071 13.5454 14.771V12.13C13.3327 12.0981 13.1179 12.0814 12.9028 12.0798H12.7873V14.0881C12.5779 14.032 12.3614 14.0066 12.1446 14.0128Z" fill="#FE2C55"/>
<path d="M20.5191 10.0771V12.0855C19.2261 12.083 17.9667 11.6737 16.9192 10.9156V16.1925C16.9137 18.8256 14.7775 20.9572 12.1444 20.9572C11.1665 20.959 10.2122 20.6573 9.41309 20.0937C10.7467 21.528 12.8222 22.0002 14.6451 21.2839C16.468 20.5676 17.6668 18.8088 17.6673 16.8502V11.5884C18.7183 12.3415 19.9793 12.7455 21.2722 12.7432V10.1575C21.0191 10.1567 20.7667 10.1298 20.5191 10.0771Z" fill="#FE2C55"/>
<path d="M16.9189 16.1918V10.915C17.9696 11.6687 19.2308 12.0727 20.5239 12.0698V10.0614C19.7599 9.90013 19.0692 9.49483 18.5557 8.90665C18.1456 8.64138 17.7939 8.29533 17.522 7.88961C17.25 7.48389 17.0636 7.02702 16.9742 6.54688H15.0763V16.9399C15.0383 17.8672 14.4173 18.6686 13.5289 18.9368C12.6404 19.205 11.6797 18.8812 11.135 18.1299C10.2502 17.6639 9.7961 16.6557 10.0336 15.6843C10.2711 14.713 11.1392 14.028 12.1391 14.0229C12.3571 14.0248 12.5736 14.0586 12.7818 14.1233V12.115C10.8947 12.1469 9.2048 13.2908 8.47397 15.0309C7.74319 16.7709 8.10946 18.7784 9.40779 20.1482C10.2148 20.6933 11.1705 20.9756 12.1441 20.9566C14.7772 20.9566 16.9134 18.825 16.9189 16.1918Z" fill="white"/>
</svg>
