<svg width="28" height="28" viewBox="0 0 28 28" fill="none" xmlns="http://www.w3.org/2000/svg">
<circle cx="14" cy="14" r="14" fill="#FF0000"/>
<g clip-path="url(#clip0_196_48)">
<circle cx="13.9417" cy="13.9417" r="3.57065" fill="#FF0000"/>
<path d="M21.6086 9.97273L21.6285 10.1028C21.5377 9.77188 21.3641 9.46959 21.1241 9.22444C20.884 8.97929 20.5855 8.79937 20.2566 8.70166L20.2426 8.69834C19.0014 8.36134 14.0067 8.36134 14.0067 8.36134C14.0067 8.36134 9.02455 8.3547 7.77073 8.69834C7.44127 8.79369 7.14152 8.97138 6.89975 9.21466C6.65799 9.45793 6.48216 9.75878 6.38887 10.0888L6.38555 10.1028C5.92184 12.5248 5.91852 15.4352 6.40612 18.0284L6.38555 17.897C6.47632 18.2279 6.64992 18.5302 6.88996 18.7753C7.13 19.0205 7.42857 19.2004 7.75746 19.2981L7.77139 19.3014C9.01128 19.6391 14.0073 19.6391 14.0073 19.6391C14.0073 19.6391 18.9888 19.6391 20.2433 19.3014C20.5729 19.2063 20.8728 19.0286 21.1147 18.7853C21.3566 18.542 21.5325 18.2411 21.6258 17.911L21.6291 17.897C21.8401 16.7706 21.9608 15.4743 21.9608 14.1502L21.9602 14.0035L21.9608 13.851C21.9608 12.5262 21.8401 11.2299 21.6086 9.97273ZM12.4132 16.4223V11.5841L16.57 14.0069L12.4132 16.4223Z" fill="white"/>
</g>
<defs>
<clipPath id="clip0_196_48">
<rect width="15.9216" height="15.9216" fill="white" transform="translate(6.03906 6.03906)"/>
</clipPath>
</defs>
</svg>
