<svg width="19" height="19" viewBox="0 0 19 19" fill="none" xmlns="http://www.w3.org/2000/svg">
<path d="M12.214 9.49994C11.5429 9.49994 10.8868 9.30092 10.3288 8.92803C9.77073 8.55515 9.3358 8.02515 9.07899 7.40508C8.82218 6.785 8.75502 6.1027 8.88599 5.44445C9.01697 4.7862 9.34021 4.18157 9.81483 3.70704C10.2894 3.2325 10.8941 2.90937 11.5524 2.77851C12.2107 2.64765 12.893 2.71493 13.513 2.97185C14.133 3.22877 14.6629 3.66379 15.0357 4.22189C15.4085 4.77999 15.6074 5.4361 15.6073 6.10726C15.6064 7.00687 15.2485 7.86935 14.6124 8.50542C13.9762 9.14148 13.1136 9.49916 12.214 9.49994ZM7.77516 12.303C8.63501 11.4211 9.73826 10.8154 10.944 10.5635C12.1497 10.3116 13.4031 10.4248 14.5442 10.8887C15.6853 11.3526 16.6621 12.1461 17.3501 13.1678C18.038 14.1896 18.4057 15.3932 18.4062 16.6249C18.4062 16.7824 18.3437 16.9334 18.2323 17.0448C18.121 17.1561 17.97 17.2187 17.8125 17.2187H6.61437C6.4569 17.2187 6.30588 17.1561 6.19453 17.0448C6.08318 16.9334 6.02062 16.7824 6.02062 16.6249C6.01833 15.9953 6.11551 15.3693 6.30859 14.7701C6.59608 13.8436 7.09861 12.9982 7.77516 12.303Z" fill="white"/>
<path d="M5.04688 9.79688C3.65322 9.79688 2.52344 8.66709 2.52344 7.27344C2.52344 5.87978 3.65322 4.75 5.04688 4.75C6.44053 4.75 7.57031 5.87978 7.57031 7.27344C7.57031 8.66709 6.44053 9.79688 5.04688 9.79688Z" fill="white"/>
<path d="M5.04683 10.4917C5.84272 10.4947 6.62319 10.7114 7.30664 11.1193C7.1778 11.2345 7.04777 11.3479 6.92605 11.4726C6.11758 12.3036 5.517 13.3139 5.1733 14.4211C5.05558 14.7857 4.96879 15.1595 4.91383 15.5386H1.18745C1.02998 15.5386 0.878958 15.476 0.767608 15.3647C0.656259 15.2533 0.593703 15.1023 0.593703 14.9448C0.594961 13.7642 1.06453 12.6322 1.89938 11.7974C2.73423 10.9625 3.86617 10.493 5.04683 10.4917Z" fill="white"/>
</svg>
